<svg width="66" height="50" viewBox="0 0 66 50" fill="none" xmlns="http://www.w3.org/2000/svg">
<path d="M55.7504 4.09994C51.4046 2.16711 46.8802 0.761417 42.1772 0C41.5818 1.05427 40.927 2.40139 40.4507 3.51423C35.4501 2.75282 30.3898 2.75282 25.3892 3.51423C24.8534 2.28425 24.2581 1.11284 23.6032 0C18.9002 0.761417 14.3162 2.16711 10.0299 4.15851C1.45733 16.7512 -0.864417 28.9924 0.266689 41.1165C5.3269 44.8065 10.9229 47.6179 16.9356 49.375C18.3049 47.5593 19.4955 45.685 20.5075 43.6936C18.543 42.9908 16.6975 42.1122 14.9115 41.058C15.3878 40.7066 15.8045 40.3551 16.2808 40.0037C26.8179 44.9236 39.0815 44.9236 49.6187 40.0037C50.0949 40.3551 50.5116 40.7066 50.9879 41.058C49.2019 42.1122 47.2969 42.9908 45.3323 43.6936C46.3444 45.685 47.535 47.5593 48.9043 49.375C54.917 47.5593 60.5725 44.8065 65.5732 41.1165C66.8829 27.0596 63.1919 14.8769 55.7504 4.09994ZM21.9363 33.6195C18.6621 33.6195 16.0426 30.691 16.0426 27.1182C16.0426 23.5454 18.6621 20.5583 21.9363 20.5583C25.2701 20.5583 27.8895 23.4868 27.8895 27.1182C27.83 30.691 25.2701 33.6195 21.9363 33.6195ZM43.8441 33.6195C40.5698 33.6195 37.9504 30.691 37.9504 27.1182C37.9504 23.5454 40.5698 20.5583 43.8441 20.5583C47.1778 20.5583 49.7972 23.4868 49.7377 27.1182C49.6782 30.7495 47.1183 33.6195 43.8441 33.6195Z" fill="#5865F2"/>
</svg>
