<svg width="54" height="61" viewBox="0 0 54 61" fill="none" xmlns="http://www.w3.org/2000/svg">
<path d="M52.8049 31.4601C52.1285 28.9335 51.4338 26.4096 50.809 23.8704C50.223 21.4866 49.909 19.0382 49.4702 16.6194C48.9223 13.596 48.4115 10.5644 47.7744 7.55852C47.4819 6.17759 46.7297 5.11836 45.364 4.68668C43.3994 4.0657 41.4734 3.28495 39.4426 2.91838C34.888 2.0977 30.3699 1.05817 25.7691 0.511047H25.0975C24.6039 0.748498 23.9388 0.861753 23.8421 1.50079C23.7114 2.36634 23.2888 3.11261 23.064 3.93494C22.5264 5.90786 22.25 7.95136 21.4736 9.863C21.1865 10.5704 21.7166 11.9919 22.3839 12.2255C23.0694 12.4651 23.0205 12.8087 22.9909 13.4231C22.8796 15.7473 22.3048 15.2341 24.298 16.4711C25.6368 17.3017 27.0186 17.1715 28.1536 16.0105C28.3585 15.8009 28.4488 15.7752 28.6811 15.9475C29.3183 16.4208 30.0484 16.5773 30.8318 16.5171C31.0248 16.5023 31.2227 16.4624 31.42 16.5647C32.5169 17.1408 33.6954 17.4401 34.9149 17.5851C35.1654 17.6146 35.2375 17.6666 35.223 17.9484C35.1805 18.8577 35.2289 19.7725 35.1638 20.6796C35.0778 21.8762 34.895 23.0322 34.0992 24.0335C32.4464 26.1125 30.9022 28.2764 29.9592 30.8074C29.8054 31.2215 29.5973 31.1482 29.3613 30.989C28.9483 30.7094 28.6408 30.3193 28.3494 29.9106C26.8068 27.7484 24.8007 26.2559 22.2586 25.5112C20.8279 25.0927 19.3675 25.0188 17.8992 24.9154C16.1985 24.7983 14.5199 24.795 12.845 25.2076C10.7422 25.7257 8.98561 26.9037 7.24517 28.1205C3.15885 30.971 1.02752 34.8944 1.1786 39.97C1.22054 41.3838 0.969987 42.6892 0.511353 43.987V46.1755C0.655449 46.9037 0.68986 47.6489 0.924823 48.364C1.4625 49.9971 2.2389 51.4919 3.18896 52.9133C5.47085 56.3268 8.47375 58.7314 12.3832 59.9405C13.9064 60.4121 15.4592 60.6649 17.0367 60.8017H18.6497C20.3651 60.6951 22.063 60.3908 23.7109 59.8946C25.3239 59.4109 26.8493 58.6783 28.4752 58.2357C30.0753 57.798 31.7114 57.4899 33.2707 56.9149C34.1261 56.5992 34.9681 56.5867 35.8456 56.6857C38.0689 56.9428 40.2884 57.1009 42.5353 56.8887C44.8898 56.666 46.8453 55.6018 48.6772 54.2028C49.3224 53.7104 49.6385 52.9992 49.7068 52.2009C49.8143 50.9425 50.1681 49.7443 50.5133 48.5412C51.1967 46.158 51.9973 43.8114 52.5419 41.3854C52.8758 39.8956 53.0049 38.3845 53.178 36.876V33.8669C53.0409 33.0675 53.0183 32.2567 52.8049 31.4601ZM24.9534 15.5563C24.5421 15.436 24.0931 15.3566 24.1351 14.7548C23.8609 14.3516 24.1641 13.9768 24.1829 13.5019C24.897 14.2624 25.6035 14.9365 26.6423 15.1039C26.0841 15.7385 25.7099 15.8266 24.9534 15.5563ZM50.6364 37.1502C50.5827 39.1586 50.181 41.0965 49.524 43.0044C49.2589 42.5951 49.0514 41.8942 48.9987 41.2536C48.8288 40.6052 48.6659 39.9547 48.4852 39.3091C48.4122 39.0556 48.3024 38.8145 48.1594 38.594C47.9561 39.7528 48.1734 40.8859 48.2637 42.0184C48.4395 44.2228 48.3787 46.4315 48.3175 48.6326C48.2943 49.4932 48.1024 50.3719 48.0594 51.2539C48.0389 51.6823 47.8486 52.0198 47.4588 52.3125C46.1447 53.2974 44.5968 53.6256 43.0821 54.0633L41.5019 54.5213C40.5153 54.8495 39.5152 54.6586 38.5211 54.588C36.4069 54.437 34.3374 53.955 32.2394 53.6842C31.7491 53.6207 31.334 53.7219 30.9442 54.0672C30.3748 54.5765 29.6538 54.5005 28.9645 54.46C27.0025 54.3445 25.0394 54.2203 23.0786 54.1033C22.8097 54.0874 22.5377 54.0568 22.2909 54.286C22.621 54.7516 23.2216 54.6427 23.6259 54.9322L27.3676 55.917L25.0986 56.7015C23.7722 57.374 22.3505 57.8062 20.8935 57.9003C15.0102 58.2789 9.85718 56.457 5.56279 52.3131C4.32023 51.1138 3.45726 49.6212 2.95292 47.9361C2.40772 46.1957 1.98942 44.4455 2.54161 42.6175C2.81044 41.6924 2.80399 40.7436 2.78571 39.7906C2.74969 37.9572 3.0696 36.1938 3.86105 34.5333C4.66756 32.3645 6.21552 30.8396 7.99791 29.4921C10.1551 27.8617 12.5966 27.2166 15.2253 27.3485C17.0115 27.4382 18.8046 27.3217 20.5838 27.564C21.6924 27.715 22.7705 27.9558 23.7517 28.5335C24.8427 28.9767 25.7771 29.6694 26.6503 30.4485C27.3869 31.1088 28.0671 31.8491 29.0241 32.1894C29.2984 32.2873 29.2736 32.4454 29.2268 32.6637C28.3386 36.8492 28.9844 40.8159 30.8764 44.6041C30.9947 44.8482 31.139 45.0782 31.3066 45.2902C31.4367 45.4505 31.5899 45.7449 31.8367 45.5561C32.0227 45.4144 32.0615 45.1485 31.9647 44.8766C31.0458 42.2915 30.6995 39.6062 30.6011 36.8739C30.5049 34.205 31.3189 31.8234 32.7879 29.6557C33.8772 28.0493 34.9117 26.4063 36.1752 24.9214C36.7817 24.2102 36.7575 23.1827 36.9096 22.2706C37.1543 20.806 37.172 19.3315 37.0365 17.8548C37.015 17.6206 36.9779 17.3881 37.2634 17.2907C38.0963 17.0062 38.4227 16.3004 38.6802 15.5361C38.6587 14.513 38.7598 14.4244 39.6029 14.7291C40.0679 14.6913 40.1943 15.0076 40.2728 15.3856C40.4879 16.3924 40.7099 17.398 40.9288 18.4036C40.9669 17.4188 41.0497 16.4279 41.025 15.442C41.0105 14.8719 41.2325 14.6372 41.7299 14.56C42.5568 13.7142 42.5902 12.5521 42.859 11.4962C42.9552 11.1208 42.552 11.1132 42.2891 11.2117C41.9455 11.3397 41.8358 11.6712 41.7008 11.9924C41.2315 13.1091 40.0776 13.3301 39.1448 12.563C38.6716 12.174 38.3259 11.6701 37.8597 11.2757C37.5398 11.0054 37.8732 10.6049 37.9027 10.269C37.9232 10.0392 38.0608 9.85096 37.771 9.70981C37.4635 9.56044 37.35 9.75631 37.2 9.97844C36.3279 11.2735 36.066 12.7617 35.8612 14.2701C35.8214 14.5639 35.9956 14.6224 36.2241 14.6142C36.8397 14.5912 37.0021 14.1092 37.1984 13.6403C37.2694 13.4702 37.2183 13.108 37.5054 13.178C37.8608 13.2645 37.7597 13.6053 37.6909 13.8674C37.5645 14.3472 37.4124 14.8199 37.2871 15.2997C37.2124 15.5848 37.0688 15.7747 36.7865 15.8775C36.3456 16.0373 35.9085 16.2003 35.4321 16.1998C34.495 16.3338 33.6401 16.0515 32.79 15.6948C32.4136 15.5367 32.3104 15.3638 32.4013 14.9359C32.811 13.0018 33.1755 11.0585 33.5562 9.11837C33.3857 8.86614 33.1836 8.63033 32.8529 8.73155C32.5222 8.83277 32.5384 9.14955 32.4583 9.43898C31.9921 11.1296 31.57 12.8311 31.2135 14.5469C31.1539 14.8347 30.9985 14.9168 30.735 14.8407C30.6463 14.8407 30.5522 14.8631 30.4699 14.8407C29.1849 14.4802 29.1107 14.3018 29.4941 13.0139C30.0317 11.2029 30.6151 9.39849 30.7307 7.48795C30.6339 7.36539 30.5576 7.21438 30.4355 7.12684C30.1425 6.92277 29.8801 6.96271 29.928 7.38016C29.9817 7.87257 29.7704 8.25556 29.5892 8.66644C28.9836 10.028 28.5252 11.4525 28.2219 12.9148C28.0816 13.6015 27.8241 13.753 27.2375 13.4981C27.0063 13.5298 26.8073 13.4264 26.5987 13.3514C26.061 13.1583 25.9132 12.8749 26.1223 12.272C26.7982 10.3226 27.3859 8.34419 27.6945 6.29029C27.7278 6.07145 27.7203 5.90129 27.638 5.71582C27.5375 5.62773 27.4482 5.51776 27.3337 5.45593C27.1186 5.3383 26.9089 5.03027 26.6347 5.2918C26.396 5.5194 26.5648 5.75849 26.7315 5.94506C26.9509 6.18962 26.8218 6.40355 26.7159 6.63006C26.0089 8.1434 25.4416 9.69996 25.0685 11.3424C24.912 12.0318 24.5625 11.2439 24.2883 11.2806C24.0367 11.1969 23.7894 11.0951 23.5329 11.0338C23.0049 10.908 22.9414 10.5272 23.0753 10.1037C23.6372 8.35677 23.7711 6.52118 24.1743 4.74194C24.2001 4.30424 24.2932 3.89007 24.5233 3.49943C24.7582 3.628 24.7975 3.82004 24.841 4.00934C25.0776 3.76369 24.9459 3.45894 24.954 3.18428C24.9857 2.11794 25.4088 1.84493 26.4057 2.21533C26.8154 2.36743 27.0772 2.77887 27.5348 2.82264C27.5391 2.72634 27.5434 2.6306 27.5482 2.5343L27.1036 1.86134L29.793 2.43801L32.6427 3.09127C34.3385 3.42775 36.03 3.78776 37.7312 4.09469C40.1249 4.52692 42.3525 5.48603 44.6296 6.28811C45.4694 6.5841 45.7673 7.01742 45.7657 7.74455L46.285 12.9925L46.3689 13.0089C46.463 12.7069 46.5571 12.4071 46.7066 11.9246C46.9582 13.3164 47.1792 14.536 47.3991 15.7544C48.2201 20.3141 48.8105 24.9187 50.0262 29.4018C50.3095 30.4468 50.4526 31.5285 50.3891 32.6298C50.3208 33.8133 50.5128 34.9825 50.6864 36.1517C50.7354 36.4898 50.8133 36.8273 50.6364 37.1502Z" fill="url(#paint0_linear_144_794)"/>
<defs>
<linearGradient id="paint0_linear_144_794" x1="0.511353" y1="30.6553" x2="53.1769" y2="30.6553" gradientUnits="userSpaceOnUse">
<stop stop-color="#BFCBF6"/>
<stop offset="0.19" stop-color="#0068B1"/>
<stop offset="0.39" stop-color="#0068B1"/>
<stop offset="0.6" stop-color="#0589E7"/>
<stop offset="0.82" stop-color="#67AFE1"/>
<stop offset="1" stop-color="#BFCBF6"/>
</linearGradient>
</defs>
</svg>
