<svg width="130" height="38" viewBox="0 0 130 38" fill="none" xmlns="http://www.w3.org/2000/svg">
<rect width="130" height="38" rx="8" fill="#343535"/>
<path d="M14.8422 24.0718C15.0015 24.174 15.2646 24.174 15.7943 24.174H18.3164C18.9101 24.174 19.2079 24.174 19.4727 24.1013C19.7635 24.0147 20.0284 23.8624 20.2482 23.6512C20.4507 23.4591 20.5961 23.2029 20.8852 22.6991L20.8939 22.6836L24.1655 16.8985C24.4563 16.3913 24.6 16.1351 24.6641 15.8668C24.735 15.576 24.735 15.2696 24.6641 14.9788C24.6 14.7122 24.4563 14.4595 24.169 13.9592L24.1621 13.9471L22.8811 11.7123C22.6162 11.2467 22.4812 11.013 22.3133 10.9264C22.1316 10.833 21.9135 10.833 21.7317 10.9264C21.5621 11.013 21.4288 11.2449 21.1639 11.7123L14.934 22.6922C14.6726 23.1527 14.541 23.3829 14.5514 23.5698C14.5635 23.7741 14.6691 23.9593 14.8422 24.0718Z" fill="white"/>
<path d="M29.1578 22.6819L27.3471 19.5834L27.3264 19.5488C27.0719 19.1178 26.9438 18.9014 26.7776 18.8166C26.5959 18.7231 26.3812 18.7231 26.1995 18.8166C26.0333 18.9031 25.9 19.1299 25.6334 19.5869L23.8297 22.6854L23.8228 22.6958C23.5579 23.1511 23.4264 23.3795 23.4368 23.5665C23.4489 23.7708 23.5545 23.9594 23.7276 24.0702C23.8834 24.1724 24.1517 24.1724 24.6848 24.1724H28.2992C28.8324 24.1724 29.1007 24.1724 29.2599 24.0668C29.433 23.9542 29.5403 23.7673 29.5507 23.5613C29.5594 23.3795 29.4313 23.158 29.1803 22.7252C29.1768 22.7131 29.1682 22.6975 29.1578 22.6819Z" fill="white"/>
<path d="M22 6C14.8197 6 9 11.8197 9 19C9 26.1803 14.8197 32 22 32C29.1803 32 35 26.1803 35 19C35 11.8197 29.1803 6 22 6ZM14.934 22.6923L21.1639 11.7124C21.4288 11.2467 21.5638 11.013 21.7317 10.9265C21.9134 10.833 22.1316 10.833 22.3133 10.9265C22.483 11.013 22.6162 11.245 22.8811 11.7124L24.1621 13.9471L24.169 13.9593C24.4546 14.4595 24.6 14.714 24.664 14.9788C24.735 15.2696 24.735 15.576 24.664 15.8668C24.6 16.1352 24.4563 16.3913 24.1655 16.8985L20.8939 22.6836L20.8852 22.6992C20.5979 23.2029 20.4507 23.4591 20.2482 23.6513C20.0284 23.8624 19.7635 24.0148 19.4727 24.1013C19.2079 24.174 18.9101 24.174 18.3164 24.174H15.7925C15.2628 24.174 14.9997 24.174 14.8405 24.0719C14.6674 23.9594 14.5618 23.7742 14.5497 23.5699C14.541 23.3812 14.6726 23.151 14.934 22.6923ZM29.5542 23.563C29.5438 23.7672 29.4365 23.9559 29.2634 24.0684C29.1041 24.174 28.8358 24.174 28.3027 24.174H24.6883C24.1551 24.174 23.8868 24.174 23.731 24.0719C23.5579 23.9594 23.4541 23.7724 23.4402 23.5682C23.4316 23.3812 23.5631 23.1527 23.8262 22.6975L23.8332 22.6871L25.6369 19.5885C25.9017 19.1316 26.0368 18.9048 26.2029 18.8182C26.3847 18.7248 26.5993 18.7248 26.7811 18.8182C26.9455 18.9031 27.0754 19.1194 27.3298 19.5505L27.3506 19.5851L29.1613 22.6836C29.1699 22.6992 29.1786 22.713 29.1872 22.7286C29.4365 23.1597 29.5628 23.3812 29.5542 23.563Z" fill="#E84142"/>
<g clip-path="url(#clip0_146_4284)">
<path d="M86.2458 15.1718C86.8144 15.1718 87.3831 15.1718 87.9518 15.1718C88.0465 15.1718 88.1413 15.3152 88.2124 15.4107C89.3023 17.2024 90.3922 18.9702 91.5059 20.7619C91.5296 20.7858 91.5532 20.8096 91.6006 20.8574C91.6006 18.9463 91.6006 17.0591 91.6006 15.1479C92.0034 15.1479 92.3825 15.1241 92.7379 15.1479C92.809 15.1479 92.9038 15.3152 92.9038 15.3868C92.9038 17.083 92.9038 18.803 92.9038 20.4991C92.9038 21.3591 92.9038 22.1952 92.9038 23.103C92.4536 23.103 92.0508 23.103 91.648 23.103C91.5769 23.103 91.4822 22.9835 91.4348 22.9119C90.179 21.0008 88.9232 19.0419 87.6674 17.083C87.6437 17.0591 87.62 17.0352 87.5253 16.9157C87.5253 19.0657 87.5253 21.0963 87.5253 23.1747C87.0514 23.1747 86.6486 23.1747 86.2221 23.1747C86.2458 20.4991 86.2458 17.8713 86.2458 15.1718Z" fill="#E84142"/>
<path d="M108.044 23.1507C107.594 23.1507 107.168 23.1507 106.717 23.1507C106.717 20.5229 106.717 17.8951 106.717 15.2434C107.144 15.2434 107.547 15.2434 107.997 15.2434C107.997 16.2946 107.997 17.3457 107.997 18.4685C108.376 18.4685 108.731 18.4685 109.087 18.4685C109.821 18.4685 110.556 18.4685 111.29 18.4685C111.527 18.4685 111.575 18.3729 111.575 18.1579C111.575 17.2979 111.575 16.4618 111.575 15.6018C111.575 15.2912 111.669 15.1957 111.977 15.2196C112.262 15.2434 112.546 15.2196 112.854 15.2196C112.854 17.8712 112.854 20.499 112.854 23.1507C112.451 23.1507 112.049 23.1507 111.598 23.1507C111.598 21.9324 111.598 20.6901 111.598 19.4479C110.414 19.4479 109.253 19.4479 108.068 19.4479C108.044 20.6901 108.044 21.9085 108.044 23.1507Z" fill="#E84142"/>
<path d="M83.521 23.1746C83.1419 23.1746 82.8102 23.1507 82.4548 23.1746C82.2178 23.1984 82.0993 23.1029 82.0283 22.8879C81.7913 22.3384 81.5307 21.7651 81.2464 21.2395C81.199 21.1201 81.0094 21.0245 80.891 21.0245C79.801 21.0007 78.7111 21.0007 77.6212 21.0245C77.5027 21.0245 77.3369 21.144 77.2895 21.2395C77.0051 21.8129 76.7682 22.3862 76.4839 22.9596C76.4365 23.0551 76.2706 23.1507 76.1522 23.1746C75.8204 23.1984 75.465 23.1746 75.0859 23.1746C75.3703 22.5057 75.6309 21.8607 75.8678 21.2395C76.6497 19.3045 77.4553 17.3934 78.2372 15.4584C78.332 15.2195 78.4505 15.124 78.7111 15.1478C79.0902 15.1717 79.4693 15.1478 79.8484 15.1478C79.9432 15.1478 80.0854 15.2434 80.1327 15.3151C81.2464 17.8712 82.3363 20.4512 83.4499 23.0073C83.4973 23.079 83.4973 23.1029 83.521 23.1746ZM77.716 20.1407C78.7348 20.1407 79.7536 20.1407 80.7962 20.1407C80.2512 18.7551 79.7299 17.4173 79.2087 16.0317C78.7111 17.3934 78.2135 18.7551 77.716 20.1407Z" fill="#E84142"/>
<path d="M65.6557 23.1747C65.324 23.1747 65.0397 23.1508 64.779 23.1747C64.3763 23.2224 64.1867 23.0552 64.0445 22.6969C63.855 22.1952 63.618 21.7174 63.3811 21.2158C63.3337 21.1202 63.1679 21.0008 63.0494 21.0008C61.9595 20.9769 60.8458 20.9769 59.7559 21.0008C59.6375 21.0008 59.4716 21.1202 59.4242 21.2158C59.1636 21.7652 58.9029 22.3147 58.666 22.888C58.5712 23.103 58.4528 23.1986 58.2395 23.1747C57.9315 23.1508 57.6235 23.1747 57.2444 23.1747C58.2869 20.6424 59.3057 18.1341 60.3483 15.6257C60.443 15.6974 60.5141 15.7452 60.5852 15.793L60.6089 15.7691C60.5378 15.6974 60.4667 15.6019 60.4194 15.5302C60.4667 15.2435 60.6089 15.148 60.8932 15.1718C61.2486 15.1957 61.6041 15.1957 61.9595 15.1718C62.149 15.1718 62.2675 15.2196 62.3386 15.4107C63.4048 17.9191 64.4947 20.4035 65.5609 22.9119C65.5846 22.9836 65.6083 23.0552 65.6557 23.1747ZM62.9309 20.1408C62.4096 18.7552 61.8647 17.4174 61.3434 16.0319C60.8458 17.4174 60.3483 18.7552 59.8507 20.1408C60.8932 20.1408 61.8884 20.1408 62.9309 20.1408Z" fill="#E84142"/>
<path d="M39 23.1745C39.4739 22.0279 39.9241 20.9529 40.3506 19.8779C40.9666 18.3967 41.5826 16.9395 42.175 15.4584C42.2698 15.2434 42.3645 15.1239 42.6015 15.1717C42.72 15.1956 42.8384 15.1956 42.9332 15.1717C43.7388 15.0045 44.0942 15.3628 44.4022 16.1034C45.3026 18.3729 46.3214 20.6184 47.2692 22.864C47.3166 22.9595 47.3403 23.0551 47.4114 23.1984C46.9612 23.1984 46.5584 23.2223 46.1556 23.1984C46.0608 23.1984 45.966 23.0551 45.9186 22.9595C45.658 22.4101 45.3974 21.8607 45.1604 21.3112C45.0657 21.1201 44.9709 21.0484 44.7576 21.0484C43.6914 21.0723 42.6252 21.0723 41.5589 21.0484C41.3457 21.0484 41.2272 21.1201 41.1562 21.3112C40.9192 21.8845 40.6586 22.4101 40.4216 22.9834C40.3506 23.1507 40.2558 23.2223 40.0662 23.2223C39.7108 23.1745 39.3791 23.1745 39 23.1745ZM44.6866 20.1406C44.1416 18.7551 43.6203 17.3934 43.0991 16.0317C42.6015 17.4173 42.1039 18.7551 41.6063 20.1406C42.6252 20.1406 43.644 20.1406 44.6866 20.1406Z" fill="#E84142"/>
<path d="M118.422 18.6356C119.631 18.6356 120.792 18.6356 121.976 18.6356C121.976 18.9462 122 19.2089 121.953 19.4717C121.953 19.5434 121.763 19.639 121.645 19.639C120.649 19.639 119.678 19.6628 118.683 19.639C118.446 19.639 118.351 19.6628 118.375 19.9256C118.399 20.499 118.375 21.0484 118.399 21.6217C118.399 21.7412 118.399 21.8606 118.422 22.0279C119.607 22.0279 120.744 22.0279 121.976 22.0279C121.976 22.3862 121.976 22.7206 121.976 23.0312C121.976 23.079 121.858 23.1745 121.81 23.1745C120.27 23.1745 118.73 23.1745 117.166 23.1745C117.166 20.499 117.166 17.8712 117.166 15.2195C118.778 15.2195 120.365 15.2195 121.976 15.2195C121.976 15.5778 121.976 15.96 121.976 16.3662C121.763 16.3662 121.55 16.3662 121.337 16.3662C120.46 16.3662 119.607 16.3662 118.73 16.3662C118.635 16.3662 118.446 16.4856 118.446 16.5334C118.422 17.2262 118.422 17.8951 118.422 18.6356Z" fill="#E84142"/>
<path d="M103.353 16.3185C103.021 16.629 102.737 16.8918 102.429 17.1785C102.05 16.7007 101.647 16.3185 101.031 16.1751C99.6329 15.8646 98.4245 16.5813 98.0454 17.9907C97.8084 18.9224 97.8558 19.8302 98.3297 20.7141C99.2301 22.4341 101.765 22.243 102.429 20.9768C102.452 20.9291 102.476 20.9052 102.524 20.8574C102.737 21.0485 102.903 21.2396 103.116 21.383C103.4 21.5741 103.353 21.7652 103.163 22.0041C102.76 22.5057 102.263 22.8641 101.647 23.0313C100.747 23.2941 99.8224 23.2941 98.8984 23.0074C97.9506 22.7207 97.3109 22.1235 96.9555 21.2157C96.4816 20.0213 96.4342 18.7791 96.7896 17.5607C97.3346 15.6974 98.8273 14.9329 100.604 15.0046C101.315 15.0285 102.002 15.1718 102.571 15.6018C102.855 15.7929 103.092 16.0557 103.353 16.3185Z" fill="#E84142"/>
<path d="M52.316 21.598C52.3871 21.4546 52.4582 21.2874 52.5056 21.1441C53.1927 19.2569 53.9035 17.3935 54.5669 15.5063C54.6617 15.2435 54.7802 15.1479 55.0645 15.1718C55.3725 15.1957 55.7043 15.1718 56.0597 15.1718C55.799 15.8885 55.5384 16.5813 55.2778 17.2741C54.5906 19.1135 53.9035 20.953 53.2164 22.7924C53.1216 23.0552 53.0031 23.1747 52.7188 23.1508C52.3634 23.1269 52.008 23.1269 51.6526 23.1508C51.463 23.1508 51.3683 23.103 51.2972 22.9119C50.61 20.9052 49.8992 18.8985 49.1884 16.8918C48.9989 16.3185 48.7856 15.7452 48.5487 15.1479C48.9752 15.1479 49.3306 15.1241 49.7097 15.1479C49.8045 15.1479 49.9229 15.2913 49.9703 15.3868C50.6811 17.3457 51.3919 19.3285 52.0791 21.2874C52.1028 21.3591 52.1502 21.4546 52.1738 21.5263C52.2449 21.598 52.2686 21.598 52.316 21.598Z" fill="#E84142"/>
<path d="M68.2384 15.1957C68.6649 15.1957 69.0677 15.1957 69.5178 15.1957C69.5178 15.7451 69.5178 16.2707 69.5178 16.8201C69.5178 18.3968 69.5415 19.9496 69.5178 21.5263C69.5178 21.8129 69.6126 21.8846 69.8733 21.8607C70.821 21.8368 71.7451 21.8607 72.6928 21.8607C72.9535 21.8607 73.0719 21.9324 73.0482 22.219C73.0246 22.5296 73.0482 22.8402 73.0482 23.1746C71.4371 23.1746 69.8496 23.1746 68.2384 23.1746C68.2384 20.499 68.2384 17.8712 68.2384 15.1957Z" fill="#E84142"/>
</g>
<defs>
<clipPath id="clip0_146_4284">
<rect width="83" height="8.21782" fill="white" transform="translate(39 15)"/>
</clipPath>
</defs>
</svg>
