<svg width="130" height="38" viewBox="0 0 130 38" fill="none" xmlns="http://www.w3.org/2000/svg">
<rect width="130" height="38" rx="8" fill="#343535"/>
<path d="M28.9172 14.7911C28.7221 15.0041 28.5802 15.1815 28.4029 15.3413C27.7289 15.9625 27.1791 17.1162 26.4343 17.0807C25.7781 17.0629 25.1573 15.9802 24.5188 15.359C23.8626 14.7201 23.2064 14.0811 22.5857 13.4067C22.2133 12.9984 22.0004 12.9984 21.6103 13.4067C20.4929 14.5781 19.3047 15.6963 18.1873 16.8677C17.8504 17.2227 17.6198 17.2582 17.2828 16.8854C16.733 16.2642 16.13 15.6963 15.527 15.1283C15.2433 14.8621 15.261 14.6846 15.527 14.4183C17.6021 12.3595 19.6771 10.2828 21.7344 8.20623C21.965 7.97549 22.1246 7.90449 22.3729 8.17073C24.4479 10.2651 26.5407 12.3595 28.6334 14.4361C28.7399 14.5248 28.8285 14.6491 28.9172 14.7911Z" fill="#F2B92F"/>
<path d="M22.0359 30.2149C21.9295 30.1084 21.7876 30.0019 21.6635 29.8776C19.6416 27.8542 17.6198 25.8309 15.5802 23.8075C15.3142 23.5413 15.1901 23.3638 15.5448 23.0443C16.1655 22.4941 16.7508 21.9084 17.3006 21.2872C17.6375 20.9322 17.8504 20.9854 18.1519 21.3049C19.2869 22.4586 20.4575 23.5945 21.5925 24.7659C21.965 25.1564 22.16 25.1919 22.5502 24.7837C23.6498 23.63 24.8026 22.5296 25.9199 21.3759C26.3101 20.9677 26.5761 20.8967 26.9663 21.3581C27.4452 21.9084 27.9772 22.4408 28.527 22.92C28.9527 23.2928 28.8817 23.5413 28.5093 23.914C26.5052 25.8841 24.5366 27.872 22.5502 29.8599C22.4261 30.0019 22.3019 30.1971 22.0359 30.2149Z" fill="#F2B92F"/>
<path d="M22.1246 16.566C22.2665 16.6903 22.3729 16.779 22.4793 16.8678C23.1 17.489 23.7208 18.1457 24.3592 18.7492C24.6607 19.0331 24.572 19.2106 24.3238 19.4591C23.6853 20.0803 23.0645 20.7015 22.4438 21.3405C22.1778 21.6245 22.0004 21.6067 21.7344 21.3227C21.1491 20.7015 20.5284 20.0981 19.9254 19.4946C19.6948 19.2816 19.4997 19.0864 19.8367 18.7669C20.5107 18.1102 21.1669 17.4357 21.8408 16.7613C21.9118 16.6903 22.0004 16.637 22.1246 16.566Z" fill="#F2BA30"/>
<path d="M13.4165 16.6193C13.5407 16.7258 13.6471 16.8145 13.7535 16.921C14.3388 17.5067 14.9063 18.1102 15.5093 18.6604C15.8995 19.0154 15.864 19.2638 15.4738 19.5478C15.4206 19.5833 15.3852 19.6366 15.3497 19.6721C13.186 21.8729 13.186 21.8729 11.1996 19.4236C11.04 19.2284 10.8804 19.0686 11.1287 18.8201C11.8204 18.1279 12.512 17.4357 13.186 16.7435C13.2569 16.6903 13.3279 16.6725 13.4165 16.6193Z" fill="#F2B92F"/>
<path d="M33.2624 19.1041C33.1737 19.2106 33.1027 19.2993 33.0141 19.3881C32.3933 20.0093 31.7549 20.6305 31.1341 21.2695C30.8681 21.5534 30.6553 21.5712 30.4247 21.2695C30.3892 21.2162 30.336 21.1807 30.3006 21.1452C29.6444 20.4708 28.4738 19.7963 28.4738 19.1041C28.4738 18.2521 29.733 17.6842 30.3892 16.921C30.6907 16.566 30.8858 16.6547 31.1696 16.9387C31.7549 17.5599 32.3756 18.1457 32.9786 18.7669C33.085 18.8734 33.156 18.9799 33.2624 19.1041Z" fill="#F2B92F"/>
<path d="M60.7148 18.3277C60.7148 20.2579 60.6827 22.1559 60.7309 24.0378C60.747 24.7777 60.538 25.0029 59.7987 24.9707C58.3522 24.9063 58.3522 24.9546 58.3522 23.4748C58.3522 20.6117 58.3683 17.7487 58.3361 14.8856C58.3361 14.3226 58.4968 14.21 59.0433 14.1457C60.1523 14.0331 60.8595 14.4191 61.4863 15.3521C62.5953 16.9927 63.865 18.5207 65.0543 20.097C65.1829 20.2579 65.2472 20.467 65.5687 20.5635C65.5687 18.6977 65.6008 16.864 65.5526 15.0304C65.5365 14.3066 65.7455 14.1296 66.4366 14.1457C67.9313 14.194 67.9313 14.1618 67.9313 15.6898C67.9313 18.5207 67.9152 21.3677 67.9474 24.1986C67.9474 24.8098 67.7706 24.9224 67.1759 24.9707C66.2437 25.035 65.6651 24.7294 65.1186 23.9734C63.8811 22.2202 62.5471 20.5474 61.2452 18.8585C61.1488 18.6816 61.0523 18.4403 60.7148 18.3277Z" fill="#F2B92F"/>
<path d="M86.8324 18.3278C86.8324 20.258 86.8002 22.172 86.8485 24.0861C86.8645 24.8099 86.6395 24.9869 85.9484 24.9708C84.518 24.9225 84.518 24.9547 84.518 23.5231C84.518 20.6601 84.534 17.797 84.5019 14.9339C84.5019 14.3549 84.6465 14.194 85.2412 14.1458C86.3341 14.0493 86.9931 14.4353 87.6039 15.3361C88.8575 17.1375 90.2397 18.8425 91.5577 20.5797C91.863 20.4188 91.7345 20.1775 91.7345 20.0006C91.7505 18.2635 91.7505 16.5263 91.7345 14.7892C91.7345 14.3388 91.863 14.194 92.3291 14.178C94.0649 14.1297 94.0489 14.1136 94.0489 15.8025C94.0489 18.553 94.0328 21.3195 94.0649 24.07C94.081 24.7295 93.9524 24.9869 93.2131 25.0029C92.3773 25.019 91.847 24.7617 91.3648 24.07C90.0951 22.2846 88.7289 20.5636 87.3949 18.8264C87.2663 18.6334 87.186 18.3761 86.8324 18.3278Z" fill="#F2B92F"/>
<path d="M109.832 19.5018C109.832 17.9416 109.848 16.3975 109.816 14.8373C109.8 14.3065 109.96 14.1456 110.507 14.1617C112.773 14.1939 115.055 14.1778 117.338 14.1617C117.804 14.1617 117.997 14.2421 117.997 14.7729C118.013 16.2849 118.029 16.2849 116.55 16.2849C115.297 16.2849 114.027 16.301 112.773 16.2688C112.323 16.2527 112.195 16.4136 112.178 16.8639C112.146 18.4402 112.13 18.4402 113.721 18.4402C114.718 18.4402 115.698 18.4563 116.695 18.4402C117.129 18.4242 117.322 18.5689 117.306 19.0354C117.273 20.9494 117.498 20.5634 115.827 20.5956C114.814 20.6117 113.786 20.6117 112.773 20.5956C112.323 20.5795 112.195 20.7403 112.178 21.1907C112.13 22.8474 112.114 22.8474 113.77 22.8474C114.975 22.8474 116.18 22.8635 117.386 22.8314C117.836 22.8153 117.981 22.96 117.981 23.4265C118.013 24.9545 118.029 24.9545 116.486 24.9545C114.509 24.9545 112.532 24.9384 110.539 24.9706C109.977 24.9867 109.8 24.7937 109.816 24.2307C109.848 22.6544 109.832 21.0781 109.832 19.5018Z" fill="#F2B92F"/>
<path d="M103.001 14.0009C104.207 13.9848 105.428 14.3709 106.505 15.2073C106.891 15.5129 106.955 15.7702 106.569 16.0919C106.505 16.1402 106.473 16.2206 106.408 16.2689C105.573 17.2661 105.573 17.2661 104.464 16.6388C102.969 15.7863 101.265 16.0758 100.285 17.3626C99.2724 18.6655 99.3849 20.8047 100.526 22.0272C101.555 23.137 103.403 23.2335 104.801 22.3006C105.074 22.1237 105.299 21.609 105.637 21.8341C106.135 22.1719 106.537 22.6705 106.939 23.1209C107.067 23.2657 106.859 23.3944 106.746 23.5069C105.267 25.1315 102.342 25.614 100.205 24.5846C98.0669 23.5552 96.7651 21.1425 97.1347 18.8263C97.6008 15.8185 99.8188 13.9527 103.001 14.0009Z" fill="#F2B92F"/>
<path d="M52.4054 19.5502C52.4054 17.9739 52.4215 16.3976 52.3893 14.8213C52.3893 14.3549 52.5018 14.178 53.0001 14.1619C54.7841 14.1297 54.7841 14.1136 54.7841 15.899C54.7841 18.6817 54.768 21.4643 54.8002 24.247C54.8002 24.7938 54.6716 24.9869 54.093 24.9708C52.4054 24.9547 52.4054 24.9869 52.4054 23.314C52.4054 22.0594 52.4054 20.8048 52.4054 19.5502Z" fill="#F2B92F"/>
<path d="M47.4712 19.3088C48.2909 18.6333 48.5641 18.2633 48.7088 17.6682C49.1588 15.8667 47.9534 14.3065 45.9283 14.21C44.2246 14.1296 42.5048 14.1939 40.8012 14.1617C40.3994 14.1617 40.2226 14.2743 40.2226 14.7086C40.2386 17.9416 40.2386 21.1907 40.2226 24.4238C40.2226 24.7776 40.2869 24.9706 40.7047 24.9706C42.4406 24.9545 44.1764 24.9867 45.9122 24.9385C46.5711 24.9224 47.2462 24.7776 47.8409 24.472C48.8374 23.9734 49.3356 23.1852 49.3838 22.0432C49.4481 20.6439 48.7088 19.8557 47.4712 19.3088ZM42.987 16.2527C43.3888 16.2527 43.7906 16.2527 44.1924 16.2527C44.1924 16.2688 44.1924 16.2849 44.1924 16.2849C44.6264 16.2849 45.0603 16.2367 45.4782 16.301C46.0408 16.3653 46.4265 16.6709 46.4586 17.2822C46.4908 17.8773 46.1854 18.2312 45.6229 18.392C44.7228 18.6333 43.8067 18.4885 42.9067 18.5207C42.6656 18.5368 42.6013 18.3598 42.6013 18.1507C42.6013 17.636 42.6013 17.1374 42.6013 16.6227C42.5852 16.3493 42.7299 16.2527 42.987 16.2527ZM45.9604 22.7992C44.9478 22.8796 43.8871 23.0566 42.9388 22.8153C42.1191 22.6062 42.7459 21.625 42.5852 21.0138C42.5048 20.6921 42.6173 20.4508 43.0513 20.483C43.4692 20.5152 43.9031 20.483 44.3371 20.483V20.4669C44.8675 20.4991 45.3979 20.483 45.9283 20.5474C46.5551 20.6278 47.0533 20.9495 47.0694 21.6733C47.0855 22.381 46.6033 22.7509 45.9604 22.7992Z" fill="#F2B92F"/>
<path d="M81.5928 24.1181C80.3392 21.1746 79.0373 18.2311 77.8479 15.2555C77.4783 14.3226 77.0283 13.84 75.9996 14.0491C75.9514 14.0652 75.8871 14.0652 75.8389 14.0491C75.3085 13.9526 75.0514 14.1778 74.8424 14.6925C73.8299 17.1374 72.7852 19.5662 71.7405 21.995C71.3386 22.9439 70.9368 23.8929 70.535 24.8741C72.8012 25.1636 72.8012 25.1636 73.6048 23.2335C73.6209 23.2013 73.6209 23.1852 73.637 23.1531C73.7656 22.6705 74.0549 22.4936 74.5692 22.5097C75.5496 22.5579 76.5461 22.5901 77.5426 22.5097C78.298 22.4453 78.6194 22.7348 78.8605 23.4104C79.4391 24.9706 79.4713 24.9545 81.0785 24.9384C81.9464 24.9545 81.9464 24.9545 81.5928 24.1181ZM75.3407 20.4508C74.8585 20.4669 74.7942 20.3061 74.971 19.9039C75.3567 19.0032 75.7264 18.0864 76.1925 16.9444C76.6747 18.1025 77.0604 19.0515 77.4622 20.0005C77.5104 20.1131 77.5104 20.2578 77.5426 20.4347C76.7711 20.4508 76.0478 20.4187 75.3407 20.4508Z" fill="#F2B92F"/>
</svg>
