<svg width="38" height="35" viewBox="0 0 38 35" fill="none" xmlns="http://www.w3.org/2000/svg">
<path d="M27.3275 17.7852C27.3645 19.1659 26.213 20.3728 24.6916 20.3254C23.4291 20.2832 22.1878 19.2081 22.2564 17.664C22.3093 16.4255 23.371 15.1923 24.9241 15.2608C26.1813 15.3135 27.354 16.3517 27.3275 17.7852Z" fill="#0068B1"/>
<path d="M15.7961 25.158C14.3117 25.2055 13.2394 23.9986 13.25 22.6495C13.2552 21.216 14.3223 20.0882 15.833 20.1093C17.2699 20.1304 18.321 21.1739 18.3422 22.6495C18.358 23.9986 17.2804 25.2055 15.7961 25.158Z" fill="#0068B1"/>
<path d="M15.8119 9.99605C17.2646 9.95389 18.3475 11.1291 18.3475 12.4888C18.3422 13.9328 17.291 15.0658 15.7485 15.0395C14.3223 15.0184 13.2711 13.9591 13.2553 12.5151C13.2341 11.1397 14.3329 9.94335 15.8119 9.99605Z" fill="#0068B1"/>
<path d="M10.07 17.7905C10.0066 16.3939 11.2374 15.1976 12.7059 15.2556C14.0001 15.3083 15.1728 16.3781 15.1411 17.8643C15.1094 19.166 14.0159 20.3886 12.4788 20.3201C11.2268 20.2674 10.0224 19.2239 10.07 17.7905Z" fill="#0068B1"/>
<path d="M24.1106 12.5362C24.1793 13.8959 22.9907 15.0711 21.5645 15.05C20.1541 15.029 19.0606 13.9275 19.0501 12.531C19.0448 11.1871 20.0748 9.89065 21.8127 9.98551C22.9326 10.0488 24.2109 11.1186 24.1106 12.5362Z" fill="#0068B1"/>
<path d="M24.1106 22.6442C24.2215 23.9459 22.9696 25.2898 21.4218 25.1686C20.0907 25.0632 19.0553 24.0355 19.0553 22.6284C19.0553 21.2529 20.1329 20.0882 21.6701 20.1093C22.9854 20.1251 24.1792 21.2318 24.1106 22.6442Z" fill="#0068B1"/>
<path d="M18.6908 8.46773C17.9302 8.55205 17.1906 7.79316 17.1906 6.99212C17.1906 6.21215 17.9038 5.4638 18.7437 5.50596C19.5519 5.54285 20.2069 6.20688 20.2016 7.00793C20.191 7.77208 19.5413 8.54678 18.6908 8.46773Z" fill="#0068B1"/>
<path d="M27.7871 13.6271C26.9155 13.7009 26.2605 12.942 26.2658 12.141C26.2711 11.4348 26.9261 10.6232 27.8135 10.6759C28.7485 10.7286 29.282 11.4032 29.2662 12.1937C29.2503 12.9842 28.6428 13.6746 27.7871 13.6271Z" fill="#0068B1"/>
<path d="M11.4434 11.6403C11.4223 12.5468 10.8042 13.1265 9.96961 13.1475C9.1931 13.1686 8.41658 12.552 8.46941 11.5086C8.5011 10.8498 9.17197 10.1383 9.94848 10.1489C10.8042 10.1594 11.4751 10.8709 11.4434 11.6403Z" fill="#0068B1"/>
<path d="M9.63154 21.3688C10.3975 21.2845 11.137 22.0434 11.1317 22.8392C11.1265 23.6192 10.4609 24.357 9.584 24.3254C8.75994 24.299 8.13662 23.6561 8.12605 22.8287C8.11549 22.0645 8.78107 21.2951 9.63154 21.3688Z" fill="#0068B1"/>
<path d="M18.6908 29.4742C17.9249 29.5585 17.1906 28.7996 17.1906 28.0039C17.1906 27.1923 17.9196 26.4808 18.7437 26.5177C19.5783 26.5546 20.1805 27.1923 20.2016 27.988C20.2175 28.7996 19.5149 29.5533 18.6908 29.4742Z" fill="#0068B1"/>
<path d="M28.9123 23.3557C28.9756 24.1989 28.2256 24.8418 27.4332 24.8524C26.6778 24.8629 25.9066 24.1462 25.9489 23.2977C25.9911 22.4387 26.5827 21.8959 27.5705 21.8959C28.3154 21.8959 28.9123 22.5388 28.9123 23.3557Z" fill="#0068B1"/>
<path d="M6.80018 17.5797C6.80018 18.2384 6.26138 18.797 5.61692 18.7865C4.86682 18.7707 4.38084 18.2806 4.38084 17.5744C4.38084 16.8735 4.86682 16.3781 5.62221 16.3728C6.25609 16.3623 6.80546 16.9104 6.80018 17.5797Z" fill="#0068B1"/>
<path d="M30.6502 17.5797C30.5868 16.9631 31.1837 16.3465 31.8281 16.3676C32.668 16.3992 33.0589 16.8946 33.0589 17.5955C33.0589 18.2437 32.6575 18.7391 31.8334 18.7813C31.189 18.8234 30.5815 18.1594 30.6502 17.5797Z" fill="#0068B1"/>
<path d="M11.9716 27.635C12.69 27.5559 13.176 28.2041 13.1866 28.8155C13.1919 29.4584 12.5897 30.0434 11.9347 30.017C11.4011 29.9959 10.7408 29.5269 10.7567 28.8102C10.7673 28.1989 11.248 27.5559 11.9716 27.635Z" fill="#0068B1"/>
<path d="M12.3414 7.31359C11.6177 7.39264 11.1317 6.74442 11.1265 6.13836C11.1212 5.47961 11.6758 4.93679 12.3573 4.93679C12.9542 4.93679 13.5564 5.48488 13.5564 6.13836C13.5564 6.73915 13.0334 7.39791 12.3414 7.31359Z" fill="#0068B1"/>
<path d="M25.1195 27.8457C25.8379 27.8036 26.3239 28.4044 26.3186 29.0368C26.3186 29.6955 25.7428 30.2436 25.0878 30.2278C24.4434 30.212 23.8782 29.6745 23.8887 29.0157C23.9046 28.4149 24.4011 27.7614 25.1195 27.8457Z" fill="#0068B1"/>
<path d="M25.484 7.52439C24.7814 7.60871 24.2585 6.95522 24.2585 6.32809C24.2638 5.71149 24.8026 5.13178 25.5157 5.14759C26.1707 5.1634 26.6831 5.73257 26.6884 6.3439C26.6884 6.97631 26.1707 7.5929 25.484 7.52439Z" fill="#0068B1"/>
<path d="M17.5657 33.88C17.6185 33.1896 17.9883 32.7891 18.6855 32.7469C19.2772 32.71 19.8477 33.2423 19.8265 33.8325C19.8054 34.5282 19.4251 34.9393 18.712 34.9972C18.1256 35.0447 17.571 34.4755 17.5657 33.88Z" fill="#0068B1"/>
<path d="M18.712 2.2596C18.0411 2.27014 17.5762 1.74313 17.571 1.14761C17.5604 0.525747 18.1203 -0.0539604 18.7067 0.00401034C19.404 0.0725212 19.816 0.467776 19.816 1.14761C19.8213 1.74313 19.4462 2.21217 18.712 2.2596Z" fill="#0068B1"/>
<path d="M5.05699 9.46904C4.39669 9.55336 3.93712 8.89988 3.94769 8.37814C3.95825 7.73519 4.43367 7.25562 5.07812 7.25562C5.6856 7.25562 6.21912 7.74573 6.20855 8.35179C6.19799 8.94204 5.76483 9.54282 5.05699 9.46904Z" fill="#0068B1"/>
<path d="M32.3141 25.5269C32.9322 25.4321 33.471 26.0908 33.4498 26.6389C33.4234 27.2239 32.9533 27.7456 32.3194 27.7456C31.6855 27.7404 31.2154 27.2766 31.189 26.6442C31.1573 26.0118 31.7648 25.4373 32.3141 25.5269Z" fill="#0068B1"/>
<path d="M33.9253 9.18446C34.0098 9.8116 33.397 10.3123 32.8265 10.3123C32.1768 10.3175 31.6961 9.74308 31.7014 9.17392C31.7119 8.53097 32.2138 8.0672 32.8107 8.05666C33.434 8.04612 34.0045 8.58894 33.9253 9.18446Z" fill="#0068B1"/>
<path d="M3.47753 25.8168C3.40358 25.2002 3.95823 24.6784 4.58155 24.6995C5.17846 24.7153 5.68557 25.1159 5.69085 25.8168C5.69613 26.4808 5.20487 26.9498 4.54986 26.9498C3.97936 26.9393 3.41942 26.523 3.47753 25.8168Z" fill="#0068B1"/>
<path d="M10.0541 2.88674C9.58927 2.89201 9.17724 2.49149 9.17196 2.02772C9.16667 1.56396 9.56814 1.15289 10.033 1.14762C10.4873 1.14235 10.9204 1.53234 10.9099 1.98029C10.894 2.5073 10.5824 2.83931 10.0541 2.88674Z" fill="#0068B1"/>
<path d="M27.4121 34.0064C26.942 33.9906 26.5299 33.6481 26.5352 33.1527C26.5405 32.6046 26.9314 32.2779 27.3857 32.2779C27.8875 32.2779 28.2361 32.631 28.2731 33.1316C28.3048 33.5743 27.8664 34.0012 27.4121 34.0064Z" fill="#0068B1"/>
<path d="M37.4063 17.5639C37.4063 18.1014 37.0947 18.4176 36.5664 18.4176C36.0329 18.4176 35.716 18.1014 35.716 17.5744C35.716 17.0579 36.0329 16.7365 36.54 16.7312C37.0841 16.7365 37.4063 17.0474 37.4063 17.5639Z" fill="#0068B1"/>
<path d="M9.547 33.6903C9.01348 33.6903 8.69653 33.374 8.69653 32.847C8.69653 32.32 9.01348 32.0038 9.547 32.0038C10.0647 32.0038 10.3816 32.32 10.3816 32.8365C10.3869 33.3688 10.0752 33.6903 9.547 33.6903Z" fill="#0068B1"/>
<path d="M27.0634 2.30703C27.0634 1.76949 27.3593 1.46909 27.8875 1.46909C28.4052 1.46909 28.7538 1.79584 28.7538 2.27541C28.7538 2.78661 28.3999 3.15551 27.9139 3.15551C27.3698 3.15024 27.0634 2.84458 27.0634 2.30703Z" fill="#0068B1"/>
<path d="M0.852199 18.4229C0.403196 18.4703 0.0387104 18.1119 0.00173364 17.5797C-0.0299607 17.0948 0.376784 16.7365 0.905023 16.7365C1.36459 16.7365 1.73436 17.1106 1.73436 17.5797C1.73436 18.0645 1.36459 18.4229 0.852199 18.4229Z" fill="#0068B1"/>
</svg>
