<svg width="130" height="38" viewBox="0 0 130 38" fill="none" xmlns="http://www.w3.org/2000/svg">
<rect width="130" height="38" rx="8" fill="#343535"/>
<path d="M29.1702 19.0795C29.2016 20.2502 28.2252 21.2735 26.9353 21.2333C25.8649 21.1975 24.8124 20.286 24.8706 18.9768C24.9154 17.9267 25.8156 16.8811 27.1324 16.9392C28.1983 16.9839 29.1926 17.8641 29.1702 19.0795Z" fill="#0068B1"/>
<path d="M19.393 25.3307C18.1345 25.3709 17.2253 24.3477 17.2343 23.2038C17.2387 21.9884 18.1435 21.0322 19.4244 21.0501C20.6426 21.0679 21.5339 21.9527 21.5518 23.2038C21.5652 24.3477 20.6516 25.3709 19.393 25.3307Z" fill="#0068B1"/>
<path d="M19.4065 12.4753C20.6381 12.4396 21.5563 13.436 21.5563 14.5888C21.5518 15.8131 20.6605 16.7738 19.3527 16.7515C18.1435 16.7336 17.2522 15.8355 17.2387 14.6112C17.2208 13.4449 18.1524 12.4306 19.4065 12.4753Z" fill="#0068B1"/>
<path d="M14.538 19.084C14.4843 17.8999 15.5278 16.8855 16.7729 16.9347C17.8703 16.9794 18.8645 17.8865 18.8377 19.1465C18.8108 20.2502 17.8837 21.2869 16.5804 21.2288C15.5189 21.1841 14.4977 20.2994 14.538 19.084Z" fill="#0068B1"/>
<path d="M26.4426 14.6291C26.5009 15.7819 25.4931 16.7784 24.2839 16.7605C23.088 16.7426 22.1609 15.8088 22.152 14.6246C22.1475 13.4852 23.0209 12.386 24.4944 12.4664C25.4439 12.5201 26.5277 13.4271 26.4426 14.6291Z" fill="#0068B1"/>
<path d="M26.4426 23.1993C26.5367 24.303 25.4752 25.4424 24.1629 25.3396C23.0343 25.2503 22.1565 24.3789 22.1565 23.1859C22.1565 22.0197 23.0701 21.0322 24.3735 21.05C25.4887 21.0634 26.5009 22.0018 26.4426 23.1993Z" fill="#0068B1"/>
<path d="M21.8474 11.1795C21.2025 11.251 20.5754 10.6076 20.5754 9.92838C20.5754 9.26707 21.1801 8.63257 21.8922 8.66831C22.5775 8.69959 23.1328 9.2626 23.1283 9.94179C23.1194 10.5897 22.5685 11.2465 21.8474 11.1795Z" fill="#0068B1"/>
<path d="M29.5599 15.554C28.8209 15.6166 28.2655 14.9731 28.27 14.2939C28.2745 13.6952 28.8298 13.0071 29.5823 13.0517C30.375 13.0964 30.8274 13.6684 30.8139 14.3386C30.8005 15.0089 30.2854 15.5942 29.5599 15.554Z" fill="#0068B1"/>
<path d="M15.7025 13.8695C15.6846 14.638 15.1606 15.1296 14.4529 15.1474C13.7946 15.1653 13.1362 14.6425 13.181 13.7578C13.2078 13.1992 13.7766 12.596 14.435 12.605C15.1606 12.6139 15.7294 13.2171 15.7025 13.8695Z" fill="#0068B1"/>
<path d="M14.1663 22.118C14.8157 22.0465 15.4428 22.6899 15.4383 23.3647C15.4338 24.026 14.8695 24.6515 14.126 24.6247C13.4273 24.6024 12.8988 24.0573 12.8898 23.3557C12.8809 22.7078 13.4452 22.0554 14.1663 22.118Z" fill="#0068B1"/>
<path d="M21.8474 28.9903C21.198 29.0618 20.5754 28.4184 20.5754 27.7437C20.5754 27.0555 21.1935 26.4523 21.8922 26.4836C22.5999 26.5149 23.1104 27.0555 23.1284 27.7303C23.1418 28.4184 22.5461 29.0573 21.8474 28.9903Z" fill="#0068B1"/>
<path d="M30.5139 23.8025C30.5676 24.5175 29.9316 25.0626 29.2598 25.0716C28.6193 25.0805 27.9654 24.4728 28.0013 23.7534C28.0371 23.0251 28.5387 22.5648 29.3763 22.5648C30.0078 22.5648 30.5139 23.11 30.5139 23.8025Z" fill="#0068B1"/>
<path d="M11.7657 18.9053C11.7657 19.4639 11.3088 19.9375 10.7624 19.9286C10.1264 19.9152 9.71439 19.4996 9.71439 18.9009C9.71439 18.3066 10.1264 17.8866 10.7669 17.8821C11.3044 17.8731 11.7701 18.3379 11.7657 18.9053Z" fill="#0068B1"/>
<path d="M31.9874 18.9052C31.9336 18.3824 32.4397 17.8596 32.9862 17.8775C33.6983 17.9043 34.0297 18.3244 34.0297 18.9186C34.0297 19.4682 33.6893 19.8883 32.9906 19.924C32.4442 19.9598 31.9292 19.3968 31.9874 18.9052Z" fill="#0068B1"/>
<path d="M16.1504 27.4309C16.7595 27.3639 17.1716 27.9135 17.1805 28.4318C17.185 28.977 16.6744 29.4729 16.119 29.4506C15.6667 29.4327 15.1068 29.035 15.1203 28.4273C15.1292 27.909 15.5368 27.3639 16.1504 27.4309Z" fill="#0068B1"/>
<path d="M16.4639 10.201C15.8503 10.268 15.4383 9.71843 15.4338 9.20457C15.4293 8.64603 15.8996 8.18579 16.4774 8.18579C16.9835 8.18579 17.494 8.6505 17.494 9.20457C17.494 9.71396 17.0506 10.2725 16.4639 10.201Z" fill="#0068B1"/>
<path d="M27.2981 27.6097C27.9072 27.5739 28.3193 28.0833 28.3148 28.6195C28.3148 29.178 27.8266 29.6427 27.2712 29.6293C26.7248 29.6159 26.2456 29.1602 26.2545 28.6016C26.268 28.0922 26.689 27.5382 27.2981 27.6097Z" fill="#0068B1"/>
<path d="M27.6071 10.3797C27.0115 10.4512 26.5681 9.89716 26.5681 9.36543C26.5725 8.84264 27.0294 8.35112 27.634 8.36453C28.1894 8.37793 28.6238 8.86051 28.6283 9.37884C28.6283 9.91504 28.1894 10.4378 27.6071 10.3797Z" fill="#0068B1"/>
<path d="M20.8934 32.7259C20.9382 32.1405 21.2517 31.801 21.8429 31.7652C22.3446 31.7339 22.8283 32.1852 22.8104 32.6857C22.7924 33.2755 22.47 33.624 21.8653 33.6732C21.3682 33.7134 20.8979 33.2308 20.8934 32.7259Z" fill="#0068B1"/>
<path d="M21.8653 5.91585C21.2965 5.92478 20.9024 5.47795 20.8979 4.97303C20.889 4.44577 21.3637 3.95425 21.8609 4.0034C22.4521 4.06149 22.8014 4.39661 22.8014 4.97303C22.8059 5.47795 22.4879 5.87563 21.8653 5.91585Z" fill="#0068B1"/>
<path d="M10.2877 12.0286C9.72782 12.1001 9.33817 11.546 9.34712 11.1036C9.35608 10.5585 9.75917 10.1519 10.3056 10.1519C10.8206 10.1519 11.273 10.5674 11.264 11.0813C11.2551 11.5817 10.8878 12.0911 10.2877 12.0286Z" fill="#0068B1"/>
<path d="M33.3982 25.6436C33.9222 25.5632 34.3791 26.1217 34.3612 26.5864C34.3388 27.0824 33.9401 27.5248 33.4027 27.5248C32.8652 27.5203 32.4666 27.1271 32.4442 26.5909C32.4174 26.0547 32.9324 25.5676 33.3982 25.6436Z" fill="#0068B1"/>
<path d="M34.7642 11.7873C34.8359 12.319 34.3164 12.7435 33.8327 12.7435C33.2818 12.748 32.8742 12.2609 32.8787 11.7783C32.8876 11.2332 33.3131 10.84 33.8192 10.8311C34.3477 10.8221 34.8314 11.2824 34.7642 11.7873Z" fill="#0068B1"/>
<path d="M8.94851 25.8893C8.88581 25.3665 9.35608 24.9242 9.88458 24.9421C10.3907 24.9555 10.8206 25.295 10.8251 25.8893C10.8296 26.4524 10.4131 26.85 9.85771 26.85C9.374 26.8411 8.89925 26.4881 8.94851 25.8893Z" fill="#0068B1"/>
<path d="M14.5246 6.44762C14.1305 6.45209 13.7811 6.11249 13.7766 5.71928C13.7722 5.32607 14.1125 4.97754 14.5067 4.97307C14.8919 4.9686 15.2591 5.29926 15.2502 5.67906C15.2367 6.1259 14.9725 6.4074 14.5246 6.44762Z" fill="#0068B1"/>
<path d="M29.2419 32.833C28.8433 32.8196 28.4939 32.5292 28.4984 32.1092C28.5029 31.6445 28.8343 31.3674 29.2195 31.3674C29.645 31.3674 29.9406 31.6668 29.9719 32.0913C29.9988 32.4666 29.6271 32.8286 29.2419 32.833Z" fill="#0068B1"/>
<path d="M37.7158 18.8919C37.7158 19.3477 37.4515 19.6158 37.0036 19.6158C36.5513 19.6158 36.2826 19.3477 36.2826 18.9008C36.2826 18.4629 36.5513 18.1904 36.9812 18.1859C37.4426 18.1904 37.7158 18.454 37.7158 18.8919Z" fill="#0068B1"/>
<path d="M14.0946 32.565C13.6423 32.565 13.3736 32.2969 13.3736 31.8501C13.3736 31.4032 13.6423 31.1351 14.0946 31.1351C14.5336 31.1351 14.8023 31.4032 14.8023 31.8411C14.8068 32.2924 14.5425 32.565 14.0946 32.565Z" fill="#0068B1"/>
<path d="M28.9463 5.95607C28.9463 5.5003 29.1971 5.24561 29.645 5.24561C30.0839 5.24561 30.3795 5.52264 30.3795 5.92926C30.3795 6.36269 30.0794 6.67547 29.6674 6.67547C29.2061 6.671 28.9463 6.41184 28.9463 5.95607Z" fill="#0068B1"/>
<path d="M6.72255 19.6202C6.34186 19.6604 6.03282 19.3565 6.00147 18.9052C5.9746 18.4942 6.31946 18.1903 6.76734 18.1903C7.157 18.1903 7.47051 18.5076 7.47051 18.9052C7.47051 19.3163 7.157 19.6202 6.72255 19.6202Z" fill="#0068B1"/>
<path d="M84.775 12.5954C84.775 11.7715 84.2671 12.0561 83.8936 12.0262C83.4903 11.9962 83.072 11.8764 83.1019 12.5954C83.1617 14.0634 83.1169 15.5314 83.1169 17.0294C82.9824 16.9995 82.833 16.9995 82.7583 16.9246C81.9517 16.0408 80.8761 16.1007 79.8604 16.2355C78.7997 16.3703 77.9184 16.9246 77.3209 17.8983C76.2901 19.576 76.32 21.3736 76.7383 23.1712C77.2312 25.2833 78.979 26.3019 81.0405 25.7926C81.9069 25.5829 82.5193 24.9837 83.1766 24.2946C83.3111 24.6841 83.2961 24.9987 83.3559 25.2983C83.5052 26.0323 84.0131 25.7477 84.4015 25.7776C84.9393 25.8226 84.7302 25.3732 84.7302 25.1485C84.7601 20.9691 84.7451 16.7897 84.775 12.5954ZM83.1169 22.3622C83.1169 23.4258 82.2355 24.3546 81.0106 24.5942C80.0097 24.789 78.979 24.2647 78.5906 23.276C77.9931 21.763 77.9931 20.2351 78.7251 18.7521C79.5467 17.0594 81.9965 17.1193 82.9675 18.3776C83.1019 18.5574 83.1169 18.7371 83.1169 18.9319C83.1169 19.576 83.1169 20.2201 83.1169 20.8792C83.1169 21.3736 83.1169 21.8679 83.1169 22.3622Z" fill="#0068B1"/>
<path d="M57.991 23.7254C57.6624 23.4857 57.3785 22.7517 56.9304 23.1412C55.7204 24.1898 54.3312 24.3845 52.8224 24.3096C51.5975 24.2497 49.8647 23.1112 49.4165 21.9877C48.8638 20.6096 48.6099 19.2015 48.9385 17.7035C49.5958 14.7075 51.971 13.4642 54.7345 13.8836C55.4963 14.0035 56.1835 14.363 56.8109 14.8423C57.3636 15.2768 57.5727 14.6326 57.8416 14.363C57.991 14.2132 58.2001 13.9585 57.8566 13.6889C56.1387 12.3108 54.1818 11.9512 52.0905 12.4006C48.9385 13.0747 46.8621 15.6662 47.0115 19.1116C46.892 21.4335 47.6987 23.4707 49.6107 24.8339C52.0158 26.5416 55.4814 26.3918 57.8416 24.2646C57.9761 24.1448 58.3794 24.01 57.991 23.7254Z" fill="#0068B1"/>
<path d="M115.652 19.7857C115.04 16.2504 111.23 15.3816 108.855 16.8496C107.346 17.7784 106.764 19.2314 106.839 21.029C106.764 22.6768 107.242 24.0999 108.646 25.1634C110.08 26.2569 112.903 26.1671 114.218 24.9237C115.727 23.4857 115.981 21.7181 115.652 19.7857ZM113.083 23.98C112.201 24.9387 109.483 24.8339 108.915 23.216C108.362 21.6581 108.228 20.1302 109.094 18.6622C109.587 17.8233 110.663 17.344 111.425 17.4638C112.649 17.6436 113.546 18.1978 113.874 19.4861C114.009 20.0253 114.024 20.5496 114.009 21.029C114.054 22.1525 113.874 23.1262 113.083 23.98Z" fill="#0068B1"/>
<path d="M94.6043 24.8488C94.664 24.5193 94.6192 24.1597 94.6192 23.8002C94.5744 22.1674 94.7387 20.5346 94.4698 18.9018C94.3055 17.8982 93.8872 17.0893 92.976 16.6099C91.4971 15.816 89.1817 16.1605 87.8074 17.4338C87.6581 17.5686 87.5535 17.6735 87.7029 17.9281C88.0016 18.4524 88.3303 18.6322 88.883 18.2876C89.2116 18.0779 89.5403 17.8682 89.8988 17.7034C91.0938 17.1642 92.3486 17.5536 92.737 18.6022C92.9013 19.0366 92.9611 19.486 92.9909 19.9654C93.0208 20.4747 92.8266 20.5945 92.3636 20.5646C91.0191 20.4747 89.7494 20.7443 88.5543 21.3585C87.5087 21.8978 86.941 23.0063 87.18 24.0399C87.434 25.1784 88.39 25.9124 89.6149 25.9573C90.9295 25.9873 92.0498 25.5678 93.0656 24.4593C93.0955 24.7589 93.1254 24.8638 93.1254 24.9836C93.2001 25.7027 93.6184 25.9423 94.2906 25.8075C94.903 25.6727 94.5296 25.1634 94.6043 24.8488ZM90.2872 24.7439C89.1519 24.7439 88.7336 24.2796 88.7784 23.1711C88.8083 22.5719 89.1967 22.2573 89.6299 22.0925C90.3768 21.8079 91.1386 21.5832 91.9602 21.5982C92.9611 21.6132 92.9611 21.5982 92.9611 22.6318C92.976 23.8302 91.8108 24.7439 90.2872 24.7439Z" fill="#0068B1"/>
<path d="M67.0285 19.0817C66.8792 17.8084 66.0576 16.61 64.8775 16.3553C63.2791 15.9958 61.845 16.2505 60.5604 17.2841C60.3811 17.4339 60.0076 17.5238 60.2467 17.8983C60.4707 18.2278 60.635 18.7072 61.2027 18.3926C61.606 18.1679 61.9944 17.9132 62.4127 17.7185C63.5629 17.1792 64.9671 17.6137 65.3107 18.6473C65.4451 19.0517 65.5198 19.4861 65.5497 19.9355C65.5796 20.4898 65.3704 20.6246 64.8775 20.5647C63.8318 20.4448 62.8309 20.6695 61.86 21.0141C60.7994 21.4035 59.8284 21.9728 59.7238 23.2461C59.5744 25.2833 61.1878 26.2121 63.0998 25.8825C64.0559 25.7177 64.8625 25.2683 65.5945 24.4744C65.6841 24.819 65.7439 24.9987 65.7737 25.1934C65.8484 25.9724 66.431 25.7926 66.8941 25.7627C67.4468 25.7177 67.1779 25.2534 67.163 25.0137C67.0883 23.0513 67.2526 21.074 67.0285 19.0817ZM62.8011 24.7441C61.7106 24.7441 61.3073 24.2947 61.3222 23.2161C61.3222 22.572 61.7554 22.2574 62.2035 22.0776C62.9206 21.793 63.6675 21.5833 64.4592 21.5983C65.5049 21.6133 65.5049 21.5983 65.5049 22.6619C65.5049 23.8303 64.3248 24.759 62.8011 24.7441Z" fill="#0068B1"/>
<path d="M104.897 21.6582C104.867 20.6246 105.031 19.576 104.747 18.5574C104.329 17.0894 103.448 16.2505 101.834 16.2055C100.52 16.1606 99.5488 16.7448 98.518 17.7035C98.5031 17.374 98.4583 17.1942 98.4882 17.0294C98.5778 16.2505 98.0251 16.4003 97.562 16.3553C97.0093 16.2954 96.9794 16.5651 96.9794 16.9995C96.9943 19.7108 97.0242 22.4371 96.9645 25.1485C96.9495 25.9724 97.4275 25.7627 97.8608 25.7926C98.3537 25.8226 98.6674 25.8076 98.6525 25.1185C98.5927 23.4258 98.6375 21.7331 98.6375 20.0254C98.6375 18.6323 98.9064 18.2278 100.236 17.6736C101.147 17.2841 102.417 17.5687 102.895 18.3177C103.179 18.7671 103.268 19.3064 103.268 19.8606C103.268 21.5833 103.298 23.306 103.253 25.0287C103.238 25.6578 103.403 25.7776 104.015 25.8226C104.807 25.8675 104.956 25.5829 104.926 24.8639C104.867 23.8003 104.926 22.7367 104.897 21.6582Z" fill="#0068B1"/>
<path d="M74.6619 16.2055C73.0934 16.0408 72.1224 16.8047 71.4054 18.123C71.1216 17.7634 71.1515 17.389 71.1963 17.0145C71.271 16.2954 70.7929 16.4003 70.3299 16.3553C69.7921 16.3104 69.6726 16.5051 69.6875 17.0145C69.7174 19.606 69.7025 22.1975 69.7025 24.789C69.7025 25.7926 69.7025 25.7627 70.7481 25.7926C71.2411 25.8076 71.3755 25.6578 71.3606 25.1635C71.3307 23.6655 71.3307 22.1675 71.3606 20.6695C71.3905 18.7371 72.5108 17.4938 74.5573 17.8683C75.3042 18.0031 75.2893 17.6286 75.3939 17.1643C75.4835 16.595 75.364 16.2804 74.6619 16.2055Z" fill="#0068B1"/>
</svg>
