<svg width="130" height="38" viewBox="0 0 130 38" fill="none" xmlns="http://www.w3.org/2000/svg">
<rect width="130" height="38" rx="8" fill="#343535"/>
<path d="M21.9808 4L9 11.5V26.5L21.9808 34L34.9615 26.5V11.5L21.9808 4ZM31.1154 24.2885L21.9808 29.5449L12.8462 24.2885V13.7115L21.9808 8.42308L31.1154 13.7115V24.2885Z" fill="white"/>
<path d="M28.0385 22.4936L21.9808 26.0192L15.9231 22.4936V15.5064L21.9808 12.0128L28.0385 15.5064L25.5064 16.9487L21.9808 14.8974L18.4551 16.9487V21.0192L21.9808 23.0705L25.5064 21.0192L28.0385 22.4936Z" fill="white"/>
<path d="M45.5769 20.1218V20.0897C45.5769 19.2884 45.7051 18.5192 46.0256 17.782C46.3141 17.0448 46.7628 16.3718 47.3397 15.8269C47.9167 15.25 48.5577 14.8333 49.2949 14.5128C50.032 14.2243 50.8333 14.0641 51.6026 14.0641C52.4679 14.032 53.3333 14.1923 54.1346 14.5448C54.9359 14.8974 55.641 15.4102 56.2179 16.0833L54.5513 17.8461C53.75 17.0128 52.8846 16.4038 51.5705 16.4038C49.6474 16.4038 48.2372 18.0705 48.2372 20.0897V20.1218C48.2372 22.173 49.6474 23.8077 51.6987 23.8077C52.2756 23.8077 52.8526 23.6794 53.3654 23.423C53.8782 23.1666 54.359 22.8141 54.7115 22.3974L56.3141 23.9679C55.5128 24.9294 54.4551 25.6025 53.2692 25.923C52.0833 26.2436 50.8013 26.2115 49.6474 25.7948C48.4936 25.3782 47.4679 24.6089 46.7628 23.6153C46.0256 22.6218 45.641 21.4038 45.5769 20.1218Z" fill="white"/>
<path d="M58.7179 14.2884H61.3782V16.8846C62.1154 15.1538 63.4295 13.9679 65.4808 14.064V16.8846H65.3205C63.0128 16.8846 61.3782 18.391 61.3782 21.4679V25.8589H58.7179V14.2884Z" fill="white"/>
<path d="M66.7308 20.1218V20.0897C66.7628 18.4872 67.4359 16.9487 68.5897 15.8269C69.7436 14.7051 71.2821 14.0641 72.8846 14.0641C74.4872 14.0641 76.0256 14.6731 77.1795 15.7949C78.3333 16.9167 79.0064 18.4231 79.0705 20.0256V20.0577C79.0705 20.859 78.9103 21.6602 78.5897 22.3974C78.2692 23.1346 77.8205 23.8077 77.2436 24.3846C76.6667 24.9615 75.9936 25.3782 75.2244 25.6667C74.4872 25.9551 73.6859 26.1154 72.8526 26.0833C72.0513 26.1154 71.25 25.9551 70.5128 25.6667C69.7756 25.3782 69.1026 24.9295 68.5256 24.3846C67.9487 23.8397 67.5 23.1667 67.1795 22.4295C66.891 21.7243 66.7308 20.9231 66.7308 20.1218ZM76.4103 20.1218V20.0897C76.4423 19.609 76.3462 19.1282 76.1859 18.6795C76.0256 18.2308 75.7692 17.8141 75.4167 17.4615C75.0962 17.109 74.6795 16.8205 74.2628 16.6602C73.8141 16.4679 73.3333 16.3718 72.8526 16.3718C70.7372 16.3718 69.359 18.0384 69.359 20.0577V20.0897C69.3269 20.5705 69.4231 21.0513 69.5833 21.5C69.7436 21.9487 70 22.3654 70.3205 22.6859C70.641 23.0384 71.0577 23.2949 71.4744 23.4872C71.9231 23.6795 72.3718 23.7756 72.8526 23.7756C75.0641 23.8077 76.4103 22.141 76.4103 20.1218Z" fill="white"/>
<path d="M81.7308 14.2884H84.391V16.0512C84.7756 15.4422 85.2885 14.9294 85.9295 14.5768C86.5705 14.2243 87.2756 14.032 88.0128 14.064C90.609 14.064 92.1154 15.8268 92.1154 18.4871V25.8589H89.4872V19.2884C89.4872 17.4935 88.5897 16.4679 87.0192 16.4679C85.4487 16.4679 84.4231 17.5576 84.4231 19.3204V25.8589H81.7628L81.7308 14.2884Z" fill="white"/>
<path d="M94.7115 20.1218V20.0897C94.7436 18.4872 95.4167 16.9487 96.5705 15.8269C97.7244 14.7051 99.2628 14.0641 100.865 14.0641C102.468 14.0641 104.006 14.6731 105.16 15.7949C106.314 16.9167 106.987 18.4231 107.051 20.0256V20.0577C107.051 20.859 106.891 21.6602 106.571 22.3974C106.25 23.1346 105.801 23.8077 105.224 24.3846C104.647 24.9615 103.974 25.3782 103.205 25.6667C102.468 25.9551 101.667 26.1154 100.833 26.0833C100.032 26.1154 99.2308 25.9551 98.4936 25.6667C97.7564 25.3782 97.0833 24.9295 96.5064 24.3846C95.9295 23.8397 95.4808 23.1667 95.1603 22.4295C94.8397 21.7243 94.7115 20.9231 94.7115 20.1218ZM104.359 20.1218V20.0897C104.391 19.609 104.295 19.1282 104.135 18.6795C103.974 18.2308 103.718 17.8141 103.365 17.4615C103.045 17.109 102.628 16.8205 102.212 16.6602C101.763 16.4679 101.282 16.3718 100.801 16.3718C98.6859 16.3718 97.3077 18.0384 97.3077 20.0577V20.0897C97.2756 20.5705 97.3718 21.0513 97.532 21.5C97.6923 21.9487 97.9487 22.3654 98.2692 22.6859C98.5897 23.0384 99.0064 23.2949 99.4231 23.4872C99.8718 23.6795 100.321 23.7756 100.801 23.7756C103.013 23.8077 104.359 22.141 104.359 20.1218Z" fill="white"/>
<path d="M108.782 24.3525L109.968 22.5576C111.058 23.423 112.372 23.9038 113.75 23.9679C114.904 23.9679 115.545 23.455 115.545 22.7179V22.6858C115.545 21.7884 114.327 21.4999 112.981 21.0512C111.282 20.5384 109.359 19.8653 109.359 17.6858V17.6538C109.359 15.4422 111.186 14.0961 113.462 14.0961C114.968 14.1281 116.442 14.5768 117.692 15.4102L116.635 17.3012C115.673 16.6602 114.551 16.2756 113.365 16.2115C112.372 16.2115 111.731 16.7243 111.731 17.3332V17.3653C111.731 18.2307 112.981 18.5512 114.327 18.9999C116.026 19.5127 117.917 20.282 117.917 22.3653V22.3974C117.917 24.8333 116.026 26.0191 113.622 26.0191C111.891 26.0512 110.16 25.4422 108.782 24.3525Z" fill="white"/>
</svg>
