<svg width="38" height="56" viewBox="0 0 38 56" fill="none" xmlns="http://www.w3.org/2000/svg">
<g clip-path="url(#clip0_146_4739)">
<path d="M0.701813 27.9999C6.62118 18.5834 12.3388 9.0422 18.9308 -0.00012207C20.3434 2.55667 20.6124 5.36291 20.6124 8.16914C20.5452 11.9732 20.8815 15.8395 20.3434 19.6435C20.2761 20.0177 20.1416 20.3295 19.8725 20.6413C15.2984 24.7571 9.17728 26.3161 3.52697 28.4988C2.65251 28.8106 1.509 28.6859 0.701813 27.9999Z" fill="#FEFEFE"/>
<path d="M19.0653 20.5789C19.0653 13.7193 18.998 6.85957 18.998 -0.00012207C21.4196 2.05778 22.5631 4.92638 24.2448 7.42081C28.617 14.0311 32.8548 20.7037 37.0925 27.3763C37.1598 29.1847 35.4781 28.7482 34.7382 28.4988C29.626 27.0645 24.8502 24.7571 20.2088 22.325C19.5362 22.0132 18.998 21.3896 19.0653 20.5789Z" fill="#BFCBF6"/>
<path d="M19.0653 20.5791C24.043 22.6994 29.0206 24.8196 33.9983 26.8775C34.94 27.2517 35.8817 28.1248 37.0925 27.3764C37.7651 28.1871 37.3615 28.7484 36.6216 29.1225C30.7695 32.3029 25.2537 36.0446 18.998 38.539C17.9891 37.4789 17.5855 36.2317 17.5182 34.9221C17.3837 31.3675 17.3837 27.7506 17.5182 24.196C17.5182 22.7617 18.1909 21.6392 19.0653 20.5791Z" fill="#8197ED"/>
<path d="M19.0653 20.5791C19.0653 26.5657 18.9981 32.6147 18.9981 38.6014C12.6078 35.8575 6.89025 32.0535 0.836349 28.8107C0.567287 28.686 0.36549 28.3742 0.769084 28.0624C7.02478 26.0045 12.8769 22.8865 19.0653 20.5791Z" fill="#BFCBF6"/>
<path d="M18.998 42.2804C24.4465 39.2248 29.9623 36.1691 35.4108 33.1134C36.218 34.2983 35.5453 34.7348 35.209 35.1713C30.2314 41.7816 25.2537 48.3918 20.2088 54.9397C19.8725 55.3139 19.4016 55.6257 18.998 55.9375C16.9801 52.2582 17.2491 48.3918 17.5854 44.4631C17.6527 43.59 18.1236 42.7793 18.998 42.2804Z" fill="#BFCBF6"/>
<path d="M18.998 42.2804C18.998 46.8328 18.998 51.4475 18.998 55.9998C14.4912 51.5098 11.3297 46.2092 7.42833 41.345C5.47763 38.913 3.66146 36.3562 1.71075 33.8617C1.91255 33.6123 2.11435 33.3628 2.38341 33.1134C7.89919 36.1691 13.4822 39.2248 18.998 42.2804Z" fill="#FDFDFE"/>
</g>
<defs>
<clipPath id="clip0_146_4739">
<rect width="36.9288" height="56" fill="white" transform="translate(0.5)"/>
</clipPath>
</defs>
</svg>
