<svg width="130" height="38" viewBox="0 0 130 38" fill="none" xmlns="http://www.w3.org/2000/svg">
<rect width="130" height="38" rx="8" fill="#343535"/>
<path d="M39.7071 21.1352C39.825 22.4315 40.8856 24.0814 42.6534 24.0814C43.9497 24.0814 44.6568 23.4922 45.1282 22.7851C45.2461 22.6672 45.4818 22.6672 45.5996 22.6672C45.7175 22.6672 45.7175 22.7851 45.7175 22.9029C45.7175 23.0208 45.7175 23.0208 45.7175 23.1386C45.2461 23.8457 44.1854 24.7885 42.6534 24.6707C41.4749 24.6707 40.6499 24.0814 39.9428 23.3743C39.4714 22.7851 39 21.8423 39 20.7816C39 19.721 39.3536 18.7782 39.9428 18.0711C40.6499 17.364 41.357 16.8926 42.5355 16.8926C43.5962 16.8926 44.4211 17.364 45.0104 17.9532C45.8353 18.7782 46.071 19.721 46.071 20.6638C46.071 20.7816 46.071 20.7816 45.9532 20.8995C45.9532 21.0173 45.8353 21.0173 45.7175 21.0173C44.539 21.1352 39.7071 21.1352 39.7071 21.1352ZM42.6534 17.5997C41.8284 17.5997 41.2392 17.9532 40.7678 18.4246C40.2964 18.896 39.9428 19.721 39.825 20.5459H45.5996C45.5996 19.721 45.1282 19.0139 44.6568 18.5425C44.1854 18.0711 43.714 17.5997 42.6534 17.5997Z" fill="white"/>
<path d="M68.3448 21.1352C68.4626 22.4315 69.5233 24.0814 71.291 24.0814C72.5874 24.0814 73.2945 23.4922 73.7659 22.7851C73.8837 22.6672 74.1194 22.6672 74.2373 22.6672C74.3551 22.6672 74.3551 22.7851 74.3551 22.9029C74.3551 23.0208 74.3551 23.0208 74.3551 23.1386C73.8837 23.8457 72.8231 24.7885 71.291 24.6707C70.1125 24.6707 69.2876 24.0814 68.5805 23.3743C68.1091 22.7851 67.6377 21.8423 67.6377 20.7816C67.6377 19.721 67.9912 18.7782 68.5805 18.0711C69.2876 17.364 69.9947 16.8926 71.1732 16.8926C72.2338 16.8926 73.0588 17.364 73.648 17.9532C74.473 18.7782 74.7087 19.721 74.7087 20.6638C74.7087 20.7816 74.7087 20.7816 74.5908 20.8995C74.5908 21.0173 74.473 21.0173 74.3551 21.0173C73.1766 21.1352 68.3448 21.1352 68.3448 21.1352ZM71.291 17.5997C70.4661 17.5997 69.8768 17.9532 69.4054 18.4246C68.934 18.896 68.5805 19.721 68.4626 20.5459H74.2373C74.2373 19.721 73.7659 19.0139 73.2945 18.5425C72.8231 18.0711 72.3517 17.5997 71.291 17.5997Z" fill="white"/>
<path d="M86.1402 21.1352C86.258 22.4315 87.3187 24.0814 89.0864 24.0814C90.3828 24.0814 91.0899 23.4922 91.5613 22.7851C91.6791 22.6672 91.9148 22.6672 92.0327 22.6672C92.1505 22.6672 92.1505 22.7851 92.1505 22.9029C92.1505 23.0208 92.1505 23.0208 92.1505 23.1386C91.6791 23.8457 90.6185 24.7885 89.0864 24.6707C87.9079 24.6707 87.083 24.0814 86.3759 23.3743C85.9045 22.7851 85.4331 21.8423 85.4331 20.7816C85.4331 19.721 85.7866 18.7782 86.3759 18.0711C87.083 17.364 87.7901 16.8926 88.9686 16.8926C90.0292 16.8926 90.8542 17.364 91.4434 17.9532C92.2684 18.7782 92.5041 19.721 92.5041 20.6638C92.5041 20.7816 92.5041 20.7816 92.3862 20.8995C92.2684 21.0173 92.2684 21.0173 92.1505 21.0173C90.972 21.1352 86.1402 21.1352 86.1402 21.1352ZM89.0864 17.5997C88.2615 17.5997 87.6722 17.9532 87.2008 18.4246C86.7294 18.896 86.3759 19.721 86.258 20.5459H92.0327C92.0327 19.721 91.5613 19.0139 91.0899 18.5425C90.6185 18.0711 90.1471 17.5997 89.0864 17.5997Z" fill="white"/>
<path d="M52.0815 17.8354V24.435C52.0815 24.5529 51.9636 24.6707 51.8458 24.6707C51.7279 24.6707 51.6101 24.5529 51.6101 24.435V17.8354H49.9602C49.8423 17.8354 49.7245 17.7175 49.7245 17.5997C49.7245 17.4818 49.8423 17.364 49.9602 17.364H51.6101V14.8891C51.6101 14.7713 51.7279 14.6534 51.8458 14.6534C51.9636 14.6534 52.0815 14.7713 52.0815 14.8891V17.364H53.8492C53.9671 17.364 54.0849 17.4818 54.0849 17.5997C54.0849 17.7175 53.9671 17.8354 53.8492 17.8354H52.0815Z" fill="white"/>
<path d="M61.3916 17.1283C60.2131 17.0105 59.1525 17.364 58.4454 18.5425V11.2358C58.4454 11.118 58.3275 11.0001 58.2097 11.0001C58.0918 11.0001 57.974 11.118 57.974 11.2358V24.3172C57.974 24.4351 58.0918 24.5529 58.2097 24.5529C58.3275 24.5529 58.4454 24.4351 58.4454 24.3172V19.8389C58.4454 18.5425 59.9774 17.2462 61.3916 17.5997C62.3344 17.8354 63.2772 18.6604 63.2772 20.1924V24.3172C63.2772 24.4351 63.3951 24.5529 63.5129 24.5529C63.6308 24.5529 63.7486 24.4351 63.7486 24.3172V20.1924C63.8665 19.0139 63.0415 17.364 61.3916 17.1283Z" fill="white"/>
<path d="M99.1037 24.7886C100.282 24.9064 101.343 24.5529 102.05 23.3744V24.435C102.05 24.5529 102.168 24.6707 102.286 24.6707C102.404 24.6707 102.521 24.5529 102.521 24.435V17.5997C102.521 17.4819 102.404 17.364 102.286 17.364C102.168 17.364 102.05 17.4819 102.05 17.5997V21.2531C102.05 23.1387 100.636 24.6707 99.1037 24.3172C98.1609 24.0815 97.2181 23.2565 97.2181 21.7245V17.5997C97.2181 17.4819 97.1003 17.364 96.9824 17.364C96.8646 17.364 96.7467 17.4819 96.7467 17.5997V21.7245C96.6289 23.1387 97.4538 24.5529 99.1037 24.7886Z" fill="white"/>
<path d="M115.838 17.1284C114.66 17.0105 113.246 17.4819 112.656 19.014C112.303 18.0712 111.478 17.2462 110.417 17.1284C109.239 17.0105 108.178 17.3641 107.471 18.5426V17.4819C107.471 17.3641 107.353 17.2462 107.235 17.2462C107.117 17.2462 107 17.3641 107 17.4819V24.3173C107 24.4351 107.117 24.553 107.235 24.553C107.353 24.553 107.471 24.4351 107.471 24.3173V20.6639C107.471 18.7783 108.885 17.3641 110.417 17.5998C111.36 17.8355 112.185 18.6604 112.303 19.9568V24.1994C112.303 24.3173 112.421 24.4351 112.656 24.4351C112.774 24.4351 112.892 24.3173 112.892 24.1994V23.2566C112.892 22.5495 112.892 21.7245 112.892 21.1353C112.892 19.1318 113.835 17.3641 115.838 17.5998C116.781 17.7176 117.724 18.6604 117.724 20.1925V24.3173C117.724 24.4351 117.842 24.553 117.96 24.553C118.078 24.553 118.195 24.4351 118.195 24.3173V20.1925C118.313 19.014 117.488 17.3641 115.838 17.1284Z" fill="white"/>
<path d="M82.4868 17.5997C82.4868 17.4819 82.4868 17.4819 82.3689 17.364C82.2511 17.364 82.2511 17.2462 82.1332 17.364C80.9547 17.364 79.7762 18.4247 79.5405 19.1318V17.5997C79.5405 17.4819 79.4227 17.364 79.3048 17.364C79.187 17.364 79.0691 17.4819 79.0691 17.5997V24.435C79.0691 24.5529 79.187 24.6707 79.3048 24.6707C79.4227 24.6707 79.5405 24.5529 79.5405 24.435V21.0174C79.5405 19.3675 80.8369 17.9533 82.2511 17.9533C82.3689 17.8354 82.4868 17.7176 82.4868 17.5997Z" fill="white"/>
<g clip-path="url(#clip0_146_3000)">
<path d="M12.1055 18.7896C15.2001 13.4796 18.1892 8.09917 21.6355 3.00012C22.3739 4.44192 22.5146 6.02439 22.5146 7.60685C22.4794 9.75197 22.6553 11.9323 22.3739 14.0774C22.3388 14.2884 22.2684 14.4642 22.1278 14.64C19.7365 16.961 16.5364 17.8401 13.5825 19.0709C13.1253 19.2468 12.5275 19.1764 12.1055 18.7896Z" fill="#FEFEFE"/>
<path d="M21.7057 14.6049C21.7057 10.7366 21.6706 6.86837 21.6706 3.00012C22.9365 4.1606 23.5344 5.77823 24.4135 7.18486C26.6993 10.9124 28.9147 14.6752 31.1302 18.4379C31.1654 19.4578 30.2862 19.2116 29.8994 19.0709C27.2268 18.2621 24.73 16.961 22.3036 15.5895C21.9519 15.4137 21.6706 15.062 21.7057 14.6049Z" fill="#BFCBF6"/>
<path d="M21.7057 14.6049C24.308 15.8005 26.9103 16.9961 29.5126 18.1566C30.0049 18.3676 30.4972 18.8599 31.1302 18.4379C31.4818 18.8951 31.2709 19.2116 30.884 19.4226C27.8246 21.216 24.941 23.326 21.6706 24.7326C21.1431 24.1348 20.9321 23.4315 20.8969 22.693C20.8266 20.6886 20.8266 18.6489 20.8969 16.6445C20.8969 15.8357 21.2486 15.2027 21.7057 14.6049Z" fill="#8197ED"/>
<path d="M21.7057 14.6049C21.7057 17.9808 21.6706 21.3919 21.6706 24.7678C18.3298 23.2205 15.3407 21.0754 12.1758 19.2468C12.0351 19.1764 11.9296 19.0006 12.1406 18.8248C15.4111 17.6643 18.4705 15.906 21.7057 14.6049Z" fill="#BFCBF6"/>
<path d="M21.6707 26.8424C24.5191 25.1192 27.4027 23.3961 30.2511 21.673C30.6731 22.3411 30.3215 22.5873 30.1456 22.8334C27.5433 26.561 24.9411 30.2886 22.3036 33.981C22.1278 34.192 21.8816 34.3679 21.6707 34.5437C20.6157 32.4689 20.7563 30.2886 20.9322 28.0732C20.9673 27.5808 21.2135 27.1237 21.6707 26.8424Z" fill="#BFCBF6"/>
<path d="M21.6706 26.8424C21.6706 29.4095 21.6706 32.0117 21.6706 34.5789C19.3145 32.0469 17.6617 29.0578 15.6221 26.3149C14.6023 24.9434 13.6528 23.5016 12.633 22.095C12.7385 21.9543 12.844 21.8136 12.9846 21.673C15.8682 23.3961 18.787 25.1192 21.6706 26.8424Z" fill="#FDFDFE"/>
</g>
<defs>
<clipPath id="clip0_146_3000">
<rect width="20" height="31.5789" fill="white" transform="translate(12 3)"/>
</clipPath>
</defs>
</svg>
