<svg width="130" height="38" viewBox="0 0 130 38" fill="none" xmlns="http://www.w3.org/2000/svg">
<rect width="130" height="38" rx="8" fill="#343535"/>
<g clip-path="url(#clip0_146_4251)">
<path d="M21.9995 34.0005C30.2838 34.0005 36.9995 27.2848 36.9995 19.0005C36.9995 10.7162 30.2838 4.00049 21.9995 4.00049C13.7152 4.00049 6.99949 10.7162 6.99949 19.0005C6.99949 27.2848 13.7152 34.0005 21.9995 34.0005Z" fill="#172852"/>
<path d="M19.082 10.704C20.8385 10.047 22.8155 10.0455 24.605 10.5855C26.9345 11.3085 28.901 13.0665 29.9285 15.273C30.212 15.9015 30.4835 16.557 30.5105 17.256C29.201 16.497 27.7655 16.005 26.327 15.5565C24.026 14.727 21.617 14.151 19.439 13.011C18.932 12.708 18.2855 12.3975 18.1475 11.766C18.092 11.22 18.6695 10.9155 19.082 10.704Z" fill="#FFD83D"/>
<path d="M13.7795 16.0139C14.288 14.6339 15.122 13.3529 16.2545 12.4034C16.5425 14.7719 17.5505 17.0609 19.2155 18.7829C21.212 20.8574 24.056 22.1309 26.9495 22.0829C28.0985 22.1189 29.222 21.8534 30.3425 21.6389C29.24 25.6229 24.8735 28.2674 20.828 27.6314C18.386 27.3194 16.1315 25.8734 14.771 23.8319C13.2365 21.5759 12.8495 18.5804 13.7795 16.0139Z" fill="#FFD83D"/>
<path d="M26.327 15.5564C27.7655 16.0049 29.201 16.4969 30.5105 17.2559L30.599 17.3024C30.7205 18.2159 30.809 19.1474 30.647 20.0624C29.9885 19.7834 29.4545 19.2929 28.8965 18.8594C27.8225 17.9654 26.726 16.9424 26.327 15.5564Z" fill="#FF6F03"/>
</g>
<g clip-path="url(#clip1_146_4251)">
<path d="M108.012 15.8802C107 15.8802 106.222 16.4252 105.287 17.2036C105.521 15.8024 104.665 16.0359 103.964 16.0359C103.108 16.0359 103.341 16.7365 103.341 17.2036C103.341 19.3832 103.341 21.485 103.341 23.6647C103.341 24.6767 103.886 24.5988 104.587 24.5988C105.287 24.5988 105.677 24.4431 105.677 23.5868C105.599 22.2635 105.677 21.018 105.677 19.6946C105.677 18.6826 106.533 17.8264 107.467 17.8264C108.557 17.8264 108.79 18.6048 108.868 19.4611C108.868 20.9401 108.946 22.3413 108.868 23.8204C108.868 24.5988 109.413 24.5988 109.88 24.5988C110.425 24.5988 111.126 24.8323 111.126 23.8982C111.126 22.0299 111.281 20.0838 111.048 18.2156C110.659 16.6587 109.569 15.8024 108.012 15.8802Z" fill="white"/>
<path d="M99.9162 16.0359C99.2934 16.0359 98.7485 16.0359 98.8263 16.97C98.9042 18.2155 98.8263 19.3832 98.8263 20.6287C98.8263 21.7964 97.9701 22.8083 96.9581 22.8083C96.0239 22.8083 95.6347 22.1856 95.6347 20.7844C95.6347 19.461 95.6347 18.2155 95.6347 16.8922C95.6347 16.1137 95.2455 16.0359 94.6228 16.0359C94.1557 16.1137 93.3772 15.8024 93.3772 16.6586C93.3772 18.6048 93.2994 20.5509 93.4551 22.4191C93.6108 23.8982 94.6228 24.6766 96.1018 24.7545C97.1916 24.8323 98.0479 24.2095 99.1377 23.3533C98.9042 24.6766 99.6048 24.5209 100.305 24.5209C101.084 24.5209 101.084 24.0539 101.084 23.5089C101.084 21.3293 101.006 19.1497 101.084 16.97C101.162 16.0359 100.617 16.0359 99.9162 16.0359Z" fill="white"/>
<path d="M120 23.6646C120 22.8084 120 21.9521 120 21.0958C120 20.2395 120 19.3832 120 18.5269C120 17.6706 119.689 16.8143 118.91 16.3473C117.82 15.6467 114.551 15.6467 113.539 16.4251C112.994 16.8143 113.072 17.3593 113.228 17.8263C113.383 18.4491 113.85 18.1377 114.24 17.982C115.096 17.7485 115.874 17.5928 116.731 17.6706C117.587 17.7485 117.82 18.3712 117.82 19.1497C117.82 20.006 117.12 19.6167 116.731 19.6946C115.952 19.7724 115.174 19.7724 114.473 20.0838C113.305 20.473 112.683 21.3293 112.76 22.497C112.838 23.7425 113.461 24.5209 114.707 24.8323C115.719 25.0658 116.653 24.988 117.509 24.3652C117.82 24.1317 118.054 23.8203 118.365 24.5209C118.599 24.988 119.222 24.7545 119.689 24.6766C120.156 24.5209 120 24.0539 120 23.6646ZM116.186 23.2754C115.485 23.2754 115.018 23.0419 114.94 22.3413C114.862 21.5628 115.641 21.0958 117.275 21.0958C117.431 21.0958 117.898 20.9401 117.898 21.7964C117.743 22.5748 117.12 23.1976 116.186 23.2754Z" fill="white"/>
<path d="M79.2874 21.1736C79.2874 20.3173 79.2874 19.3831 79.2874 18.5269C79.2874 17.5149 78.8982 16.6586 77.9641 16.2694C76.3293 15.6466 74.6946 15.8023 73.0599 16.3472C72.3593 16.5807 72.3593 17.2813 72.515 17.8263C72.7485 18.5269 73.2156 18.0598 73.6048 17.9819C74.4611 17.7484 75.2395 17.5149 76.0958 17.7484C76.9521 17.9041 77.1078 18.5269 77.0299 19.3053C76.9521 20.0837 76.3293 19.6945 76.018 19.6945C75.1617 19.7724 74.3054 19.7724 73.5269 20.0837C72.515 20.473 71.8922 21.2514 71.9701 22.4191C71.9701 23.5867 72.5928 24.3652 73.7605 24.6766C74.8503 24.9879 75.8623 24.9101 76.8743 24.2095C77.1856 23.976 77.4192 23.7424 77.6527 24.3652C77.8862 24.8322 78.509 24.5987 78.976 24.5987C79.521 24.5209 79.3653 24.0538 79.3653 23.7424C79.2874 22.8861 79.2874 22.0299 79.2874 21.1736ZM75.3952 23.2754C74.7725 23.2754 74.2275 23.0418 74.2275 22.2634C74.1497 21.4849 74.9281 21.0957 76.2515 21.0179C76.7186 21.0179 77.1856 20.8622 77.1856 21.6406C77.1078 22.5748 76.3293 23.2754 75.3952 23.2754Z" fill="white"/>
<path d="M55.2335 15.958C53.0539 15.491 51.2635 16.3473 50.485 18.2155C50.018 19.3832 49.9401 20.5509 50.1737 21.7185C50.7964 24.5988 54.9222 26 57.2575 24.1317C57.7246 23.7425 57.7246 23.1976 57.5689 22.8083C57.3353 22.1856 56.8683 22.6527 56.5569 22.7305C55.7784 22.964 55.0778 23.1197 54.2216 23.0419C53.4431 22.964 52.8982 22.6527 52.5868 21.9521C52.2754 21.2515 52.2754 20.7065 53.2874 20.8622C53.8323 20.9401 54.3772 20.8622 54.9222 20.8622C55.5449 20.8622 56.1677 20.7844 56.7904 20.8622C57.6467 20.9401 57.8802 20.5509 57.8802 19.7724C57.9581 17.6706 57.024 16.3473 55.2335 15.958ZM55.7784 19.1497C55.7006 19.7724 55.0778 19.3053 54.6886 19.461C54.5329 19.5389 54.2994 19.461 54.1437 19.461C53.988 19.461 53.7545 19.461 53.5988 19.461C53.2096 19.3832 52.6647 19.6946 52.509 19.2275C52.4311 18.8383 52.5868 18.2934 52.976 17.9042C53.5988 17.2814 54.3772 17.2814 55.0778 17.6706C55.6228 18.0598 55.8563 18.6048 55.7784 19.1497Z" fill="white"/>
<path d="M50.9521 14.012C50.9521 13.4671 50.9521 13 50.1737 13C47.6826 13 45.2695 13 42.8563 13C42.3892 13 42.1557 13.1557 42.0778 13.7006C41.9222 14.8683 42.0778 15.024 43.3234 15.024C43.7126 15.024 44.1018 15.1018 44.4132 15.024C45.1138 14.9461 45.3473 15.1796 45.3473 15.9581C45.2695 18.5269 45.3473 21.1737 45.3473 23.7425C45.3473 24.7545 45.8922 24.6766 46.5928 24.6766C47.2934 24.6766 47.8383 24.6766 47.7605 23.7425C47.6826 22.4192 47.7605 21.1737 47.7605 19.8503C47.7605 19.1497 47.7605 18.5269 47.7605 17.8263C47.7605 16.9701 47.3713 15.8802 47.9162 15.2575C48.3832 14.7126 49.4731 15.1018 50.2515 15.1018C50.9521 15.024 50.9521 14.5569 50.9521 14.012Z" fill="white"/>
<path d="M91.1198 22.6527C90.4192 22.7305 89.7186 22.5749 89.018 22.6527C88.3174 22.7305 88.1617 22.4192 88.1617 21.7964C88.1617 19.2275 88.1617 16.5808 88.1617 14.012C88.2395 13 87.6946 13 86.994 13C86.3713 13 85.7485 13 85.7485 13.9341C85.8263 15.491 85.7485 17.1257 85.7485 18.6826C85.7485 20.2395 85.7485 21.8743 85.7485 23.4311C85.7485 24.2096 86.0599 24.5988 86.8383 24.521C88.2395 24.4431 89.6407 24.4431 91.0419 24.521C91.8982 24.521 92.1317 24.2874 92.1317 23.4311C92.2096 22.8084 91.8982 22.5749 91.1198 22.6527Z" fill="white"/>
<path d="M64.1078 15.8803C63.0958 15.8025 62.4731 16.4252 61.6168 17.4372C62.006 15.9582 61.2275 16.036 60.5269 16.036C59.6707 16.036 59.8263 16.6588 59.8263 17.2037C59.8263 19.3833 59.8263 21.4851 59.8263 23.6648C59.8263 24.521 60.2156 24.6767 60.9162 24.5989C61.6168 24.5989 62.1617 24.5989 62.0838 23.6648C62.006 22.4192 62.0838 21.1737 62.0838 19.8504C62.0838 18.8384 63.018 17.9043 64.0299 18.06C64.8084 18.2157 65.0419 17.9043 65.0419 17.2037C64.9641 16.5809 65.0419 15.9582 64.1078 15.8803Z" fill="white"/>
<path d="M69.5569 16.0359C69.2455 16.1916 68.9341 16.503 68.6228 16.7365C68.0778 15.8802 67.2994 15.6467 66.3653 16.1137C66.3653 18.6826 66.3653 21.2515 66.2874 23.7425C66.2874 24.6766 66.8323 24.5209 67.3772 24.5209C67.9222 24.5209 68.6228 24.6766 68.5449 23.6646C68.4671 22.4191 68.5449 21.1736 68.5449 19.9281C68.5449 18.6826 69.4012 17.982 70.5689 18.0599C70.8802 18.0599 71.1916 18.2934 71.2695 17.8263C71.4251 17.2036 71.5808 16.503 71.1138 16.0359C70.8024 15.6467 70.1018 15.8024 69.5569 16.0359Z" fill="white"/>
</g>
<defs>
<clipPath id="clip0_146_4251">
<rect width="30" height="30" fill="white" transform="translate(7 4)"/>
</clipPath>
<clipPath id="clip1_146_4251">
<rect width="78" height="11.988" fill="white" transform="translate(42 13)"/>
</clipPath>
</defs>
</svg>
