<svg width="44" height="39" viewBox="0 0 44 39" fill="none" xmlns="http://www.w3.org/2000/svg">
<path d="M32.6136 11.7943C31.8182 10.9947 31.0227 10.9947 30.2273 11.7943L23.8636 14.9928L19.8864 17.3916L13.5227 21.3897C12.7273 22.1893 11.9318 22.1893 11.1364 21.3897L5.56818 18.1912C4.77273 18.1912 4.77273 17.3916 4.77273 15.7924V10.1951C4.77273 9.39547 5.56818 8.59586 6.36364 7.79624L11.1364 5.3974C11.9318 4.59779 12.7273 4.59779 13.5227 5.3974L18.2955 7.79624C19.0909 8.59586 19.8864 9.39547 19.8864 10.1951V14.1932L23.8636 11.7943V7.79624C23.8636 6.99663 23.0682 6.19701 22.2727 5.3974L13.5227 0.599711C12.7273 -0.199904 11.9318 -0.199904 11.1364 0.599711L1.59091 5.3974C0.795455 6.19701 0 6.99663 0 7.79624V18.1912C0 19.7905 0.795455 20.5901 1.59091 20.5901L11.1364 26.1874C11.9318 26.987 12.7273 26.987 13.5227 26.1874L19.8864 22.9889L23.8636 20.5901L30.2273 17.3916C31.0227 16.592 31.8182 16.592 32.6136 17.3916L37.3864 19.7905C38.1818 19.7905 38.9773 20.5901 38.9773 21.3897V26.987C38.9773 27.7866 38.1818 28.5862 37.3864 29.3858L32.6136 32.5843C31.8182 33.3839 31.0227 33.3839 30.2273 32.5843L25.4545 29.3858C24.6591 29.3858 23.8636 28.5862 23.8636 27.7866V23.7885L19.8864 26.1874V30.1855C19.8864 30.9851 20.6818 31.7847 21.4773 32.5843L31.0227 38.1816C31.8182 38.9812 32.6136 38.9812 33.4091 38.1816L42.9545 32.5843C42.9545 31.7847 43.75 30.9851 43.75 30.1855V18.9909C43.75 18.1912 42.9545 17.3916 42.1591 16.592L32.6136 11.7943Z" fill="#8247E5"/>
</svg>
