<svg width="130" height="38" viewBox="0 0 130 38" fill="none" xmlns="http://www.w3.org/2000/svg">
<rect width="130" height="38" rx="8" fill="#343535"/>
<path d="M55.4604 15.7303C55.9492 16.2217 56.438 16.713 56.9267 17.2043C57.4155 17.6956 57.4155 18.6783 57.4155 19.6609C57.4155 20.6436 57.4155 21.6262 56.9267 22.1175C56.9267 23.5915 55.9492 24.0828 55.4604 24.5741C54.4829 24.5741 53.9941 25.0655 53.0166 25.0655C52.5278 25.0655 52.0391 25.0655 51.5503 24.5741C51.0615 24.5741 50.5728 24.0828 50.084 24.0828V28.996H47.1514V15.7303H49.5952L50.084 16.713C51.0615 15.7303 52.0391 15.239 53.5054 15.239C53.9941 15.239 54.9717 15.239 55.4604 15.7303ZM53.9941 22.1175C54.4829 21.6262 54.9717 21.1349 54.9717 20.1522C54.9717 19.1696 54.4829 18.6783 53.9941 18.1869C53.5054 17.6956 53.0166 17.6956 52.5278 17.6956C52.0391 17.6956 51.5503 17.6956 51.0615 18.1869C50.5728 18.1869 50.5728 18.6783 50.084 19.1696V21.1349C50.084 21.6262 50.5728 22.1175 51.0615 22.1175C51.0615 22.6088 51.5503 22.6088 52.0391 22.6088C53.0166 22.6088 53.5054 22.6088 53.9941 22.1175Z" fill="#8247E5"/>
<path d="M59.3706 17.6956C59.8593 17.2043 60.3481 16.2217 61.3256 16.2217C62.3032 15.7303 62.7919 15.7303 63.7695 15.7303C64.747 15.7303 65.7245 15.7303 66.2133 16.2217C66.702 16.713 67.6796 17.2043 68.1683 18.187C68.6571 18.6783 68.6571 19.6609 68.6571 20.6436C68.6571 21.6262 68.6571 22.1175 68.1683 23.1002C67.6796 23.5915 67.1908 24.5741 66.2133 24.5741C65.7245 25.0655 64.747 25.0655 63.7695 25.0655C62.7919 25.0655 61.8144 25.0655 61.3256 24.5741C60.8369 24.0828 59.8593 23.5915 59.3706 23.1002C58.8818 22.6089 58.8818 21.6262 58.8818 20.6436C58.8818 19.1696 58.8818 18.187 59.3706 17.6956ZM62.3032 22.1175C62.7919 22.6089 63.2807 22.6089 63.7695 22.6089C64.2582 22.6089 64.747 22.1175 65.2357 22.1175C65.7245 22.1175 65.7245 21.1349 65.7245 20.1522C65.7245 19.1696 65.7245 18.6783 65.2357 18.187C64.747 17.6956 64.2582 17.6956 63.7695 17.6956C63.2807 17.6956 62.7919 18.187 62.3032 18.187C61.8144 18.6783 61.8144 19.1696 61.8144 20.1522C61.8144 20.6436 61.8144 21.6262 62.3032 22.1175Z" fill="#8247E5"/>
<path d="M73.5448 8.36047V24.5741H70.6122V8.36047H73.5448Z" fill="#8247E5"/>
<path d="M85.2751 15.7303L79.41 28.996H76.4774L78.4324 24.0828L74.5223 15.7303H77.9437L80.3875 21.1349L82.8313 15.7303C82.3426 15.7303 85.2751 15.7303 85.2751 15.7303Z" fill="#8247E5"/>
<path d="M96.028 15.7303V24.5741C96.028 25.5568 96.028 26.0481 95.5392 27.0307C95.0505 28.0134 94.5617 28.0134 93.5842 28.5047C92.6066 28.996 91.6291 28.996 90.6516 28.996C90.1628 28.996 89.1853 28.996 88.6965 28.5047C88.2077 28.5047 87.719 28.0134 87.2302 28.0134C86.7414 28.0134 86.2527 27.5221 85.7639 27.0307L87.2302 25.0655C88.2077 26.0481 88.6965 26.0481 89.1853 26.5394C89.674 27.0307 90.1628 27.0307 90.6516 27.0307C91.1403 27.0307 92.1179 27.0307 92.6066 26.5394C93.0954 26.0481 93.0954 25.5568 93.0954 25.0655V23.5915C92.6066 24.0828 92.6066 24.5741 91.6291 24.5741C91.1403 25.0655 90.1628 25.0655 89.674 25.0655C89.1853 25.0655 88.2077 25.0655 87.2302 24.5741C86.7414 24.0828 86.2527 23.5915 85.7639 23.1002C85.2751 21.6262 85.2751 21.1349 85.2751 20.1522C85.2751 19.1696 85.2751 18.6783 85.7639 17.6956C86.2527 16.713 86.7414 16.2217 87.719 15.7303C88.2077 15.239 89.1853 15.239 89.674 15.239C90.1628 15.239 91.1403 15.239 91.6291 15.7303C92.1179 15.7303 92.6066 16.2217 93.0954 16.713L93.5842 16.2217L96.028 15.7303ZM93.0954 21.1349V19.1696C93.0954 18.6783 92.6066 18.1869 92.1179 18.1869C91.6291 18.1869 91.1403 17.6956 90.6516 17.6956C90.1628 17.6956 89.1853 18.1869 88.6965 18.1869C88.2077 18.6783 88.2077 19.1696 88.2077 20.1522C88.2077 20.6436 88.2077 21.6262 88.6965 22.1175C89.1853 22.6088 89.674 23.1002 90.6516 23.1002C91.6291 22.6088 92.6066 22.1175 93.0954 21.1349Z" fill="#8247E5"/>
<path d="M98.4719 17.6956C98.9606 16.713 99.4494 16.2217 99.9382 15.7303C100.916 15.239 101.404 15.239 102.382 15.239C103.36 15.239 104.337 15.239 104.826 15.7303C105.315 16.2217 106.292 16.713 106.781 17.2043C107.27 18.1869 107.27 18.6783 107.27 19.6609C107.27 20.6436 107.27 21.6262 106.781 22.1175C106.292 23.1002 105.803 23.5915 104.826 24.0828C104.337 24.5741 103.36 24.5741 102.382 24.5741C101.404 24.5741 100.427 24.5741 99.9382 24.0828C98.9606 23.5915 98.4719 23.1002 97.9831 22.6088C97.4943 21.6262 97.4943 21.1349 97.4943 20.1522C97.4943 19.1696 97.9831 18.1869 98.4719 17.6956ZM100.916 22.1175C101.404 22.6088 101.893 22.6088 102.382 22.6088C102.871 22.6088 103.36 22.1175 103.848 22.1175C104.337 22.1175 104.826 20.6436 104.826 20.1522C104.826 19.1696 104.826 18.6783 104.337 18.1869C103.848 17.6956 103.36 17.6956 102.871 17.6956C102.382 17.6956 101.893 18.1869 101.404 18.1869C100.916 18.6783 100.916 19.1696 100.916 20.1522C100.427 20.6436 100.916 21.6262 100.916 22.1175Z" fill="#8247E5"/>
<path d="M118.022 16.2217C118.511 16.713 119 17.2043 119 18.1869V25.0655H116.067V19.1696C116.067 18.1869 115.579 17.6956 114.601 17.6956C114.112 17.6956 113.624 18.1869 113.135 18.6783C112.646 19.1696 112.157 20.1522 112.157 21.1349V24.5741H109.713V15.7303H112.157V17.2043C112.646 16.713 113.135 16.2217 113.624 15.7303C114.112 15.239 115.09 15.239 115.579 15.239C116.556 15.239 117.045 15.7303 118.022 16.2217Z" fill="#8247E5"/>
<path d="M28.246 14.7358C27.7522 14.2394 27.2584 14.2394 26.7646 14.7358L22.8141 16.7213L20.3451 18.2105L16.3947 20.6924C15.9009 21.1888 15.4071 21.1888 14.9133 20.6924L11.4566 18.7069C10.9628 18.7069 10.9628 18.2105 10.9628 17.2177V13.743C10.9628 13.2466 11.4566 12.7502 11.9504 12.2538L14.9133 10.7647C15.4071 10.2683 15.9009 10.2683 16.3947 10.7647L19.3575 12.2538C19.8513 12.7502 20.3451 13.2466 20.3451 13.743V16.2249L22.8141 14.7358V12.2538C22.8141 11.7574 22.3203 11.2611 21.8265 10.7647L16.3947 7.78635C15.9009 7.28997 15.4071 7.28997 14.9133 7.78635L8.98761 10.7647C8.4938 11.2611 8 11.7574 8 12.2538V18.7069C8 19.6996 8.4938 20.196 8.98761 20.196L14.9133 23.6707C15.4071 24.1671 15.9009 24.1671 16.3947 23.6707L20.3451 21.6852L22.8141 20.196L26.7646 18.2105C27.2584 17.7141 27.7522 17.7141 28.246 18.2105L31.2088 19.6996C31.7026 19.6996 32.1964 20.196 32.1964 20.6924V24.1671C32.1964 24.6635 31.7026 25.1599 31.2088 25.6563L28.246 27.6418C27.7522 28.1382 27.2584 28.1382 26.7646 27.6418L23.8017 25.6563C23.3079 25.6563 22.8141 25.1599 22.8141 24.6635V22.1816L20.3451 23.6707V26.1527C20.3451 26.6491 20.8389 27.1454 21.3327 27.6418L27.2584 31.1165C27.7522 31.6129 28.246 31.6129 28.7398 31.1165L34.6654 27.6418C34.6654 27.1454 35.1592 26.6491 35.1592 26.1527V19.2033C35.1592 18.7069 34.6654 18.2105 34.1716 17.7141L28.246 14.7358Z" fill="#8247E5"/>
</svg>
