<svg width="50" height="50" viewBox="0 0 50 50" fill="none" xmlns="http://www.w3.org/2000/svg">
<rect width="50" height="50" rx="10" fill="#343535"/>
<path d="M14.2015 31.1176C14.4466 30.8726 14.6917 30.8726 14.9368 30.8726H40.427C40.9172 30.8726 41.1623 31.4853 40.7947 31.7304L35.7702 36.7549C35.5251 37 35.28 37 35.0349 37H9.54466C9.05447 37 8.80937 36.3873 9.17702 36.1422L14.2015 31.1176Z" fill="url(#paint0_linear_12_221)"/>
<path d="M14.2015 12.2451C14.4466 12.1225 14.6917 12 14.9368 12H40.427C40.9172 12 41.1623 12.6127 40.9172 12.8578L35.8927 17.8824C35.6476 18.1275 35.4025 18.1275 35.1574 18.1275H9.54467C9.05447 18.25 8.93192 17.6373 9.17702 17.3922L14.2015 12.2451Z" fill="url(#paint1_linear_12_221)"/>
<path d="M35.7702 21.6814C35.5251 21.4363 35.28 21.4363 35.0349 21.4363H9.54467C9.05447 21.3137 8.93192 21.9265 9.17702 22.2941L14.2015 27.3186C14.4466 27.5637 14.6917 27.5637 14.9368 27.5637H40.427C40.9172 27.5637 41.1623 26.951 40.7947 26.7059L35.7702 21.6814Z" fill="url(#paint2_linear_12_221)"/>
<defs>
<linearGradient id="paint0_linear_12_221" x1="38.0656" y1="8.9902" x2="20.4047" y2="42.8179" gradientUnits="userSpaceOnUse">
<stop stop-color="#00FFA3"/>
<stop offset="1" stop-color="#DC1FFF"/>
</linearGradient>
<linearGradient id="paint1_linear_12_221" x1="30.3431" y1="4.95833" x2="12.6822" y2="38.786" gradientUnits="userSpaceOnUse">
<stop stop-color="#00FFA3"/>
<stop offset="1" stop-color="#DC1FFF"/>
</linearGradient>
<linearGradient id="paint2_linear_12_221" x1="34.182" y1="6.96152" x2="16.5203" y2="40.7909" gradientUnits="userSpaceOnUse">
<stop stop-color="#00FFA3"/>
<stop offset="1" stop-color="#DC1FFF"/>
</linearGradient>
</defs>
</svg>
