<svg width="130" height="38" viewBox="0 0 130 38" fill="none" xmlns="http://www.w3.org/2000/svg">
<rect width="130" height="38" rx="8" fill="#343535"/>
<path d="M45.2694 20.2512H49.3881C49.9909 20.2512 50.3927 20.7534 50.3927 21.3562C50.3927 21.9589 49.8904 22.4612 49.3881 22.4612H44.3653C44.2648 22.4612 44.2648 22.5617 44.1644 22.5617L42.6575 23.8676C42.4566 24.0685 42.5571 24.4703 42.8584 24.4703H49.0868C49.2877 24.4703 49.3881 24.4703 49.6895 24.4703C50.7945 24.2694 51.7991 23.5662 52.2009 22.4612C52.8037 20.4521 51.3973 18.6439 49.589 18.5434H45.1689C44.5662 18.5434 44.1644 18.0411 44.1644 17.4384C44.1644 16.8356 44.6667 16.3334 45.1689 16.3334H50.1918C50.2922 16.3334 50.2922 16.2329 50.3927 16.2329L51.7991 14.927C52 14.726 51.8995 14.3242 51.5982 14.3242H45.2694H45.1689C44.0639 14.3242 42.9589 14.927 42.4566 15.9315C41.4521 18.0411 43.0594 20.2512 45.2694 20.2512C45.1689 20.2512 45.1689 20.2512 45.2694 20.2512Z" fill="white"/>
<path d="M69.379 14.2238C69.1781 14.2238 69.0776 14.3242 69.0776 14.5251V23.968C69.0776 24.169 69.1781 24.2694 69.379 24.2694H76.9132C77.0137 24.2694 77.1142 24.169 77.1142 24.169L78.0183 23.1644C78.2192 22.9635 78.0183 22.5617 77.8173 22.5617H71.2877C71.0868 22.5617 70.9863 22.4612 70.9863 22.2603V14.5251C70.9863 14.3242 70.8858 14.2238 70.6849 14.2238H69.379Z" fill="white"/>
<path fill-rule="evenodd" clip-rule="evenodd" d="M57.2237 14.2238C56.2192 14.2238 55.516 15.0274 55.4155 16.032V22.3607V22.4612C55.4155 23.4658 56.2192 24.2694 57.2237 24.3699H64.1553C65.1598 24.3699 65.9635 23.4658 65.9635 22.4612V22.3607V16.032C65.9635 15.0274 65.1598 14.3242 64.1553 14.2238H57.2237ZM58.5297 16.032C57.9269 16.032 57.4247 16.5343 57.4247 17.137V21.1553C57.4247 21.758 57.9269 22.3607 58.5297 22.3607H62.8493C63.4521 22.3607 63.9543 21.8585 63.9543 21.1553V17.137C63.9543 16.5343 63.4521 16.032 62.8493 16.032H58.5297Z" fill="white"/>
<path fill-rule="evenodd" clip-rule="evenodd" d="M89.169 23.968C89.169 24.169 89.2694 24.2694 89.4703 24.2694H90.7763C90.9772 24.2694 91.0776 24.169 91.0776 23.968V16.1324V16.032C91.0776 15.0274 90.274 14.2237 89.2694 14.1233H82.6393H82.5388C81.5343 14.1233 80.7306 14.9269 80.7306 16.032V16.1324V23.968C80.7306 24.169 80.8311 24.2694 81.032 24.2694H82.3379C82.5388 24.2694 82.6393 24.169 82.6393 23.968V20.7534C82.6393 20.5525 82.7397 20.4521 82.9406 20.4521H88.7671C88.968 20.4521 89.0685 20.5525 89.0685 20.7534L89.169 23.968ZM82.7397 18.6438V16.9361C82.7397 16.3333 83.242 15.8311 83.8448 15.8311H88.0639C88.6667 15.8311 89.169 16.3333 89.169 16.9361V18.5434C89.169 18.7443 89.0685 18.8448 88.8676 18.8448H83.0411C82.8402 18.9452 82.7397 18.8448 82.7397 18.6438Z" fill="white"/>
<path fill-rule="evenodd" clip-rule="evenodd" d="M116.292 24.3699C116.091 24.3699 115.991 24.2694 115.991 24.0685V20.8539C115.991 20.653 115.89 20.5525 115.689 20.5525H109.863C109.662 20.5525 109.562 20.653 109.562 20.8539V24.169C109.562 24.3699 109.461 24.4703 109.26 24.4703H107.954C107.753 24.4703 107.653 24.3699 107.653 24.169V16.1324C107.653 15.1279 108.457 14.2238 109.562 14.2238H109.662H116.292C117.297 14.2238 118.1 15.1279 118.1 16.1324V16.2329V24.0685C118.1 24.2694 118 24.3699 117.799 24.3699H116.292ZM109.461 16.9361V18.5434C109.461 18.7443 109.562 18.8448 109.763 18.8448H115.589C115.79 18.8448 115.89 18.7443 115.89 18.5434V16.9361C115.89 16.3333 115.388 15.8311 114.785 15.8311H110.566C109.963 15.8311 109.461 16.3333 109.461 16.9361Z" fill="white"/>
<path d="M95.8995 14.2238C96 14.2238 96.1005 14.2238 96.1005 14.3242L101.826 21.1553C102.027 21.3562 102.429 21.2557 102.429 20.9543V14.5251C102.429 14.3242 102.53 14.2238 102.731 14.2238H104.037C104.237 14.2238 104.338 14.3242 104.338 14.5251V23.968C104.338 24.169 104.237 24.2694 104.037 24.2694H102.429L96.6027 17.4384C96.4018 17.2375 96 17.3379 96 17.6393V23.968C96 24.169 95.8995 24.2694 95.6986 24.2694H94.3927C94.1918 24.2694 94.0913 24.169 94.0913 23.968V14.5251C94.0913 14.3242 94.1918 14.2238 94.3927 14.2238H95.8995Z" fill="white"/>
<path d="M13.2638 24.6713C13.4647 24.4703 13.6657 24.4703 13.8666 24.4703H34.7615C35.1634 24.4703 35.3643 24.9726 35.0629 25.1735L30.9442 29.2923C30.7433 29.4932 30.5424 29.4932 30.3415 29.4932H9.44647C9.04465 29.4932 8.84373 28.9909 9.1451 28.79L13.2638 24.6713Z" fill="url(#paint0_linear_146_3024)"/>
<path d="M13.2638 9.20091C13.4647 9.10046 13.6657 9 13.8666 9H34.7615C35.1634 9 35.3643 9.50228 35.1634 9.7032L31.0446 13.8219C30.8437 14.0228 30.6428 14.0228 30.4419 14.0228H9.44647C9.04465 14.1233 8.94419 13.621 9.1451 13.4201L13.2638 9.20091Z" fill="url(#paint1_linear_146_3024)"/>
<path d="M30.9442 16.9361C30.7433 16.7352 30.5424 16.7352 30.3415 16.7352H9.44647C9.04465 16.6348 8.94419 17.1371 9.1451 17.4384L13.2638 21.5572C13.4647 21.7581 13.6657 21.7581 13.8666 21.7581H34.7615C35.1634 21.7581 35.3643 21.2558 35.0629 21.0549L30.9442 16.9361Z" fill="url(#paint2_linear_146_3024)"/>
<defs>
<linearGradient id="paint0_linear_146_3024" x1="32.8258" y1="6.5328" x2="18.3487" y2="34.2622" gradientUnits="userSpaceOnUse">
<stop stop-color="#00FFA3"/>
<stop offset="1" stop-color="#DC1FFF"/>
</linearGradient>
<linearGradient id="paint1_linear_146_3024" x1="26.4955" y1="3.22776" x2="12.0184" y2="30.9572" gradientUnits="userSpaceOnUse">
<stop stop-color="#00FFA3"/>
<stop offset="1" stop-color="#DC1FFF"/>
</linearGradient>
<linearGradient id="paint2_linear_146_3024" x1="29.6424" y1="4.8699" x2="15.1646" y2="32.6007" gradientUnits="userSpaceOnUse">
<stop stop-color="#00FFA3"/>
<stop offset="1" stop-color="#DC1FFF"/>
</linearGradient>
</defs>
</svg>
