<svg width="62" height="62" viewBox="0 0 62 62" fill="none" xmlns="http://www.w3.org/2000/svg">
<g clip-path="url(#clip0_144_758)">
<path d="M36.3164 61.456C53.1615 58.5271 64.4428 42.4971 61.5139 25.652C58.585 8.80687 42.555 -2.47443 25.7099 0.454484C8.86479 3.3834 -2.41651 19.4134 0.512403 36.2585C3.44132 53.1036 19.4713 64.3849 36.3164 61.456Z" fill="#B8B8B8"/>
<path d="M31.0137 62.0274C48.1421 62.0274 62.0274 48.1421 62.0274 31.0137C62.0274 13.8853 48.1421 0 31.0137 0C13.8853 0 0 13.8853 0 31.0137C0 48.1421 13.8853 62.0274 31.0137 62.0274Z" fill="#66ACDD"/>
<path d="M19.3528 35.0923L22.6649 45.2477C22.9113 45.9594 23.7872 46.2331 24.362 45.7404L34.2711 37.5558C34.2711 37.5558 23.7324 33.4499 23.7324 33.6689C23.7598 33.9152 19.3528 35.0923 19.3528 35.0923Z" fill="#B5D1DB"/>
<path d="M45.5214 15.5753C39.034 18.1483 18.1483 26.6887 10.2375 29.9461C9.19735 30.3841 9.2521 31.8622 10.3196 32.2181L19.3528 35.0922L22.6649 45.2203C22.8018 45.6309 23.1302 45.8772 23.5135 45.9594C23.8146 46.0141 24.2799 37.7748 24.2799 37.7748C24.2799 37.7748 33.7784 44.8097 38.2676 48.1492C39.3899 48.9704 40.9501 48.3408 41.2238 46.9995C42.5651 40.0741 45.932 22.8017 47.0543 16.8892C47.2185 15.9858 46.3426 15.2468 45.5214 15.5753Z" fill="white"/>
<path d="M23.5135 45.9594C23.8146 46.0141 24.2799 37.7748 24.2799 37.7748L39.8825 23.1302C39.992 23.0208 39.8552 22.8565 39.7457 22.9386L19.3801 35.1197L22.6923 45.2477C22.8018 45.6309 23.1302 45.8773 23.5135 45.9594Z" fill="#D6E2EA"/>
<path opacity="0.5" d="M31.0137 62.0274C48.1421 62.0274 62.0274 48.1421 62.0274 31.0137C62.0274 13.8853 48.1421 0 31.0137 0C13.8853 0 0 13.8853 0 31.0137C0 48.1421 13.8853 62.0274 31.0137 62.0274Z" fill="url(#paint0_linear_144_758)"/>
</g>
<defs>
<linearGradient id="paint0_linear_144_758" x1="31.0033" y1="0" x2="31.0033" y2="62.0065" gradientUnits="userSpaceOnUse">
<stop stop-color="white"/>
<stop offset="0.2606" stop-color="white" stop-opacity="0.7394"/>
<stop offset="1" stop-color="white" stop-opacity="0"/>
</linearGradient>
<clipPath id="clip0_144_758">
<rect width="62" height="62" fill="white"/>
</clipPath>
</defs>
</svg>
