<svg width="61" height="50" viewBox="0 0 61 50" fill="none" xmlns="http://www.w3.org/2000/svg">
<path d="M0.471439 44.353C2.28778 44.5062 4.11215 44.5062 5.92045 44.2805C10.5256 43.7081 14.6646 42.0072 18.3455 39.1697C18.3616 39.1536 18.3696 39.1294 18.4098 39.0649C15.7496 38.9601 13.3385 38.1459 11.2168 36.5498C9.09502 34.9618 7.63231 32.8981 6.76432 30.3186C7.72875 30.4637 8.64495 30.5443 9.56116 30.512C10.4693 30.4798 11.3614 30.3589 12.2616 30.117C6.03297 28.2791 2.7298 24.1518 2.36011 17.6545C3.26828 18.0415 4.15233 18.4365 5.08461 18.6863C6.00886 18.9362 6.94917 19.0975 8.01004 19.1378C4.6024 16.663 2.73784 13.4144 2.48066 9.28707C2.336 6.82036 2.91465 4.50681 4.16841 2.32224C4.93191 3.23315 5.67934 4.09569 6.48303 4.90181C11.6829 10.1174 17.8793 13.4466 25.0965 14.8734C26.6235 15.1717 28.1585 15.3652 29.7096 15.4619C29.9829 15.478 30.0552 15.4377 29.999 15.1475C28.6809 8.33585 32.7797 1.88694 39.5227 0.355327C43.943 -0.652315 47.8409 0.51655 51.128 3.65233C51.4173 3.92641 51.6503 3.96672 52.004 3.8861C54.5115 3.31376 56.8904 2.40286 59.1166 1.12114C59.197 1.07277 59.2774 1.03246 59.4381 0.951851C58.972 2.4351 58.2727 3.70876 57.3646 4.86956C56.4564 6.03843 55.3554 7.00576 54.1177 7.83606C55.3312 7.73127 56.4966 7.48137 57.6539 7.16699C58.7951 6.8526 59.9042 6.44955 61.0214 6.02231C60.5392 6.84454 59.9685 7.5781 59.3658 8.28749C58.112 9.76267 56.7056 11.0847 55.1544 12.2455C54.9857 12.3745 54.8731 12.4873 54.8812 12.7292C55.066 17.1144 54.407 21.3788 52.9925 25.5141C50.3966 33.1077 45.9442 39.3309 39.3378 43.9177C34.9658 46.9568 30.1034 48.7786 24.8393 49.5363C19.1009 50.3666 13.4671 49.9555 7.95378 48.1337C5.20517 47.2228 2.59318 45.9894 0.149963 44.4336C0.214258 44.2321 0.350886 44.3369 0.471439 44.353Z" fill="#1D9AEF"/>
</svg>
