<svg width="63" height="51" viewBox="0 0 63 51" fill="none" xmlns="http://www.w3.org/2000/svg">
<path d="M0.823546 44.9947C2.65986 45.1496 4.5043 45.1496 6.33248 44.9214C10.9883 44.3428 15.1728 42.6232 18.8942 39.7544C18.9104 39.7381 18.9185 39.7137 18.9592 39.6485C16.2697 39.5425 13.8321 38.7194 11.687 37.1057C9.54197 35.5002 8.06317 33.4139 7.18564 30.806C8.16067 30.9527 9.08695 31.0342 10.0132 31.0016C10.9314 30.969 11.8333 30.8467 12.7433 30.6022C6.44624 28.7441 3.10675 24.5714 2.73299 18.0026C3.65114 18.3938 4.54492 18.7932 5.48745 19.0458C6.42186 19.2985 7.37252 19.4614 8.44506 19.5022C4.99994 17.0002 3.11487 13.7158 2.85487 9.54315C2.70861 7.04932 3.29363 4.71033 4.56117 2.50174C5.33307 3.42266 6.08873 4.29469 6.90125 5.10967C12.1583 10.3826 18.4229 13.7484 25.7194 15.191C27.2632 15.4925 28.8151 15.6881 30.3833 15.7859C30.6596 15.8022 30.7327 15.7614 30.6758 15.4681C29.3433 8.58148 33.4872 2.06165 40.3043 0.513187C44.7732 -0.505537 48.7139 0.676182 52.0372 3.84645C52.3297 4.12354 52.5653 4.16429 52.9228 4.08279C55.4579 3.50416 57.863 2.58323 60.1137 1.28742C60.1949 1.23852 60.2762 1.19777 60.4387 1.11627C59.9674 2.61583 59.2605 3.9035 58.3424 5.07707C57.4242 6.25879 56.3111 7.23676 55.0598 8.07619C56.2867 7.97024 57.4648 7.7176 58.6349 7.39976C59.7887 7.08192 60.91 6.67443 62.0394 6.24249C61.5519 7.07377 60.975 7.8154 60.3656 8.53258C59.098 10.024 57.6761 11.3606 56.1079 12.5341C55.9373 12.6645 55.8235 12.7786 55.8317 13.0231C56.0185 17.4566 55.3523 21.7678 53.9222 25.9487C51.2978 33.6258 46.7964 39.9174 40.1174 44.5547C35.6972 47.6271 30.7814 49.469 25.4594 50.2351C19.6579 51.0745 13.9621 50.6588 8.38818 48.817C5.60933 47.8961 2.96862 46.6491 0.498535 45.0762C0.563537 44.8725 0.701667 44.9784 0.823546 44.9947Z" fill="#1D9AEF"/>
</svg>
