<svg width="62" height="62" viewBox="0 0 62 62" fill="none" xmlns="http://www.w3.org/2000/svg">
<path d="M61.9006 28.7863C61.8674 28.3888 61.8012 27.9582 61.768 27.5607C61.6355 26.2688 61.4367 25.01 61.1053 23.7843C60.807 22.393 60.3763 21.068 59.8461 19.7761C59.6804 19.3455 59.5147 18.9148 59.349 18.4842C59.3821 18.3848 59.2827 18.3186 59.2496 18.2192C59.2165 17.9873 59.1502 17.7554 58.9514 17.5898L58.9182 17.5567C58.7525 16.9935 58.4543 16.4635 58.1229 15.9998C57.9904 15.7679 57.8247 15.536 57.6921 15.3041C57.3939 14.7741 57.0957 14.2772 56.7643 13.7803C56.0353 12.6872 55.24 11.6603 54.4115 10.6665C54.3453 10.4346 54.1464 10.3021 53.9808 10.1696C53.9476 10.0702 53.8813 10.004 53.8151 9.97087C53.318 9.47398 52.8541 9.01022 52.357 8.54646C50.8327 7.12205 49.209 5.79701 47.4196 4.73699C47.2539 4.60449 47.0882 4.50511 46.8894 4.40573C46.7899 4.30635 46.6905 4.2401 46.558 4.20698C46.4586 4.1076 46.3592 4.07447 46.2598 4.04135C46.1603 3.94197 46.0278 3.87572 45.8952 3.84259C45.1994 3.41196 44.4372 3.04757 43.675 2.71632C43.178 2.48443 42.7141 2.25255 42.1839 2.12005C41.256 1.68942 40.2619 1.39128 39.2678 1.12628C39.1352 1.09315 39.0358 1.06003 38.9033 1.0269C38.7707 0.960648 38.605 0.927522 38.4725 0.927522C37.5115 0.662516 36.5505 0.463761 35.5564 0.364384C35.4238 0.298132 35.2913 0.298132 35.1919 0.298132C35.0593 0.231881 34.8936 0.231881 34.7611 0.231881C34.0983 0.0993774 33.4356 0.0993774 32.7728 0.0331258C32.6734 0.0331258 32.6072 0.0331258 32.5077 0.0662516C32.4746 0.0331258 32.4083 0.0331258 32.3752 0C32.3421 0 32.3421 0 32.3089 0C32.1764 0 32.0107 0 31.8781 0C31.3148 0 30.7515 0 30.2213 0C30.0556 0 29.8899 0 29.7242 0C29.6579 0 29.5917 0 29.5254 0C29.4591 0 29.3597 0 29.2934 0C29.1277 0.132503 28.9289 0.0331258 28.7632 0.0993774C28.1336 0.0993774 27.5371 0.165629 26.9075 0.298132C26.3773 0.331258 25.8471 0.430635 25.3169 0.563139C24.7536 0.662516 24.1903 0.761893 23.6269 0.927522C23.0305 1.06003 22.434 1.19253 21.8375 1.42441C21.1748 1.59004 20.512 1.82192 19.8493 2.12005C19.6836 2.15318 19.5179 2.21943 19.3522 2.31881C18.8552 2.48443 18.3912 2.68319 17.9273 2.9482C17.5297 3.11382 17.1652 3.27945 16.8006 3.51133C16.3367 3.71009 15.8728 3.9751 15.442 4.2401C15.1438 4.3726 14.8787 4.53823 14.6136 4.73699C14.5473 4.77011 14.4479 4.83637 14.3816 4.86949C14.3485 4.90262 14.2822 4.93574 14.2491 4.96887C13.8183 5.23388 13.3875 5.53201 12.9567 5.79701C12.791 5.86327 12.5922 5.89639 12.5591 6.12827C12.1283 6.2939 11.7969 6.59203 11.4655 6.92329C11.2998 7.05579 11.1673 7.22142 11.0016 7.35393C10.5377 7.71831 10.1069 8.11582 9.67611 8.51333C9.24532 8.87771 8.88081 9.27522 8.5163 9.67273C8.2512 9.93774 7.9861 10.2027 7.75414 10.5009C7.48904 10.7659 7.22394 11.064 7.02512 11.3621C7.02512 11.3953 7.02512 11.4284 7.02512 11.4615C7.02512 11.4284 7.02512 11.3953 7.02512 11.3621C6.66061 11.7597 6.32924 12.1903 6.031 12.6541C5.7659 12.9853 5.53394 13.3166 5.30198 13.681C5.26884 13.7472 5.20257 13.8135 5.16943 13.8797C5.13629 13.946 5.10315 14.0122 5.03688 14.0785C4.87119 14.3435 4.7055 14.6085 4.50668 14.8735C4.20844 15.3704 3.91021 15.8341 3.64511 16.3641C3.2806 16.9604 2.98236 17.5898 2.71726 18.2192C2.31961 19.0805 1.9551 19.9417 1.69001 20.8361C1.52432 21.2668 1.35863 21.6974 1.25922 22.128C1.19294 22.393 1.09353 22.7574 0.994121 23.1549C0.795297 23.8174 0.662747 24.48 0.563335 25.1425C0.563335 25.1756 0.563335 25.2087 0.563335 25.2419C0.463923 25.54 0.430786 25.8712 0.397648 26.2025C0.298236 26.6663 0.231962 27.1632 0.198824 27.6269C0.231962 27.66 0.231962 27.6932 0.231962 27.7263C0.231962 27.6932 0.198824 27.66 0.198824 27.6269C0.165687 27.8257 0.132549 28.0244 0.132549 28.2563C0.132549 28.3557 0.132549 28.4551 0.0994121 28.5544C0 28.7201 0.132549 28.9188 0 29.0844C0 29.1507 0 29.2501 0 29.3163C0 29.3495 0 29.3495 0 29.3826C0 29.5151 0 29.6145 0 29.747C0 29.8132 0 29.8795 0 29.9457C0 30.1113 0 30.277 0 30.4426C0 30.6745 0 30.9064 0 31.1382C0 31.337 0 31.5026 0 31.7014C0 31.867 0 32.0326 0 32.1983C0 32.2645 0 32.3308 0 32.397C0 32.4633 0 32.5295 0 32.5958C0 32.7283 0 32.8277 0 32.9602C0.132549 33.1589 0.0331374 33.3908 0.132549 33.5896C0.132549 33.5896 0.165687 33.5896 0.165687 33.6227C0.165687 33.6227 0.165687 33.6227 0.132549 33.5896C0.132549 33.9871 0.165687 34.3846 0.265099 34.7821C0.265099 35.0802 0.298236 35.3783 0.397648 35.6434C0.397648 35.809 0.430786 35.9746 0.463923 36.1402C0.49706 36.604 0.596472 37.0678 0.729022 37.4984L0.795297 37.3328C0.795297 37.399 0.795297 37.4322 0.729022 37.4984C0.762159 37.664 0.762159 37.8297 0.828434 37.9953C0.828434 38.194 0.894709 38.3597 0.960983 38.5584C1.02726 38.9559 1.12667 39.3534 1.25922 39.7178C1.39177 40.2478 1.55746 40.7779 1.75628 41.2747C1.82255 41.4735 1.88883 41.6391 1.9551 41.8379C2.05452 42.1029 2.15393 42.3679 2.25334 42.6329C2.28648 42.6992 2.31961 42.7654 2.35275 42.8316C2.35275 42.8648 2.35275 42.8648 2.35275 42.8648C2.4853 43.2623 2.68413 43.6598 2.84981 44.0242C3.14805 44.6867 3.44629 45.3161 3.8108 45.9123C3.94335 46.2105 4.10903 46.5086 4.30786 46.7736C4.30786 46.8068 4.30786 46.8067 4.34099 46.8067C4.40727 46.9393 4.47354 47.0718 4.57296 47.2043C4.60609 47.2705 4.63923 47.3368 4.67237 47.3699C4.7055 47.4361 4.73864 47.4693 4.77178 47.5355C4.83805 47.6349 4.90433 47.7674 5.00374 47.8668C5.00374 47.8999 5.00374 47.9661 5.07002 47.9661C5.10315 48.0324 5.16943 48.0987 5.20257 48.1649C5.26884 48.2643 5.26884 48.3637 5.36825 48.4299C5.40139 48.4962 5.40139 48.5293 5.43453 48.5955C5.56708 48.728 5.66649 48.8937 5.79904 49.0262C5.79904 49.0262 5.79904 49.0262 5.79904 49.0593C5.86531 49.1587 5.93159 49.2581 6.031 49.3574C6.031 49.3574 6.031 49.3906 5.99786 49.3906C6.06414 49.5562 6.16355 49.7218 6.32924 49.8543C6.46178 49.9206 6.52806 50.02 6.59433 50.1525C6.66061 50.3181 6.72688 50.4175 6.89257 50.5168C6.92571 50.55 6.92571 50.55 6.95885 50.5831C7.05826 50.6493 7.05826 50.7818 7.12453 50.8812C7.75414 51.61 8.38375 52.3056 9.0465 53.0013C9.44415 53.3988 9.87493 53.7632 10.2726 54.1607C10.6371 54.4919 10.9353 54.8563 11.3993 55.0551C11.7969 55.3201 12.1614 55.6845 12.5591 55.9163C13.2549 56.4795 13.984 56.9432 14.7461 57.407C15.3757 57.8376 16.0053 58.1689 16.6681 58.5002C16.9001 58.6327 17.1652 58.7652 17.3971 58.8645C17.4965 58.9639 17.6291 58.9639 17.7616 59.0302C17.8279 59.0633 17.8942 59.1295 17.9936 59.1295C18.325 59.3283 18.6895 59.4608 19.054 59.5933C19.1203 59.6264 19.2197 59.6596 19.2859 59.6927C19.551 59.8252 19.8161 59.9246 20.1144 60.0239C20.3132 60.1233 20.512 60.1896 20.7108 60.2227C20.744 60.2227 20.8103 60.2558 20.8434 60.2558C20.9759 60.2889 21.0754 60.3552 21.2079 60.3883C21.5393 60.5208 21.8707 60.6202 22.202 60.6865C22.5334 60.819 22.8648 60.8852 23.1961 60.9515C23.5275 61.0508 23.8589 61.1502 24.1903 61.1833C24.356 61.2827 24.5548 61.2827 24.7536 61.3158C25.085 61.4152 25.4164 61.4815 25.7477 61.5146C26.0128 61.614 26.2779 61.614 26.543 61.6471C26.8744 61.7134 27.2058 61.7796 27.5371 61.7796C27.5703 61.7796 27.6034 61.7796 27.6366 61.7796C27.7691 61.8459 27.9348 61.8459 28.1005 61.8459C28.1336 61.8459 28.1999 61.8459 28.233 61.8459C28.3987 61.9121 28.5975 61.8459 28.7301 61.9452C28.7632 61.9452 28.7964 61.9121 28.8626 61.9121C28.962 61.9452 29.0615 61.9452 29.1277 61.9452C29.1609 61.9121 29.1609 61.9121 29.1609 61.9121C29.1609 61.9452 29.194 61.9452 29.2271 61.9784C29.4922 61.9784 29.7573 61.9784 30.0224 61.9784C30.2213 61.9784 30.387 61.9784 30.5858 61.9784C30.9172 61.9784 31.2485 61.9784 31.5799 61.9784C32.0438 61.9784 32.5409 62.0446 33.0048 61.9452H33.0379H33.0711C33.303 61.9121 33.5681 61.879 33.8001 61.879C33.9658 61.879 34.0983 61.879 34.264 61.8127C34.3303 61.8127 34.3634 61.8127 34.4297 61.8127C35.0262 61.7796 35.5895 61.6802 36.1529 61.5809C36.9482 61.4815 37.7435 61.3158 38.5056 61.084C38.9033 61.0177 39.3009 60.8852 39.6986 60.7527C40.5601 60.5208 41.4217 60.2227 42.2501 59.8914C42.5484 59.7921 42.8466 59.6927 43.1117 59.5271C43.1448 59.4939 43.2111 59.4939 43.2443 59.4608C43.3105 59.4277 43.3768 59.4277 43.4099 59.3946C44.0727 59.1295 44.7023 58.8314 45.3319 58.467C45.5307 58.3677 45.6964 58.2683 45.8952 58.1358C45.9615 58.1358 45.9946 58.1358 46.0278 58.0695C46.0941 58.0364 46.1935 57.9701 46.2598 57.937C46.4917 57.8376 46.7237 57.7051 46.9556 57.5395C47.6184 57.1751 48.2149 56.7776 48.8113 56.347C49.4741 55.9495 50.0374 55.4195 50.667 54.9888C50.7002 54.9888 50.7002 54.9557 50.7002 54.9226C50.9321 54.7569 51.1641 54.5582 51.396 54.3263C51.7937 54.0282 52.1582 53.6969 52.4896 53.3325C52.7878 53.0675 53.086 52.7694 53.3511 52.4713C53.7819 52.0406 54.2127 51.5769 54.5772 51.08C54.6104 51.0469 54.6435 51.0469 54.6435 51.0137C54.8423 50.9475 54.9417 50.7818 55.008 50.6162C55.1737 50.3843 55.3394 50.1525 55.5051 49.9537C55.737 49.7218 55.8696 49.4568 56.0684 49.1918C56.1015 49.1587 56.1347 49.0924 56.1678 49.0593C56.201 49.0593 56.201 49.0262 56.201 49.0262C56.5323 48.6287 56.8306 48.198 57.0625 47.7343C57.1288 47.7011 57.1619 47.6349 57.1951 47.5355C57.427 47.2374 57.5927 46.9393 57.7584 46.608C57.9904 46.2436 58.1892 45.8792 58.388 45.4817C58.7525 44.8523 59.0508 44.2229 59.3159 43.5604C59.6141 42.9642 59.8792 42.3348 60.0449 41.7054C60.2769 41.2416 60.4094 40.7447 60.542 40.281C60.7739 39.6185 60.9727 38.9228 61.1053 38.2272C61.1053 38.194 61.1053 38.194 61.1384 38.1609C61.2378 37.8297 61.3372 37.4653 61.3704 37.1009C61.5361 36.5046 61.6355 35.8752 61.7018 35.2458C61.768 34.9146 61.8343 34.5833 61.8012 34.2521C61.8674 34.0864 61.8674 33.9208 61.8674 33.7552C61.8674 33.6889 61.8674 33.5896 61.8674 33.5233C61.9337 33.3908 61.9006 33.2252 61.9337 33.0595C62 32.9602 61.9006 32.8277 62 32.7614C62 32.6952 62 32.6289 62 32.5627C62 32.4302 62 32.2645 62 32.132C62 31.5026 62 30.9064 62 30.277C62 30.1113 62 29.9457 62 29.7801C62 29.6476 62 29.5482 62 29.4157C62 29.3495 62 29.2501 62 29.1838C62 29.1507 62 29.1507 62 29.1176C61.8674 28.9519 61.9337 28.8526 61.9006 28.7863ZM0.298236 34.6496C0.298236 34.6496 0.331374 34.6496 0.298236 34.6496C0.331374 34.6496 0.298236 34.6496 0.298236 34.6496ZM2.78354 18.948C2.81668 18.9811 2.81668 18.9811 2.84981 19.0142C2.81668 19.0142 2.78354 19.0142 2.7504 19.0473C2.78354 19.0142 2.78354 18.9811 2.78354 18.948ZM28.5313 0.198755C28.4981 0.198755 28.4981 0.198755 28.5313 0.198755C28.4981 0.198755 28.4981 0.198755 28.5313 0.198755ZM29.2603 0.198755C29.2603 0.231881 29.2603 0.231881 29.2603 0.198755C29.2603 0.231881 29.2271 0.198755 29.2603 0.198755C29.2271 0.198755 29.2603 0.198755 29.2603 0.198755ZM61.6023 32.6289C61.6023 32.5627 61.6023 32.4964 61.6023 32.4302V32.397C61.5692 32.4633 61.6023 32.5627 61.6023 32.6289ZM13.984 10.6996C14.0171 10.6996 14.0171 10.6996 14.0171 10.6996C14.1165 10.6996 14.1828 10.6334 14.2491 10.6003C14.7793 10.2027 15.2763 9.77211 15.8065 9.40773C15.8728 9.3746 15.9391 9.30835 15.9391 9.20897H15.9722C16.3036 9.07647 16.5355 8.84459 16.8338 8.67896C16.9663 8.57958 17.132 8.54646 17.1983 8.38083C17.364 8.41395 17.4303 8.28145 17.5628 8.24832C17.8942 8.04957 18.2587 7.88394 18.5569 7.61893C18.5901 7.85081 18.2918 7.95019 18.3581 8.14895C18.1593 8.24832 18.0599 8.44708 17.9936 8.64583C17.9273 8.77834 17.861 8.87771 17.7948 9.01022C17.4634 9.47398 17.1651 9.97086 16.9332 10.5009C16.5687 11.0971 16.2704 11.7265 15.9722 12.3559C15.674 12.9522 15.4089 13.5816 15.1769 14.211C15.0112 14.476 15.0112 14.7741 14.8124 15.006C14.8124 15.0391 14.7793 15.0391 14.7793 15.0722C14.7461 15.1054 14.7461 15.1716 14.7461 15.2379C14.7461 15.271 14.7461 15.3041 14.7461 15.3041C14.713 15.4035 14.6467 15.5029 14.6136 15.6354C14.6136 15.6685 14.6136 15.6685 14.6136 15.7016C14.4479 15.7679 14.3153 15.6685 14.1828 15.5691C14.0171 15.4697 13.8846 15.3704 13.6857 15.3041C13.6526 15.3041 13.6526 15.271 13.6195 15.271C13.52 15.3041 13.52 15.1716 13.4538 15.1716C13.4206 15.1716 13.4206 15.1716 13.4206 15.1716C13.3544 15.1054 13.2881 15.0391 13.1887 15.006C13.023 14.8404 12.8242 14.741 12.6253 14.6085C12.6253 14.6085 12.5922 14.6085 12.5922 14.5754C12.5922 14.5754 12.5591 14.5754 12.5591 14.5422C12.5591 14.4428 12.5259 14.4097 12.4596 14.3435C12.1283 14.1116 11.83 13.8797 11.5318 13.6478C11.4324 13.5816 11.333 13.4491 11.2004 13.4491C11.4655 13.3166 11.5649 13.0184 11.7969 12.8528C11.83 12.8197 11.83 12.8197 11.8632 12.7866C11.8963 12.7534 11.8963 12.7203 11.8963 12.6872H11.9294C12.1614 12.5216 12.3602 12.2897 12.5591 12.0909C12.6253 12.0247 12.7247 11.9584 12.7247 11.8259C13.2549 11.5278 13.6526 11.1634 13.984 10.6996ZM28.2662 4.70386C28.2662 4.67074 28.2662 4.67074 28.2662 4.70386C28.2993 4.67074 28.3324 4.67074 28.3656 4.67074C28.465 4.70386 28.5644 4.70386 28.6307 4.70386C28.6638 4.70386 28.697 4.70386 28.7301 4.67074C28.7632 4.70386 28.7964 4.73699 28.8295 4.73699C28.8958 4.93574 28.8958 5.1345 28.8958 5.30013C28.8958 10.0371 28.8958 14.7741 28.8958 19.5111C28.8958 19.7099 28.8626 19.9086 28.9621 20.0742H28.9952C28.9952 20.0742 28.9952 20.0742 28.9952 20.1074C28.7632 20.1074 28.5313 20.1074 28.2993 20.1074C28.233 20.1074 28.1336 20.1074 28.0673 20.1074C27.9017 20.0411 27.736 20.0411 27.5371 20.0742C27.4709 20.0742 27.4377 20.0742 27.3715 20.0742C27.2389 20.008 27.1064 20.0411 26.9738 20.0411C26.6756 20.008 26.3442 19.9749 26.046 19.9086C25.0187 19.7099 24.0246 19.5442 22.9973 19.3455C22.0032 19.0473 21.0091 18.7823 20.015 18.4842C19.4185 18.2523 18.822 18.0204 18.2255 17.7886C18.093 17.7223 17.9936 17.6561 18.0599 17.4904C18.3581 16.6623 18.6895 15.8341 18.9877 15.006C19.2197 14.476 19.4848 13.9128 19.7167 13.3828C20.015 12.8528 20.2801 12.3228 20.5783 11.7597C20.6446 11.6603 20.7108 11.5609 20.7771 11.4615C20.8103 11.3953 20.8765 11.2959 20.9097 11.2296C21.1085 10.9315 21.3073 10.6334 21.5061 10.3021C21.6387 10.269 21.705 10.1696 21.7712 10.1034C21.9369 9.87149 22.1358 9.63961 22.3014 9.3746C22.3014 9.34147 22.3346 9.27522 22.3014 9.2421C22.666 9.01022 22.8979 8.71208 23.0636 8.31458C23.163 8.31458 23.2293 8.24832 23.2956 8.18207C23.4944 7.91707 23.7595 7.68518 23.9583 7.4533C23.9914 7.42018 23.9914 7.35393 23.9914 7.3208C24.0246 7.3208 24.0577 7.28768 24.0909 7.25455C24.0909 7.22142 24.124 7.22142 24.124 7.22142C24.1571 7.1883 24.1903 7.15517 24.2234 7.12205C24.2565 7.12205 24.2897 7.08892 24.3228 7.08892C24.5216 6.98954 24.6873 6.85704 24.7867 6.65829C25.0187 6.65829 25.1513 6.45953 25.3169 6.32703C25.3501 6.2939 25.4164 6.26078 25.4495 6.22765C25.5158 6.19452 25.5489 6.12827 25.6152 6.09515C25.8803 5.89639 26.2116 5.76389 26.4105 5.49888C26.5099 5.56513 26.5762 5.49888 26.6424 5.43263C27.0069 5.20075 27.4377 5.10137 27.7691 4.83637C28.0011 4.83637 28.1336 4.77011 28.2662 4.70386ZM57.3276 32.7614C57.2945 32.8939 57.3276 33.0595 57.2945 33.1921C57.2614 33.2914 57.2614 33.3908 57.2614 33.4902C57.2614 33.6227 57.2614 33.7221 57.2614 33.8546C57.2614 33.8877 57.2614 33.9208 57.2945 33.9539C57.2614 33.9871 57.2282 34.0202 57.2282 34.0533C57.1951 34.1527 57.2282 34.2852 57.1619 34.3846C57.1619 34.4508 57.1288 34.5171 57.1288 34.5833C57.1288 34.6827 57.1288 34.8152 57.0625 34.9146C56.93 35.4446 56.8306 35.9746 56.7974 36.5046C56.7974 36.5378 56.8306 36.5378 56.8306 36.5709C56.6649 36.8028 56.3335 38.0284 56.3998 38.2603C56.3998 38.2603 56.3998 38.2603 56.4329 38.2934V38.3265C56.3998 38.3265 56.3998 38.3265 56.3666 38.2934C56.3335 38.3265 56.3335 38.3265 56.3004 38.3597C56.1015 38.9559 55.9027 39.5853 55.7039 40.1816C55.6708 40.2478 55.6708 40.3141 55.7039 40.3803C55.4057 40.8772 55.2068 41.4072 55.0412 41.9704V42.0035C54.9417 42.0035 54.9086 42.136 54.8755 42.2023C54.7429 42.5004 54.5772 42.7985 54.4447 43.0967C54.3784 43.2623 54.2127 43.4279 54.2127 43.6267C54.2127 43.6267 54.2127 43.6598 54.2459 43.6598C53.9808 43.8254 53.8482 44.0904 53.8482 44.3886C53.7819 44.4217 53.7488 44.4548 53.7488 44.5211C53.7488 44.5542 53.7488 44.5873 53.7488 44.6204C53.6825 44.7198 53.6494 44.8192 53.5831 44.8855C53.5831 44.8855 53.5831 44.8855 53.55 44.8855C53.4506 44.9186 53.4174 44.9848 53.3511 45.0842C53.1855 45.3823 52.9866 45.6473 52.8209 45.9123C52.7547 46.0449 52.6221 46.1774 52.589 46.343V46.3761C52.357 46.5086 52.2245 46.7074 52.1913 46.9724C52.0257 47.0386 51.8931 46.9724 51.7606 46.873C51.6611 46.7736 51.5286 46.6742 51.396 46.5749C50.5345 45.9123 49.6066 45.283 48.6788 44.7198C48.5462 44.6536 48.4468 44.5542 48.2811 44.5542C48.1817 44.4879 48.0823 44.4217 47.9829 44.3223C48.248 43.5273 48.4468 42.7323 48.6125 41.9041C48.8445 41.076 49.0102 40.2478 49.1096 39.4197C49.1096 39.3866 49.1427 39.3203 49.1427 39.2872C49.2752 38.6247 49.3747 37.9622 49.4409 37.2996C49.5072 36.9353 49.5735 36.604 49.5735 36.2396C49.6729 35.4446 49.7392 34.6827 49.7723 33.8877C49.8386 33.5564 49.8386 33.2583 49.8055 32.927C49.8055 32.7945 49.8054 32.6952 49.8386 32.5627C49.8386 32.5627 49.8386 32.5627 49.8386 32.5958C50.0043 32.6952 50.17 32.662 50.3356 32.662C52.5227 32.662 54.6766 32.662 56.8637 32.662C57.0294 32.662 57.1951 32.662 57.3608 32.6952C57.3939 32.6952 57.427 32.7283 57.4602 32.7614C57.3276 32.6952 57.3276 32.7283 57.3276 32.7614ZM8.45003 15.271C8.45003 15.271 8.45003 15.3041 8.45003 15.271C8.45003 15.3041 8.45003 15.271 8.45003 15.271ZM18.9214 15.0391C18.9546 15.0391 18.9214 15.0391 18.9214 15.0391V15.0391ZM35.0262 42.7323C35.0262 42.7323 35.0593 42.7323 35.0262 42.7323C35.0593 42.7323 35.0593 42.7323 35.0262 42.7323ZM25.7809 20.3061C25.814 20.3061 25.814 20.273 25.8471 20.273C25.814 20.273 25.814 20.273 25.7809 20.3061ZM28.7964 22.2274C28.7964 22.2274 28.7632 22.2274 28.7964 22.2274V22.2274ZM9.94121 30.6082C9.97434 30.6414 10.0075 30.6745 10.0406 30.7076C9.97434 30.6745 9.94121 30.6414 9.94121 30.6082ZM11.0679 31.6683C11.0016 31.6683 10.9353 31.602 10.9353 31.5358C10.9685 31.602 11.0016 31.6351 11.0679 31.6683ZM10.4383 31.072C10.4714 31.1051 10.5045 31.1382 10.5377 31.1714C10.4714 31.1714 10.4383 31.1383 10.4383 31.072ZM5.20257 37.6309C5.20257 37.5978 5.20257 37.5978 5.20257 37.6309C5.20257 37.5978 5.20257 37.5978 5.20257 37.6309C5.20257 37.5978 5.20257 37.5978 5.20257 37.6309ZM26.0791 22.8899C26.6756 23.0224 27.272 23.0556 27.8685 23.0887C28.1336 23.1549 28.4319 23.1549 28.697 23.1549C28.9289 23.1549 29.0283 23.2543 29.0283 23.4862C29.0283 25.3744 29.0283 27.2625 29.0283 29.1176C29.0283 29.217 29.0283 29.3163 28.9952 29.4157C28.962 29.4157 28.9621 29.4157 28.9621 29.4157C28.233 29.4157 27.4709 29.4157 26.7418 29.4157C25.4164 29.4157 24.0909 29.4157 22.7654 29.4157C20.6446 29.4157 18.5238 29.4157 16.3699 29.4157C16.2704 29.4157 16.171 29.4157 16.0716 29.4157C16.0716 29.3826 16.0716 29.3826 16.0385 29.3495C16.0716 28.7863 16.0716 28.2563 16.1048 27.6932C16.1048 27.6269 16.1379 27.5607 16.1379 27.4944C16.2042 27.0638 16.2373 26.6331 16.2373 26.2025C16.3367 25.4075 16.4361 24.5793 16.5355 23.7843C16.6018 23.6849 16.6018 23.6187 16.5687 23.5193C16.5687 23.4862 16.5687 23.4531 16.5687 23.4199C16.7012 22.7906 16.8006 22.128 16.9332 21.4986C16.9332 21.4986 16.9332 21.4986 16.9332 21.4655L16.9663 21.4986C17.1652 21.2668 17.1652 20.9686 17.1983 20.7036C17.1983 20.6705 17.1983 20.6374 17.1652 20.6042L17.1983 20.5711C17.1983 20.5711 17.2314 20.5711 17.2646 20.5711C17.2977 20.5711 17.2977 20.5711 17.3308 20.5711C18.2587 21.0018 19.2197 21.333 20.2138 21.598C20.3795 21.6974 20.5783 21.7305 20.7771 21.7637C20.8765 21.8299 20.9759 21.863 21.0754 21.8299C21.1085 21.8299 21.1748 21.863 21.2079 21.863C21.473 21.9624 21.7381 22.0618 22.0032 22.0618C22.0363 22.0618 22.0363 22.0949 22.0695 22.0949C22.5003 22.2274 22.9642 22.3599 23.395 22.393C24.3228 22.658 25.1844 22.8237 26.0791 22.8899ZM46.0941 37.134C46.0941 37.134 46.1272 37.134 46.0941 37.134C46.1272 37.134 46.1272 37.134 46.0941 37.134ZM47.9498 32.2645C47.9829 32.2977 48.016 32.3308 48.0492 32.3639C47.9829 32.3308 47.9829 32.2977 47.9498 32.2645ZM47.519 31.8008C47.4858 31.8008 47.4858 31.7676 47.4527 31.7345C47.4858 31.7676 47.4858 31.8008 47.519 31.8008ZM46.9556 31.2708C46.9888 31.3039 47.0219 31.337 47.055 31.3701C46.9888 31.337 46.9556 31.3039 46.9556 31.2708ZM46.4586 30.7407C46.4917 30.7739 46.5248 30.807 46.558 30.8401C46.4917 30.8401 46.4917 30.807 46.4586 30.7407ZM45.8952 25.3412C45.8952 25.3412 45.8952 25.3744 45.8952 25.3412C45.8952 25.3744 45.8952 25.3744 45.8952 25.3412C45.8952 25.3744 45.8952 25.3412 45.8952 25.3412ZM46.0278 27.8919C46.0278 27.925 46.0278 27.925 46.0278 27.8919C46.0278 27.925 46.0278 27.925 46.0278 27.8919C46.0278 27.925 46.0278 27.8919 46.0278 27.8919ZM45.9947 28.4551C45.9947 28.4551 45.9947 28.4882 45.9947 28.4551V28.4551ZM18.5901 54.1938C18.4244 54.0944 18.2918 53.995 18.093 53.995C18.0599 53.8957 17.9936 53.8625 17.8942 53.7963C17.3308 53.465 16.7675 53.1669 16.2373 52.8025C16.171 52.7363 16.0716 52.7031 15.9722 52.7031C15.6077 52.4381 15.2763 52.1731 14.9118 51.9412C14.9118 51.9412 14.9118 51.9412 14.9118 51.9081C14.8787 51.7756 14.7461 51.7094 14.6467 51.61C14.0834 51.1462 13.52 50.6825 12.9567 50.1525C12.6916 49.8874 12.4265 49.6224 12.1283 49.4237C12.062 49.2249 11.83 49.1256 11.8632 48.8605H11.8963C12.0289 48.7612 12.1614 48.6618 12.3271 48.5293C12.4928 48.3968 12.6585 48.2974 12.8242 48.1649C12.9236 48.1318 13.023 48.0655 13.1224 47.9661C13.3212 47.8668 13.4869 47.7674 13.6526 47.6018C13.8183 47.5024 13.984 47.403 14.1497 47.2705C14.2822 47.138 14.5142 47.138 14.6467 46.9724C14.713 46.9393 14.7793 46.9061 14.8455 46.9393C15.0112 47.0718 14.9781 47.3699 15.1769 47.4693C15.1438 47.8005 15.3426 48.0324 15.442 48.3305C15.4751 48.4299 15.5083 48.5293 15.6408 48.5624C15.6408 48.5624 15.6408 48.5624 15.6408 48.5955C15.674 48.9599 15.8397 49.2912 16.0716 49.5893C16.0385 49.6556 16.0716 49.7218 16.1048 49.7881C16.3367 50.2518 16.5687 50.7156 16.8006 51.1462C16.8338 51.2125 16.8669 51.2787 16.9663 51.2787C16.9663 51.4112 17.0326 51.5106 17.0989 51.61C17.364 52.0737 17.6291 52.5706 17.9604 53.0013C18.1261 53.2663 18.2587 53.5644 18.5238 53.7632C18.4906 54.0282 18.5901 54.0944 18.5901 54.1938ZM15.9722 34.8483C15.9391 34.8483 15.9391 34.8483 15.9722 34.8483V34.8483ZM14.8124 33.1258C14.8787 33.1258 14.9118 33.192 14.9449 33.2583C14.9118 33.2252 14.8787 33.192 14.8124 33.1258ZM14.3485 32.662C14.3816 32.662 14.4148 32.6952 14.4479 32.7614C14.4148 32.7283 14.3816 32.6952 14.3485 32.662ZM15.0112 35.6434C14.9449 35.6434 14.9118 35.5771 14.8787 35.5109C14.9118 35.5771 14.9449 35.6102 15.0112 35.6434ZM16.2704 36.604C16.2704 36.5709 16.2704 36.5709 16.3036 36.5709C16.3036 36.5709 16.3036 36.5709 16.2704 36.604C16.3036 36.5709 16.3036 36.604 16.2704 36.604ZM13.9508 32.2645C13.9177 32.2314 13.8846 32.1983 13.8183 32.132C13.9177 32.1651 13.9508 32.1983 13.9508 32.2645ZM16.1048 36.4715C16.1048 36.4715 16.1048 36.4384 16.1048 36.4715C16.1048 36.4384 16.1379 36.4384 16.1048 36.4715C16.1379 36.4715 16.1379 36.4715 16.1048 36.4715ZM16.0716 34.5833C16.0716 34.5833 16.0716 34.5502 16.0716 34.5833C16.0716 34.5502 16.0716 34.5502 16.0716 34.5502C16.0716 34.5502 16.0716 34.5502 16.0716 34.5833ZM19.8161 32.3639H19.783V32.3308L19.8161 32.3639ZM19.7167 29.6476C19.6836 29.6476 19.6836 29.6476 19.7167 29.6476C19.6836 29.6145 19.6836 29.6145 19.7167 29.6476ZM18.1593 32.2645C18.1924 32.2645 18.1924 32.2645 18.2255 32.2645C18.1924 32.2645 18.1593 32.2645 18.1593 32.2645C18.1593 32.2645 18.1261 32.2645 18.1593 32.2645C18.1593 32.3308 18.093 32.2645 18.1593 32.2645ZM21.0091 29.6145C21.0091 29.6145 21.0422 29.6145 21.0091 29.6145C21.0422 29.6476 21.0422 29.6476 21.0091 29.6145ZM18.5238 29.6145C18.5569 29.6476 18.4906 29.6476 18.5238 29.6145V29.6145ZM29.2271 26.3681C29.2271 26.4013 29.2271 26.4013 29.2271 26.4344C29.2271 26.4344 29.2271 26.4013 29.2271 26.3681ZM29.2271 26.4013C29.194 26.4013 29.194 26.4013 29.2271 26.4013C29.1609 26.4013 29.194 26.3681 29.2271 26.4013C29.2271 26.3681 29.2271 26.4013 29.2271 26.4013ZM16.0053 26.0369C16.0053 26.07 16.0053 26.07 16.0053 26.1031C16.0053 26.07 16.0053 26.0369 16.0053 26.0369ZM16.0053 25.6062C16.0053 25.6725 16.0053 25.7056 16.0053 25.7387C16.0053 25.7056 15.9722 25.6725 15.9391 25.6394C15.9722 25.6394 15.9722 25.6062 16.0053 25.6062ZM23.9583 40.4135C23.4281 40.3141 22.9642 40.5129 22.5003 40.6785C22.5003 40.6785 22.5003 40.7116 22.5003 40.7447C22.0032 40.7116 21.5061 40.811 21.0754 41.076C21.0754 41.1091 21.0754 41.1091 21.0754 41.1091H21.0422C20.9759 41.0429 20.8765 41.0429 20.7771 41.076C20.3463 41.2085 19.9156 41.341 19.4848 41.4735C19.3854 41.5066 19.3191 41.5397 19.2528 41.6391C18.7226 41.7054 18.2255 41.9041 17.7285 42.1691C17.7285 42.2023 17.6953 42.2354 17.6953 42.2685C17.6622 42.3016 17.5959 42.3016 17.5628 42.3348C17.5297 42.3016 17.4965 42.2685 17.4303 42.2685C17.3971 42.1029 17.364 41.9704 17.3308 41.8379C17.3308 41.7716 17.3308 41.7385 17.364 41.6723C17.2314 40.8772 16.9995 40.0822 16.8669 39.2872C16.8669 39.2209 16.8338 39.1878 16.7675 39.1547L16.7344 39.1878C16.7344 39.1878 16.7344 39.1878 16.7675 39.1547C16.8338 39.0553 16.8338 38.9891 16.7344 38.8897H16.7012C16.7012 38.8897 16.7012 38.8897 16.7012 38.8566C16.7012 38.7572 16.6681 38.6247 16.6681 38.5253C16.6681 38.4591 16.6681 38.3928 16.7012 38.3265C16.7012 37.929 16.6018 37.5647 16.5687 37.2003C16.5355 37.0346 16.5687 36.8359 16.4361 36.6703L16.403 36.6371C16.403 36.604 16.403 36.5709 16.403 36.5378C16.4361 36.4384 16.4361 36.3721 16.4361 36.2727C16.4361 36.2396 16.403 36.2065 16.403 36.1402C16.403 36.1071 16.403 36.074 16.4361 36.0409C16.403 35.6102 16.4361 35.1796 16.3036 34.749C16.2704 34.749 16.2704 34.7158 16.2373 34.7158C16.2373 34.5502 16.2704 34.3515 16.2042 34.1858C16.2042 34.1196 16.2042 34.0202 16.2042 33.9539C16.171 33.4902 16.171 32.9933 16.1379 32.5295C17.1983 32.5295 18.2918 32.5295 19.3522 32.5295C22.5003 32.5295 25.6483 32.5295 28.7632 32.5295C28.9289 32.5295 29.0946 32.4633 29.0946 32.7614C29.0946 35.1133 29.0946 37.4984 29.0946 39.8503C28.6307 39.8835 28.1336 39.8835 27.6697 39.9828C27.6034 39.9828 27.504 39.9828 27.4377 39.9828C27.3715 39.9828 27.3052 39.9828 27.2389 39.9828C27.2058 39.9497 27.1395 39.9497 27.0069 39.9497C26.0791 39.9828 25.1844 40.1485 24.2897 40.3141C24.2234 40.3141 24.1571 40.3472 24.0909 40.4135C24.0909 40.4466 24.0909 40.4466 24.0909 40.4797C23.9914 40.4135 23.9583 40.4135 23.9583 40.4135ZM27.9017 39.9166C27.9348 39.9497 27.9348 39.9497 27.9017 39.9166C27.9348 39.9497 27.9348 39.9497 27.9017 39.9166C27.9017 39.9497 27.9348 39.9497 27.9017 39.9166C27.9017 39.9497 27.9017 39.9497 27.9017 39.9166C27.9017 39.9497 27.9017 39.9497 27.9017 39.9166C27.9017 39.9497 27.9017 39.9497 27.9017 39.9166C27.9017 39.9497 27.9017 39.9497 27.9017 39.9166C27.9017 39.9166 27.9017 39.9497 27.9017 39.9166ZM27.9017 39.9497C27.9017 39.9497 27.9348 39.9497 27.9017 39.9497C27.9348 39.9497 27.9017 39.9497 27.9017 39.9497C27.8685 39.9497 27.8354 39.9497 27.8354 39.9497C27.8685 39.9497 27.9017 39.9497 27.9017 39.9497ZM29.1277 46.5086C29.1277 46.5086 29.1277 46.4755 29.1277 46.5086C29.1277 46.4755 29.1277 46.4755 29.1277 46.5086ZM43.3768 30.3764C43.4099 30.4095 43.4099 30.4095 43.4431 30.4426C43.4099 30.4426 43.3768 30.4095 43.3768 30.3764ZM15.9722 28.8194C15.9722 28.7532 15.9722 28.6869 15.9722 28.5876C15.9722 28.5876 15.9722 28.5876 15.9722 28.5544C15.9722 28.6538 15.9722 28.7201 15.9722 28.8194ZM13.4538 31.7676C13.4206 31.7345 13.3875 31.7014 13.3544 31.6683C13.4206 31.7014 13.4538 31.7014 13.4538 31.7676ZM18.4575 46.2767C18.4575 46.3099 18.4575 46.3099 18.4575 46.343C18.4575 46.3099 18.4244 46.3099 18.4575 46.2767C18.4244 46.2767 18.4575 46.2767 18.4575 46.2767ZM14.8787 45.2167C14.8124 45.1836 14.7793 45.1173 14.7461 45.0842C14.8124 45.0842 14.8455 45.1173 14.8787 45.2167ZM18.7226 49.0262C18.7889 49.0262 18.822 49.0924 18.822 49.1256C18.7889 49.0924 18.7557 49.0593 18.7226 49.0262ZM44.636 29.5482C44.636 29.5151 44.636 29.5151 44.636 29.5482C44.636 29.5151 44.636 29.5151 44.636 29.5482C44.6692 29.5151 44.6692 29.5482 44.636 29.5482ZM32.7066 29.3163C32.7397 29.3163 32.7397 29.3163 32.7066 29.3163C32.7397 29.3163 32.7397 29.3163 32.7066 29.3163ZM12.8573 31.1714C12.9236 31.1714 12.9567 31.2376 12.9567 31.3039C12.9236 31.2376 12.8904 31.2045 12.8573 31.1714ZM8.31748 44.9848C8.31748 45.018 8.31748 45.018 8.31748 44.9848C8.31748 45.018 8.31748 45.018 8.31748 44.9848C8.31748 45.018 8.31748 45.018 8.31748 44.9848C8.31748 45.018 8.31748 44.9848 8.31748 44.9848ZM26.7087 56.5126C26.4436 56.3801 26.2448 56.1814 25.9466 56.1482C25.7809 55.9163 25.5158 55.817 25.3169 55.6513C25.2838 55.6182 25.2175 55.5851 25.1844 55.5851C25.1513 55.5851 25.1513 55.5851 25.1181 55.552L25.085 55.5188C25.0518 55.4857 25.0518 55.4526 25.0187 55.4195C23.892 54.4919 22.9311 53.3657 22.0363 52.1731C21.9369 52.0406 21.8044 51.9081 21.7381 51.7425C21.705 51.6762 21.6387 51.61 21.6056 51.5437C21.6056 51.5106 21.5724 51.5106 21.5724 51.4775C21.5061 51.3781 21.4399 51.3119 21.3736 51.2125C21.3736 51.1794 21.3405 51.1794 21.3405 51.1462C21.241 51.0469 21.2079 50.8481 21.0091 50.815C21.0422 50.7156 20.9759 50.6493 20.9428 50.5831C20.9428 50.55 20.9097 50.55 20.9097 50.5168C20.8765 50.4506 20.8434 50.3843 20.8103 50.3512C20.512 49.7218 20.1475 49.0924 19.8161 48.463C19.7499 48.3637 19.7167 48.198 19.5842 48.1649C19.1865 47.2705 18.7889 46.3761 18.4575 45.4486C18.4575 45.4155 18.3912 45.3823 18.3581 45.3492C18.3581 45.283 18.3581 45.2498 18.4244 45.2167C18.6232 45.1505 18.822 45.0511 19.054 44.9848C19.9818 44.6536 20.9097 44.3554 21.8375 44.0573C22.1358 43.9911 22.4671 43.8917 22.7654 43.8254C23.395 43.6929 24.0577 43.5604 24.6873 43.3948C25.582 43.2623 26.4767 43.1298 27.3383 43.0304C27.8022 42.9973 28.233 42.9973 28.697 42.931C28.962 42.8979 29.0283 42.9642 29.0283 43.2292C29.0283 47.8337 29.0283 52.4381 29.0283 57.0426C29.0283 57.2745 28.962 57.3408 28.8295 57.3739C28.7964 57.3408 28.7632 57.3408 28.697 57.3408C28.6638 57.3408 28.6307 57.3408 28.5975 57.3739C27.9348 57.1089 27.3052 56.8107 26.7087 56.5126ZM46.0941 36.6703C46.0941 36.6371 46.1272 36.6371 46.0941 36.6703C46.1272 36.6371 46.1272 36.6371 46.0941 36.6703C46.1272 36.6703 46.1272 36.6703 46.0941 36.6703ZM44.0064 20.3061C44.0064 20.273 44.0064 20.3061 44.0064 20.3061V20.3061ZM42.2833 21.333C42.2833 21.2999 42.3164 21.2668 42.3164 21.2668C42.3827 21.2336 42.4821 21.2005 42.5484 21.2005C42.5815 21.2005 42.6478 21.2005 42.6809 21.2005C43.178 21.1011 43.6419 20.8693 44.1058 20.6705C44.1721 20.6374 44.2052 20.6042 44.2384 20.5711H44.2715C44.6692 20.5049 44.6692 20.5049 44.7354 20.8693C44.7686 21.0018 44.8017 21.1674 44.8348 21.2999C44.868 21.3661 44.868 21.4655 44.9674 21.4655C44.8348 21.863 45.0337 22.2274 45.1331 22.5918C45.1331 22.6249 45.1331 22.658 45.1331 22.6912C45.1994 23.4862 45.365 24.2812 45.4645 25.0431C45.4976 25.2087 45.4645 25.3744 45.5639 25.5069C45.597 25.5069 45.597 25.5069 45.6301 25.5069C45.6301 25.5069 45.6301 25.5069 45.6301 25.54C45.6301 25.5731 45.6301 25.6394 45.6301 25.6725C45.597 25.7056 45.597 25.7719 45.5639 25.805C45.5639 25.9044 45.5307 25.9706 45.597 26.0369C45.597 26.07 45.597 26.1363 45.597 26.1694C45.597 26.8981 45.7296 27.5938 45.7296 28.2894C45.7296 28.3557 45.7296 28.4551 45.7958 28.4882C45.7958 28.5213 45.7958 28.5213 45.7958 28.5544C45.7627 28.7863 45.8621 29.0513 45.7296 29.2832C45.6301 29.3495 45.5307 29.3495 45.3982 29.3495C45.1662 29.3495 44.9343 29.3163 44.7023 29.3826C44.636 29.3826 44.5697 29.3826 44.5035 29.3826C44.4041 29.3495 44.3046 29.3495 44.2052 29.3495C43.3768 29.3495 42.5152 29.3495 41.6868 29.3495C41.5542 29.3495 41.3886 29.3495 41.256 29.3826C39.566 29.3826 37.876 29.3826 36.186 29.3826C35.0593 29.3826 33.9658 29.3826 32.8391 29.3826C32.8391 29.3163 32.806 29.2832 32.806 29.217C32.8391 29.1838 32.8391 29.1507 32.8723 29.0844C32.8723 29.0513 32.8723 29.0182 32.8723 28.9851C32.8723 27.1632 32.8723 25.3081 32.8723 23.4862C32.8723 23.3868 32.8723 23.2874 32.806 23.1881L32.8391 23.1549C33.1374 23.0887 33.4687 23.0887 33.767 23.0224C33.8995 22.9562 34.0652 22.9893 34.1978 22.9893C34.264 22.9893 34.3303 22.9893 34.3634 22.9562C34.3966 22.9562 34.4297 22.9562 34.4297 22.9893C34.9268 22.9893 35.3907 22.9231 35.8546 22.7906C35.8546 22.7574 35.8878 22.7574 35.8878 22.7243C35.9209 22.7574 35.954 22.7906 36.0203 22.7906C36.5836 22.7243 37.147 22.6912 37.644 22.4924C37.644 22.4593 37.644 22.4262 37.644 22.4262C37.644 22.4262 37.6772 22.4262 37.6772 22.4593C37.7766 22.5587 37.876 22.5255 37.9754 22.4924C38.5719 22.3599 39.1352 22.2605 39.6986 22.0949C39.798 22.0618 39.9305 22.0287 39.9968 21.9293C40.0299 21.9293 40.0631 21.9293 40.0631 21.9624C40.6927 21.863 41.256 21.6311 41.8525 21.4324C41.9188 21.4324 41.9519 21.3993 41.985 21.333C42.1507 21.3993 42.217 21.3993 42.2833 21.333ZM12.062 32.4633C12.2277 32.4633 12.2608 32.5295 12.2608 32.6952C12.2608 33.0264 12.2608 33.3577 12.3271 33.6889C12.3271 34.2852 12.3602 34.8483 12.4596 35.4446C12.5259 36.4384 12.6253 37.4322 12.8242 38.3928C12.8242 38.4259 12.8242 38.4922 12.8573 38.5253C12.9898 39.7178 13.2218 40.9104 13.52 42.0698C13.5863 42.5004 13.6857 42.8979 13.8183 43.2954C13.7851 43.4279 13.8514 43.5604 13.8846 43.6598C13.984 43.8917 13.9177 43.9911 13.7189 44.0904C13.5532 44.1567 13.4206 44.2561 13.2549 44.3554C13.2549 44.3554 13.2218 44.3554 13.2218 44.3223C12.9898 44.3554 12.8242 44.4879 12.6585 44.6867C12.6585 44.6867 12.6585 44.6867 12.6585 44.7198C12.6253 44.753 12.5591 44.7861 12.5259 44.8192C12.4928 44.8523 12.4596 44.8855 12.4265 44.8855C12.2608 44.9186 12.1614 45.018 12.0289 45.1173C11.83 45.2167 11.6312 45.3492 11.4655 45.4817C11.2998 45.5811 11.1342 45.6805 10.9685 45.813C10.8691 45.8792 10.7696 45.9786 10.6702 46.0449C10.5377 46.1442 10.4383 46.2105 10.3057 46.3099C10.14 46.4424 9.94121 46.5417 9.80866 46.7074C9.77552 46.7074 9.74238 46.7074 9.70925 46.7074C9.67611 46.608 9.64297 46.5086 9.54356 46.4755V46.4424C9.54356 46.3761 9.54356 46.343 9.51042 46.3099C9.27846 45.9123 9.01336 45.5811 8.74826 45.1836C8.71513 45.1505 8.68199 45.1173 8.61571 45.1173C8.54944 44.7529 8.28434 44.4879 8.11865 44.1567C8.01924 43.9911 7.9861 43.7592 7.78728 43.6929C7.78728 43.6929 7.78728 43.6929 7.78728 43.6598C7.78728 43.5935 7.78728 43.5604 7.75414 43.4942C7.52218 42.9973 7.25708 42.5335 7.02512 42.0366C6.99198 41.9704 6.95885 41.9041 6.85943 41.9041C6.79316 41.6723 6.69375 41.4735 6.5612 41.2416C6.5612 41.2085 6.5612 41.2085 6.5612 41.1754C6.46178 40.7779 6.32924 40.4135 6.16355 40.0491C6.13041 39.9497 6.09727 39.8172 5.96472 39.7841C5.96472 39.7841 5.96472 39.7841 5.93159 39.7841C5.96472 39.3866 5.7659 39.0553 5.66649 38.6909C5.66649 38.6578 5.63335 38.6247 5.60021 38.6247C5.60021 38.5916 5.60021 38.5916 5.60021 38.5584C5.56708 38.3928 5.53394 38.2272 5.5008 38.0615C5.40139 37.8297 5.43453 37.5315 5.2357 37.3328C5.2357 37.2996 5.2357 37.2665 5.2357 37.2665C5.13629 36.5046 4.93747 35.7759 4.83805 35.014C4.83805 34.9477 4.80492 34.8815 4.73864 34.8152C4.7055 34.8152 4.7055 34.8483 4.7055 34.8483V34.8152C4.77178 34.749 4.77178 34.6827 4.77178 34.6165C4.7055 34.0864 4.7055 33.5564 4.53982 33.0595C4.53982 33.0264 4.50668 33.0264 4.50668 33.0264C4.63923 32.8608 4.57296 32.662 4.53982 32.4633V32.4302C4.57296 32.4302 4.57296 32.4302 4.60609 32.4302C7.15767 32.4964 9.60983 32.4964 12.062 32.4633ZM28.7632 59.0633C28.7301 59.0302 28.6638 58.9639 28.6307 58.9308C28.697 58.9639 28.7301 58.997 28.7632 59.0633ZM50.1368 12.8528C50.3025 13.0516 50.4351 13.1841 50.17 13.3828C50.1368 13.4159 50.1037 13.4822 50.1037 13.5153C49.8386 13.7141 49.5735 13.946 49.3415 14.1447C49.2752 14.1778 49.2421 14.211 49.1758 14.2772C49.1427 14.3103 49.1096 14.3103 49.0764 14.3435C48.6456 14.6416 48.2149 14.9397 47.7841 15.271V15.2379C47.5852 15.2379 47.4858 15.4035 47.3201 15.4697C47.1876 15.1385 47.0882 14.8072 46.9556 14.476C46.9225 14.3766 46.8894 14.2772 46.7568 14.211C46.7568 14.211 46.7568 14.211 46.7568 14.1778C46.79 14.0785 46.7568 13.9791 46.6574 13.946C46.6243 13.946 46.6243 13.946 46.6243 13.946C46.6243 13.946 46.6243 13.9128 46.6574 13.9128C46.6574 13.8466 46.6574 13.8135 46.5911 13.7803C46.558 13.7472 46.5248 13.7141 46.5248 13.6478C46.4586 13.4822 46.3923 13.3497 46.326 13.1841C46.326 13.1178 46.2929 13.0516 46.2929 12.9853C46.0609 12.2897 45.6964 11.6272 45.365 10.9646C45.3319 10.9315 45.2988 10.8984 45.2656 10.8984C45.3319 10.6996 45.1662 10.5671 45.0999 10.4015C44.7354 9.70586 44.3378 9.04334 43.907 8.41395C43.7744 8.28145 43.675 8.08269 43.5756 7.95019C43.5093 7.85081 43.4762 7.71831 43.3105 7.71831C43.3437 7.61893 43.4099 7.68518 43.4431 7.71831C43.7082 7.81769 43.907 8.01644 44.1721 8.08269C44.2384 8.08269 44.3046 8.0827 44.3378 8.14895C44.3378 8.18207 44.3709 8.18207 44.3709 8.2152C44.3709 8.24832 44.4041 8.24832 44.4041 8.24832C44.4703 8.28145 44.5366 8.31458 44.6029 8.38083C44.6692 8.41395 44.7023 8.44708 44.7686 8.41395C44.7686 8.51333 44.868 8.57958 44.9674 8.61271C45.1662 8.74521 45.3982 8.87771 45.597 9.01022C47.2539 10.1365 48.7451 11.3953 50.1368 12.8528ZM26.543 20.1736C26.543 20.2067 26.5099 20.2067 26.5099 20.2067C26.5099 20.1736 26.5099 20.1736 26.543 20.1736ZM23.0636 8.24832C23.0636 8.2152 23.0636 8.2152 23.0636 8.24832C23.0636 8.2152 23.0636 8.2152 23.0636 8.24832ZM12.2277 14.6747C12.294 14.7079 12.3602 14.741 12.3934 14.8072L12.4265 14.8404C12.3602 14.7741 12.294 14.7079 12.2277 14.6747ZM12.4596 30.7407C12.4265 30.7076 12.4265 30.7076 12.3934 30.6745C12.4265 30.7076 12.4596 30.7076 12.4596 30.7407ZM11.83 30.1776C11.9294 30.1776 11.9626 30.2439 11.9957 30.3432C11.9294 30.277 11.8963 30.2107 11.83 30.1776ZM4.47354 29.2501C4.47354 29.2501 4.50668 29.2832 4.47354 29.2501C4.47354 29.2832 4.47354 29.2832 4.47354 29.2832C4.47354 29.3163 4.47354 29.3495 4.47354 29.3826C4.47354 29.3495 4.47354 29.2832 4.47354 29.2501ZM2.84981 23.2543C2.91609 23.2874 2.94922 23.3206 2.98236 23.3868C2.91609 23.3537 2.88295 23.3206 2.84981 23.2543ZM29.7242 60.0239L29.6911 59.9908C29.6911 59.9908 29.7242 59.9908 29.7242 60.0239ZM33.4356 39.7841C33.2699 39.7841 33.1374 39.751 33.0048 39.8503C33.0048 39.6847 32.9717 39.5522 32.9717 39.3866C32.9717 37.2334 32.9717 35.1133 32.9717 32.9602C32.9717 32.5958 33.0048 32.5627 33.3693 32.5627C37.4121 32.5627 41.4217 32.5627 45.4645 32.5627C45.7296 32.5627 45.8952 32.6289 45.8952 32.927C45.9284 33.0264 45.9284 33.1589 45.9615 33.2914C45.7627 33.5233 45.8621 33.7883 45.8621 34.0202C45.8621 34.0533 45.8621 34.0864 45.8952 34.0864C45.8621 34.1527 45.8621 34.2189 45.8621 34.2521C45.8621 34.4508 45.8952 34.6496 45.829 34.8152C45.6964 35.3121 45.7296 35.8421 45.6301 36.3721C45.6301 36.4384 45.6301 36.5378 45.6964 36.604L45.7296 36.6371C45.6964 36.6371 45.6964 36.6371 45.6301 36.6371C45.4645 37.0678 45.4313 37.5315 45.4313 37.9953C45.4313 38.0284 45.4645 38.0284 45.4645 38.0615C45.365 38.1278 45.365 38.2272 45.3319 38.3265C45.2325 38.9891 45.0999 39.6516 44.9674 40.281C44.9343 40.3803 44.9011 40.5128 45.0005 40.6122C44.868 40.7116 44.868 40.8441 44.8348 40.9766C44.7686 41.341 44.6692 41.7054 44.5697 42.0698C44.5366 42.2023 44.5035 42.3016 44.4041 42.401C44.4041 42.401 44.4041 42.401 44.3709 42.401C44.3378 42.3348 44.2384 42.3016 44.1721 42.2685C43.6419 42.0366 43.0786 41.8379 42.5152 41.6391C42.449 41.606 42.3827 41.606 42.3164 41.6391C42.3164 41.606 42.2833 41.606 42.2833 41.5729C42.2501 41.5397 42.217 41.5066 42.1839 41.5066C41.3223 41.2085 40.4607 40.9766 39.5991 40.7447C39.4997 40.7116 39.4003 40.7116 39.334 40.7779C39.334 40.7447 39.3009 40.7447 39.3009 40.7116C39.2015 40.6785 39.1021 40.6785 39.0027 40.6785C38.9695 40.6785 38.9695 40.6785 38.9364 40.6785C38.9033 40.6454 38.837 40.6454 38.7707 40.6454C38.7376 40.546 38.6382 40.5129 38.5387 40.5129C37.8429 40.3472 37.1138 40.2147 36.418 40.1153C36.3185 40.1153 36.2191 40.0822 36.1529 40.1816C36.1529 40.1816 36.1197 40.1816 36.1197 40.2147C36.1197 40.1816 36.1197 40.1485 36.0866 40.1153C36.0534 40.0822 35.9872 40.0822 35.954 40.0491C35.0593 39.9166 34.2309 39.8172 33.4356 39.7841ZM43.7082 51.0137C43.675 50.9806 43.6419 50.9475 43.6088 50.9143C43.675 50.9475 43.7082 50.9806 43.7082 51.0137ZM44.2052 51.5106C44.1721 51.4775 44.139 51.4444 44.1058 51.4112C44.139 51.4112 44.2052 51.4775 44.2052 51.5106ZM48.3805 20.538V20.5049C48.4137 20.538 48.3805 20.538 48.3805 20.538ZM55.6376 20.7699C55.6376 20.7699 55.6376 20.803 55.6376 20.7699C55.6376 20.803 55.6376 20.803 55.6376 20.7699C55.6376 20.803 55.6376 20.7699 55.6376 20.7699ZM37.5778 7.12205C37.9423 7.42018 38.2405 7.75144 38.5719 8.08269C39.0027 8.54646 39.3672 9.07647 39.8311 9.5071C39.9305 9.60648 39.9968 9.70586 40.0631 9.80524C40.6264 10.5671 41.1235 11.4284 41.6205 12.2234C42.217 13.3497 42.7472 14.5091 43.2443 15.6685C43.2443 15.8341 43.3437 15.9666 43.4099 16.1323C43.5425 16.5629 43.7744 16.9604 43.8076 17.391C43.7744 17.4242 43.7413 17.4242 43.675 17.4573C43.3105 17.5898 42.9792 17.7554 42.6146 17.8879C42.5484 17.9211 42.4821 17.9211 42.449 17.9542C42.4158 17.9873 42.3495 17.9873 42.3164 18.0204C42.2501 18.0536 42.1839 18.0536 42.1507 18.0867C42.1176 18.1198 42.0513 18.1198 42.0182 18.1529C41.3554 18.3848 40.6927 18.5836 40.0299 18.8155C39.9968 18.8155 39.9637 18.8486 39.9305 18.8486C39.8974 18.8486 39.8311 18.8817 39.798 18.8817C39.1684 19.0473 38.5056 19.213 37.876 19.3786C37.147 19.5111 36.418 19.6436 35.6558 19.7761C35.6227 19.7761 35.5895 19.7761 35.5564 19.8092H35.5232C34.8605 19.8755 34.1646 19.9749 33.5019 20.0411H33.4687C33.4356 20.0411 33.4025 20.0411 33.3362 20.0742C33.1374 20.008 32.806 20.273 32.806 19.8424C32.806 18.8817 32.806 17.9542 32.806 16.9935C32.806 15.9666 32.806 14.9729 32.806 13.946C32.8391 12.7203 32.8391 11.4947 32.806 10.3021C32.806 9.67273 32.806 9.04334 32.806 8.41395C32.8391 7.95019 32.806 7.4533 32.806 6.98954C32.806 6.95642 32.806 6.89017 32.806 6.85704C32.806 6.79079 32.806 6.69141 32.806 6.62516C32.8391 6.45953 32.806 6.26078 32.8391 6.09515C32.8723 5.69764 32.806 5.30013 32.8723 4.90262C32.9054 4.83637 32.9054 4.77011 32.9054 4.70386H32.9385C33.303 4.73699 33.7007 4.80324 34.0652 4.83637C34.0983 4.83637 34.1315 4.80324 34.1646 4.80324C34.2309 4.83637 34.2972 4.86949 34.3634 4.90262C35.4238 5.36638 36.418 5.99577 37.2795 6.75766C37.3127 6.89017 37.4452 6.98954 37.5778 7.12205ZM30.7515 0.165629C30.7515 0.165629 30.7183 0.165629 30.7515 0.165629V0.165629ZM17.2646 7.98332C17.2646 7.98332 17.2314 7.98332 17.2646 7.98332C17.2314 7.98332 17.2646 7.98332 17.2646 7.98332ZM7.91983 18.2192C7.95297 18.1861 7.95297 18.1529 7.9861 18.1198C8.01924 17.9873 8.11865 17.8879 8.08552 17.7554C8.21806 17.7554 8.2512 17.656 8.28434 17.5898C8.31748 17.5567 8.31748 17.4904 8.35061 17.4573C8.41689 17.3579 8.48316 17.2585 8.54944 17.1592C8.64885 16.9935 8.74826 16.8279 8.84767 16.6623C8.94709 16.4635 9.14591 16.331 9.11277 16.0991C9.27846 15.9998 9.44415 16.0329 9.60983 16.1985C9.67611 16.2648 9.74238 16.2979 9.80866 16.3641C10.0075 16.4966 10.2063 16.6623 10.372 16.7948C10.7365 17.0598 11.101 17.3248 11.4655 17.5898C11.4987 17.6229 11.4987 17.6229 11.5318 17.6229C11.6643 17.6892 11.7638 17.7886 11.8963 17.8548C12.1614 18.0204 12.4596 18.2192 12.7247 18.3848C13.023 18.5504 13.2881 18.7823 13.6195 18.8486H13.6526C13.6857 18.8817 13.6857 18.9148 13.6857 18.948C13.6526 19.0142 13.6195 19.0473 13.5863 19.1136C13.4538 19.5111 13.3544 19.8755 13.3212 20.273C13.3544 20.3061 13.3544 20.3392 13.3544 20.4055C13.1555 21.2336 12.9898 22.0618 12.8573 22.9231C12.6916 23.6518 12.6253 24.3475 12.5591 25.0762C12.4265 26.0038 12.3271 26.9313 12.3271 27.8588C12.294 28.2894 12.2608 28.7201 12.2608 29.1507C12.2608 29.3826 12.1945 29.482 11.9626 29.482C10.7034 29.482 9.44415 29.482 8.18493 29.482C7.12453 29.482 6.06414 29.482 5.03688 29.482C5.00374 29.482 5.00374 29.4488 4.9706 29.4488C4.87119 29.4157 4.7055 29.4157 4.67237 29.2832C4.7055 29.217 4.73864 29.1507 4.73864 29.0844C4.73864 28.7201 4.83805 28.3557 4.80492 27.9913C4.80492 27.8588 4.77178 27.7263 4.83805 27.5938C4.83805 27.5607 4.83805 27.4944 4.83805 27.4613C4.90433 27.4282 4.90433 27.3619 4.90433 27.2625C4.9706 26.8319 5.07002 26.3681 5.10315 25.9375V25.9044C5.13629 25.8712 5.13629 25.8381 5.16943 25.7719C5.26884 25.275 5.40139 24.8112 5.5008 24.3143C5.53394 24.215 5.53394 24.1156 5.46766 24.0493C5.5008 24.0493 5.5008 24.0493 5.5008 24.0493C5.56708 24.0162 5.56708 23.95 5.60021 23.8837C5.73276 23.4531 5.89845 23.0224 5.99786 22.5587C6.06414 22.3268 6.19669 22.128 6.13041 21.863C6.13041 21.863 6.13041 21.863 6.16355 21.863C6.26296 21.8299 6.2961 21.7305 6.32924 21.6311C6.5612 21.0018 6.8263 20.3724 7.12453 19.7761C7.19081 19.6105 7.29022 19.478 7.25708 19.2792C7.38963 19.2461 7.38963 19.1136 7.45591 19.0142C7.65473 18.7492 7.75414 18.4511 7.91983 18.2192ZM33.1374 57.2083C33.0379 57.2083 32.9385 57.2083 32.9054 57.3076C32.9054 57.3076 32.9054 57.3408 32.9385 57.3408C32.9385 57.3408 32.9385 57.3408 32.9054 57.3408C32.8723 57.3076 32.8723 57.3076 32.8391 57.2745C32.8391 57.2082 32.806 57.142 32.806 57.0757C32.806 57.0426 32.806 57.0426 32.806 57.0095C32.806 56.8107 32.806 56.612 32.806 56.4132C32.806 56.3801 32.806 56.3801 32.806 56.347C32.806 55.3863 32.806 54.4257 32.7728 53.465C32.7728 53.2994 32.806 53.1338 32.806 52.9681C32.806 51.7425 32.806 50.5168 32.806 49.2912C32.8391 49.0262 32.806 48.7612 32.806 48.463C32.806 47.8999 32.806 47.3699 32.806 46.8067C32.806 46.7736 32.806 46.7074 32.806 46.6742C32.806 45.4155 32.806 44.1567 32.806 42.8979C32.8723 42.7654 33.0048 42.7985 33.1042 42.8316C33.8001 42.8979 34.496 42.9642 35.1919 43.0304C35.7221 43.1298 36.2854 43.2292 36.8156 43.3285C37.5446 43.461 38.2405 43.6267 38.9364 43.7923C39.566 43.9911 40.1956 44.1567 40.8252 44.3554C41.4548 44.5873 42.1176 44.8192 42.7472 45.0842C42.9792 45.1836 43.3437 45.2167 43.4431 45.4155C43.5425 45.6142 43.3105 45.8792 43.2443 46.1111V46.1442C43.0454 46.5749 42.8797 47.0055 42.6809 47.4361C42.3827 48.0655 42.0513 48.728 41.7531 49.3574C41.7862 49.3906 41.7862 49.4237 41.7862 49.4568C41.7531 49.4237 41.7531 49.4237 41.7531 49.3574C41.5211 49.7881 41.256 50.2187 41.024 50.6493C41.024 50.6493 41.024 50.6493 40.9909 50.6493C40.8915 50.7156 40.8252 50.815 40.7589 50.8812C40.527 51.2125 40.295 51.5769 40.0631 51.9081C39.9637 52.0075 39.8974 52.1069 39.8311 52.2394C39.7317 52.405 39.5329 52.5044 39.5329 52.7363C39.4666 52.7363 39.4335 52.7694 39.4003 52.8025C39.1684 53.0675 38.9364 53.3325 38.7376 53.6307C38.7376 53.6969 38.7044 53.7632 38.6382 53.8294L38.605 53.8625C38.5387 53.8957 38.4725 53.9619 38.4393 54.0282C38.3399 54.0282 38.2736 54.0944 38.2074 54.1607C37.9423 54.4257 37.644 54.6576 37.3789 54.9226C37.2133 55.0882 36.9813 55.1544 36.9482 55.3863C36.6831 55.3863 36.5174 55.6513 36.2854 55.7838C36.1529 55.8832 35.9872 55.9826 35.8546 56.082C35.7883 56.1482 35.6889 56.1814 35.7221 56.2807C35.6889 56.2807 35.6558 56.2807 35.6558 56.347C35.6227 56.347 35.5895 56.3801 35.5895 56.3801C35.5895 56.3801 35.5895 56.3801 35.5564 56.3801C35.1919 56.4795 34.8936 56.612 34.6285 56.877C34.5954 56.877 34.5954 56.877 34.5623 56.8439C34.5291 56.8439 34.4629 56.8439 34.4297 56.8439C34.0321 57.1089 33.6013 57.1751 33.1374 57.2083ZM36.7825 57.4401C36.7493 57.4401 36.7162 57.407 36.6831 57.3408C36.7162 57.3739 36.7493 57.407 36.7825 57.4401ZM37.7766 58.4339C37.7103 58.4339 37.7103 58.4008 37.6772 58.3345C37.7435 58.3677 37.7435 58.4008 37.7766 58.4339ZM46.1272 52.6038C46.0941 52.6038 46.0609 52.6038 45.9947 52.6038C45.2988 53.0675 44.6029 53.5313 43.8739 53.9288C43.8076 53.9619 43.7082 53.995 43.7082 54.0944C43.5093 54.0282 43.3768 54.1938 43.2774 54.3263V54.3594C43.2774 54.3594 43.2774 54.3594 43.2443 54.3594C43.2443 54.3594 43.2442 54.3594 43.2111 54.3263C43.2774 54.1276 43.4762 54.0282 43.5093 53.7963V53.7632C43.675 53.5313 43.8407 53.2994 44.0064 53.0675C44.3378 52.4713 44.7354 51.9081 45.0005 51.2787C45.1662 51.0137 45.3319 50.7487 45.4313 50.4506C45.7627 49.8212 46.0609 49.1918 46.326 48.5293C46.4586 48.2974 46.558 48.0324 46.6243 47.7674C46.6243 47.7343 46.6574 47.7343 46.6574 47.7011C46.6905 47.5686 46.7568 47.4693 46.7899 47.3368C46.8562 47.1711 46.9556 47.2374 47.055 47.3036C47.4527 47.5686 47.8503 47.8336 48.248 48.0655C48.3143 48.0987 48.3805 48.1649 48.4137 48.198C48.4137 48.2643 48.4799 48.2643 48.5131 48.2643C48.8113 48.4962 49.1096 48.728 49.4078 48.9268C49.4741 49.0593 49.6066 49.0593 49.6729 49.1587C49.7392 49.2249 49.8386 49.2912 49.7723 49.3906C49.706 49.4568 49.6398 49.5231 49.5735 49.5893C49.5404 49.6224 49.5403 49.6224 49.5072 49.6556C49.3747 49.7549 49.2752 49.8543 49.1758 49.9537C48.8776 50.1856 48.5794 50.4837 48.3143 50.7487C47.9166 51.0137 47.5521 51.345 47.1876 51.6431C46.8562 51.9081 46.4917 52.2394 46.1272 52.6038ZM56.3998 45.6473C56.3998 45.6473 56.3666 45.6142 56.3666 45.5811C56.3998 45.6142 56.3998 45.6142 56.3998 45.6473ZM57.1619 29.4157C56.7643 29.4488 56.3666 29.4157 55.9359 29.4488C55.8364 29.4488 55.7702 29.4488 55.6708 29.4488C55.5713 29.4157 55.4719 29.4157 55.3725 29.4157C54.9417 29.4157 54.4778 29.4157 54.047 29.4157C53.7819 29.4157 53.5168 29.3826 53.2517 29.4488C52.0919 29.4488 50.9653 29.4488 49.8055 29.4488C49.6066 29.3495 49.7392 29.1507 49.6729 29.0182C49.6729 28.0575 49.6066 27.13 49.4741 26.1694C49.4741 25.7387 49.4078 25.3412 49.3415 24.9437C49.2752 24.2481 49.1758 23.5856 49.0433 22.8899C49.0102 22.658 48.977 22.4262 48.9439 22.1943C48.8113 21.4655 48.6788 20.7699 48.48 20.0411C48.4137 19.6105 48.2811 19.213 48.1817 18.8155C48.1486 18.683 48.1154 18.5504 48.2811 18.4842C48.6788 18.2523 49.0764 18.0204 49.4741 17.7554C50.0374 17.391 50.5676 17.0267 51.0978 16.596C51.1641 16.5298 51.2635 16.4635 51.3298 16.3973C51.396 16.3641 51.4955 16.2979 51.5286 16.2316C51.628 16.1985 51.6943 16.1323 51.7606 16.0329C51.9594 15.9004 52.1251 15.7679 52.2576 15.6023C52.357 15.6685 52.4564 15.7679 52.5227 15.8673C52.7547 16.2316 53.0198 16.5629 53.2186 16.9273C53.2849 17.0267 53.318 17.126 53.4506 17.126C53.4506 17.391 53.6162 17.5898 53.7819 17.7886C53.9145 17.8217 53.9145 17.9211 53.9145 18.0204C54.3784 18.9811 54.9086 19.9417 55.3062 20.9355C55.3394 20.9686 55.3394 21.0349 55.4057 21.068C55.4057 21.068 55.4057 21.068 55.4057 21.1011C55.4057 21.2005 55.4388 21.2999 55.4719 21.3993C55.9359 22.5918 56.3004 23.7843 56.5986 25.0431C56.6317 25.1425 56.6317 25.2419 56.7312 25.3081H56.7643C56.7643 25.3412 56.7643 25.3412 56.7643 25.3744V25.4075C56.7643 25.4406 56.7643 25.4737 56.7643 25.4737C56.7643 25.54 56.7312 25.5731 56.7312 25.6394C56.7643 26.1694 56.93 26.6994 56.9963 27.2625C56.9963 27.3288 57.0294 27.395 57.0957 27.4282C57.0957 27.4282 57.1288 27.4282 57.1288 27.395C57.1288 27.395 57.1288 27.395 57.1288 27.4282C57.0957 27.4613 57.0957 27.4944 57.0957 27.5607C57.1288 27.66 57.1288 27.7594 57.1288 27.8919C57.1288 27.9582 57.1288 28.0576 57.1619 28.1238C57.1951 28.2563 57.1951 28.3888 57.1951 28.5213C57.2282 28.7532 57.1288 29.0182 57.2945 29.217C57.3276 29.217 57.3276 29.1838 57.3608 29.1838V29.217C57.2945 29.2832 57.2614 29.3826 57.1619 29.4157ZM61.5692 29.2501C61.5692 29.217 61.5692 29.217 61.5692 29.2501C61.5692 29.217 61.5692 29.217 61.5692 29.1838C61.5692 29.1838 61.5692 29.217 61.5692 29.2501ZM12.2608 55.0882C12.2608 55.1213 12.2608 55.1213 12.2608 55.0882C12.2608 55.1213 12.2608 55.0882 12.2608 55.0882ZM39.4003 58.0033C39.334 57.9701 39.3009 57.937 39.2678 57.8708C39.3009 57.9039 39.3672 57.937 39.4003 58.0033ZM60.9727 36.9684C60.9727 36.9353 60.9727 36.9353 60.9727 36.9353C60.9727 36.9021 61.0059 36.9353 60.9727 36.9684C61.0059 36.9353 60.9727 36.9353 60.9727 36.9684ZM46.6905 4.77011L46.6574 4.73699C46.6905 4.73699 46.6905 4.73699 46.6905 4.77011ZM24.853 0.695642C24.8199 0.695642 24.8199 0.695642 24.853 0.695642V0.695642ZM0.530198 26.2025C0.530198 26.2356 0.49706 26.2688 0.49706 26.3019C0.49706 26.2688 0.49706 26.2356 0.530198 26.2025ZM16.3367 58.0695C16.3367 58.0364 16.3036 58.0364 16.3036 58.0364C16.3367 58.0695 16.3699 58.1026 16.403 58.1358C16.403 58.1358 16.3699 58.1026 16.3367 58.0695ZM29.5585 61.6471C29.5917 61.6802 29.5917 61.6802 29.6248 61.7134C29.5917 61.7134 29.5585 61.7134 29.5585 61.7134C29.5585 61.6802 29.5585 61.6802 29.5585 61.6471ZM39.2015 59.8914C39.2346 59.8914 39.2346 59.9246 39.2678 59.9246C39.2346 59.9246 39.2015 59.8914 39.2015 59.8914Z" fill="url(#paint0_linear_144_755)"/>
<defs>
<linearGradient id="paint0_linear_144_755" x1="11.3606" y1="75.3336" x2="48.5188" y2="-11.3992" gradientUnits="userSpaceOnUse">
<stop stop-color="#1B73CD"/>
<stop offset="0.910714" stop-color="#BFCBF6"/>
</linearGradient>
</defs>
</svg>
