<svg width="69" height="50" viewBox="0 0 69 50" fill="none" xmlns="http://www.w3.org/2000/svg">
<g clip-path="url(#clip0_260_4829)">
<path d="M67.1875 41.5625C66.5625 45 63.5938 47.6562 60 48.2812C54.375 49.0625 44.8437 50.1562 34.2187 50.1562C23.75 50.1562 14.375 49.2187 8.4375 48.2812C4.84375 47.8125 1.875 45.1563 1.25 41.5625C0.625 37.6563 0 32.0312 0 25C0 17.9688 0.625 12.3438 1.40625 8.4375C2.03125 5 5 2.34375 8.59375 1.71875C14.2187 0.9375 23.5937 0 34.2187 0C44.8437 0 54.0625 0.9375 60 1.875C63.5938 2.34375 66.5625 5 67.1875 8.59375C67.8125 12.5 68.75 18.125 68.75 25.1563C68.5937 32.0313 67.9688 37.6563 67.1875 41.5625Z" fill="#1D9AEF"/>
<path opacity="0.05" d="M44.5 22.3654L26.5312 10.4904C25.5937 9.86538 24.5 9.86538 23.5625 10.3341C22.625 10.8029 22 11.8966 22 12.9904V36.7404C22 37.8341 22.625 38.7716 23.5625 39.3966C24.0313 39.5529 24.5 39.7091 24.9687 39.7091C25.5937 39.7091 26.0625 39.5529 26.5312 39.2404L44.3437 27.3654C45.125 26.8966 45.5938 25.9591 45.5938 24.8654C45.75 23.9279 45.2812 22.9904 44.5 22.3654Z" fill="black"/>
<path opacity="0.07" d="M26.2883 11.3646L43.1633 22.6146C44.257 23.3958 45.0383 24.0208 45.0383 24.9583C45.0383 25.8958 44.7258 26.5208 43.9445 26.9896C43.3195 27.4583 26.757 38.5521 26.757 38.5521C25.3508 39.4896 23.007 39.3333 23.007 36.2083V13.7083C22.8508 10.5833 25.3508 10.7396 26.2883 11.3646Z" fill="black"/>
<path d="M24 37.2222V13.4722C24 12.3785 25.25 11.5972 26.1875 12.2222L44 24.0972C44.9375 24.7222 44.9375 25.9722 44 26.441L26.1875 38.316C25.25 39.0972 24 38.316 24 37.2222Z" fill="white"/>
</g>
<defs>
<clipPath id="clip0_260_4829">
<rect width="68.75" height="50" fill="white"/>
</clipPath>
</defs>
</svg>
